{"glyphs":{"0":{"ha":935,"x_min":60,"x_max":876,"o":"m 469 -22 q 257 31 350 -22 q 112 191 165 83 q 60 465 60 299 q 112 740 60 632 q 257 900 165 848 q 469 953 350 953 q 679 900 588 953 q 824 740 771 848 q 876 465 876 632 q 824 191 876 299 q 679 31 771 83 q 469 -22 588 -22 m 469 180 q 599 252 550 180 q 647 465 647 324 q 599 679 647 606 q 469 752 550 752 q 337 679 385 752 q 289 465 289 606 q 337 252 289 324 q 469 180 385 180 z "},"1":{"ha":533,"x_min":49,"x_max":415,"o":"m 253 940 l 415 940 l 415 0 l 192 0 l 192 673 q 118 658 153 663 q 49 653 84 652 l 49 864 q 148 885 100 868 q 253 940 197 903 z "},"2":{"ha":878,"x_min":78,"x_max":826,"o":"m 78 0 l 78 181 q 99 311 78 256 q 166 406 119 367 q 289 474 213 446 l 487 548 q 565 597 540 569 q 589 666 589 626 q 560 732 589 703 q 474 760 531 760 q 383 728 421 760 q 339 638 344 697 l 93 638 q 144 817 92 747 q 282 920 196 887 q 469 953 368 953 q 649 917 568 953 q 778 815 730 881 q 826 659 826 749 q 801 532 826 588 q 718 433 775 476 q 567 354 661 390 l 370 280 q 315 250 330 265 q 300 213 300 236 l 300 203 l 824 203 l 824 0 l 78 0 z "},"3":{"ha":910,"x_min":51,"x_max":854,"o":"m 458 -22 q 308 -2 381 -22 q 177 59 235 19 q 85 160 119 100 q 51 301 51 221 l 288 301 q 313 239 292 267 q 370 196 333 212 q 458 180 406 180 q 572 210 529 180 q 614 288 614 241 q 597 342 614 321 q 549 373 581 363 q 472 383 517 383 l 330 383 l 330 557 l 468 557 q 555 585 524 557 q 586 658 586 613 q 556 725 586 699 q 458 752 526 752 q 353 728 399 752 q 298 650 306 703 l 62 650 q 121 821 70 754 q 256 920 172 888 q 447 953 340 953 q 642 919 557 953 q 776 826 727 886 q 825 687 825 767 q 789 565 825 618 q 681 488 753 513 q 808 400 762 456 q 854 266 854 344 q 804 116 854 181 q 664 14 753 51 q 458 -22 575 -22 z "},"4":{"ha":880,"x_min":25,"x_max":871,"o":"m 490 939 l 708 939 l 708 378 l 871 378 l 871 187 l 708 187 l 708 0 l 488 0 l 488 187 l 25 187 l 25 353 l 490 939 m 500 620 l 288 353 l 500 353 l 500 620 z "},"5":{"ha":834,"x_min":67,"x_max":802,"o":"m 434 -22 q 241 16 322 -22 q 115 125 160 53 q 67 297 71 197 l 295 297 q 335 209 295 238 q 434 180 374 180 q 534 220 492 180 q 576 319 576 260 q 422 427 576 427 l 103 427 l 149 932 l 749 932 l 749 728 l 328 728 l 370 785 l 347 556 l 333 574 q 416 586 366 581 q 498 590 465 590 q 719 518 635 590 q 802 319 802 446 q 756 147 802 224 q 626 24 709 69 q 434 -22 544 -22 z "},"6":{"ha":893,"x_min":60,"x_max":838,"o":"m 478 -22 q 262 38 356 -22 q 114 205 167 98 q 60 449 60 311 q 114 725 60 613 q 262 895 167 838 q 479 953 357 953 q 659 916 581 953 q 782 813 738 879 q 825 656 826 746 l 590 656 q 560 726 586 701 q 488 752 534 752 q 336 667 393 752 q 280 438 280 583 q 281 408 280 423 q 284 378 282 393 q 340 501 301 457 q 431 564 378 545 q 540 582 483 582 q 697 543 631 582 q 801 436 764 504 q 838 281 838 368 q 792 123 838 191 q 666 16 747 54 q 478 -22 585 -22 m 478 180 q 569 212 529 180 q 610 292 610 244 q 569 376 610 346 q 478 406 529 406 q 415 393 444 406 q 368 354 386 379 q 350 292 350 328 q 389 212 350 244 q 478 180 427 180 z "},"7":{"ha":732,"x_min":33,"x_max":708,"o":"m 40 0 l 446 715 l 33 715 l 33 932 l 708 932 l 708 715 l 340 0 l 40 0 z "},"8":{"ha":944,"x_min":59,"x_max":886,"o":"m 472 -22 q 250 14 342 -22 q 108 112 158 50 q 59 252 59 174 q 93 357 59 314 q 185 423 127 400 q 313 446 242 446 q 384 438 352 446 q 460 419 415 431 l 460 370 q 373 358 413 370 q 311 325 334 346 q 288 277 288 304 q 314 227 288 249 q 382 192 340 205 q 472 180 424 180 q 617 200 576 180 q 658 248 658 220 q 641 288 658 269 q 592 320 624 306 l 317 426 q 216 481 268 446 q 127 568 163 515 q 92 691 92 620 q 136 833 92 774 q 265 922 180 891 q 472 953 350 953 q 664 918 577 953 q 803 820 751 883 q 856 677 856 758 q 826 584 856 627 q 741 515 796 542 q 611 489 686 489 q 549 495 577 489 q 483 514 522 501 l 483 574 q 551 585 518 574 q 605 615 584 595 q 626 660 626 634 q 607 711 626 691 q 552 742 587 731 q 472 752 517 752 q 396 743 431 752 q 340 719 361 735 q 319 681 319 703 q 334 644 319 660 q 382 615 349 629 l 673 500 q 831 408 776 460 q 886 261 886 356 q 838 116 886 180 q 697 15 790 51 q 472 -22 605 -22 z "},"9":{"ha":891,"x_min":55,"x_max":831,"o":"m 431 -22 q 249 15 331 -22 q 118 119 167 52 q 69 276 69 186 l 301 276 q 342 206 305 231 q 423 180 378 180 q 534 219 492 180 q 594 329 575 259 q 613 491 613 399 q 611 521 613 505 q 608 551 610 537 q 551 429 591 473 q 460 368 512 385 q 353 350 408 350 q 195 388 263 350 q 92 493 128 426 q 55 648 55 560 q 100 808 55 740 q 226 915 146 876 q 410 953 307 953 q 573 918 497 953 q 707 821 649 884 q 798 671 765 758 q 831 478 831 584 q 786 214 831 326 q 651 40 740 101 q 431 -22 563 -22 m 413 526 q 476 539 447 526 q 524 577 506 552 q 542 635 542 601 q 502 718 542 688 q 410 749 462 749 q 323 718 361 749 q 284 635 284 688 q 323 554 284 583 q 413 526 362 526 z "},"\r":{"ha":833,"x_min":0,"x_max":0,"o":""}," ":{"ha":374,"x_min":0,"x_max":0,"o":""}," ":{"ha":374,"x_min":0,"x_max":0,"o":""},",":{"ha":415,"x_min":24,"x_max":383,"o":"m 186 -228 l 24 -145 q 120 -84 77 -119 q 178 -7 164 -49 q 98 36 131 5 q 64 117 64 67 q 106 208 64 172 q 213 244 149 244 q 338 189 294 244 q 383 58 383 133 q 328 -107 383 -28 q 186 -228 274 -185 z "},".":{"ha":352,"x_min":24,"x_max":325,"o":"m 24 129 q 66 232 24 191 q 173 273 107 273 q 282 232 239 273 q 325 129 325 191 q 282 27 325 67 q 173 -12 239 -12 q 66 28 107 -12 q 24 129 24 68 z "},";":{"ha":497,"x_min":70,"x_max":428,"o":"m 232 -228 l 70 -145 q 166 -84 123 -119 q 224 -7 210 -49 q 143 36 177 5 q 110 117 110 67 q 152 208 110 172 q 259 244 194 244 q 384 189 340 244 q 428 58 428 133 q 374 -107 428 -28 q 232 -228 320 -185 m 122 532 q 164 635 122 594 q 271 676 205 676 q 380 635 337 676 q 423 532 423 594 q 380 430 423 470 q 271 390 337 390 q 164 431 205 390 q 122 532 122 471 z "},":":{"ha":431,"x_min":63,"x_max":364,"o":"m 63 129 q 105 232 63 191 q 212 273 146 273 q 321 232 278 273 q 364 129 364 191 q 321 27 364 67 q 212 -12 278 -12 q 105 28 146 -12 q 63 129 63 68 m 63 532 q 105 635 63 594 q 212 676 146 676 q 321 635 278 676 q 364 532 364 594 q 321 430 364 470 q 212 390 278 390 q 105 431 146 390 q 63 532 63 471 z "},"-":{"ha":556,"x_min":76,"x_max":479,"o":"m 76 337 l 76 531 l 479 531 l 479 337 l 76 337 z "},"–":{"ha":806,"x_min":76,"x_max":728,"o":"m 76 337 l 76 531 l 728 531 l 728 337 l 76 337 z "},"—":{"ha":1130,"x_min":76,"x_max":1054,"o":"m 76 337 l 76 531 l 1054 531 l 1054 337 l 76 337 z "},"!":{"ha":430,"x_min":74,"x_max":374,"o":"m 123 367 l 101 975 l 344 975 l 319 367 l 123 367 m 223 -12 q 116 27 157 -12 q 74 131 74 67 q 116 232 74 191 q 223 273 157 273 q 331 232 288 273 q 374 131 374 191 q 331 27 374 67 q 223 -12 288 -12 z "},"a":{"ha":863,"x_min":69,"x_max":760,"o":"m 566 0 l 538 183 l 538 439 q 519 519 538 490 q 439 547 500 547 q 380 536 403 547 q 347 508 358 526 q 336 469 336 490 l 96 469 q 134 602 96 550 q 249 681 172 655 q 439 706 325 706 q 610 676 538 706 q 721 584 682 645 q 760 431 760 523 l 760 0 l 566 0 m 351 -22 q 196 9 259 -22 q 101 92 133 40 q 69 209 69 145 q 103 314 69 269 q 202 382 136 358 q 363 406 267 406 q 466 400 422 406 q 558 385 511 394 l 558 260 q 486 272 524 267 q 414 276 449 276 q 336 260 365 276 q 307 209 307 244 q 333 164 307 183 q 414 145 358 145 q 488 164 461 145 q 526 211 515 183 q 538 267 538 240 l 590 267 q 565 122 590 188 q 487 17 540 56 q 351 -22 434 -22 z "},"b":{"ha":884,"x_min":117,"x_max":826,"o":"m 504 -22 q 394 14 445 -22 q 312 124 343 49 q 281 315 281 199 l 340 315 q 359 248 340 278 q 407 199 378 217 q 467 181 437 181 q 540 202 510 181 q 587 261 570 224 q 603 346 603 299 q 587 427 603 391 q 540 484 571 463 q 466 505 510 505 q 403 489 432 505 q 357 444 374 473 q 340 376 340 415 l 281 376 q 309 560 281 487 q 391 670 338 633 q 522 706 445 706 q 677 661 608 706 q 785 535 745 616 q 826 346 826 454 q 783 153 826 236 q 668 24 740 70 q 504 -22 595 -22 m 117 0 l 117 958 l 340 958 l 340 178 l 256 0 l 117 0 z "},"c":{"ha":755,"x_min":60,"x_max":697,"o":"m 397 -22 q 230 23 307 -22 q 107 150 153 68 q 60 342 60 232 q 107 543 60 462 q 230 665 153 624 q 397 706 307 706 q 529 681 472 706 q 623 613 585 655 q 679 522 660 572 q 697 424 697 472 l 475 426 q 451 480 470 456 q 395 505 432 505 q 340 490 366 505 q 298 440 314 475 q 281 342 281 404 q 298 245 281 281 q 340 195 314 210 q 395 181 366 181 q 459 202 442 181 q 475 258 475 224 l 697 258 q 665 120 697 184 q 566 17 632 56 q 397 -22 499 -22 z "},"d":{"ha":884,"x_min":59,"x_max":767,"o":"m 378 -22 q 216 24 289 -22 q 101 153 144 70 q 59 346 59 236 q 99 535 59 454 q 208 661 140 616 q 363 706 277 706 q 494 670 440 706 q 576 560 548 633 q 604 376 604 487 l 542 376 q 525 444 542 415 q 481 489 508 473 q 419 505 453 505 q 344 484 375 505 q 297 427 313 463 q 281 346 281 391 q 298 261 281 299 q 344 202 314 224 q 416 181 375 181 q 477 199 449 181 q 524 248 506 217 q 542 315 542 278 l 604 315 q 573 124 604 199 q 489 14 541 49 q 378 -22 438 -22 m 586 0 l 542 178 l 542 958 l 767 958 l 767 0 l 586 0 z "},"e":{"ha":760,"x_min":60,"x_max":708,"o":"m 391 -22 q 229 22 305 -22 q 107 149 153 67 q 60 345 60 232 q 106 539 60 458 q 228 663 153 620 q 391 706 304 706 q 541 672 477 706 q 644 579 605 638 q 695 448 683 521 q 690 297 708 374 l 235 297 l 235 409 l 528 409 l 496 388 q 494 438 498 413 q 479 484 490 463 q 448 518 468 505 q 395 531 427 531 q 334 514 360 531 q 293 464 308 497 q 279 385 279 432 l 279 298 q 292 222 279 254 q 329 173 304 190 q 391 155 353 155 q 444 167 422 155 q 476 207 467 180 l 697 207 q 646 91 687 143 q 541 8 606 39 q 391 -22 476 -22 z "},"f":{"ha":547,"x_min":68,"x_max":547,"o":"m 159 0 l 159 744 q 191 874 159 824 q 274 948 223 924 q 383 971 326 971 q 465 966 422 971 q 547 955 508 960 l 503 786 q 473 793 490 790 q 440 797 457 797 q 411 790 424 797 q 392 771 399 784 q 385 740 385 758 l 385 0 l 159 0 m 68 540 l 68 684 l 494 684 l 494 540 l 68 540 z "},"g":{"ha":834,"x_min":1,"x_max":799,"o":"m 403 -356 q 183 -321 273 -356 q 47 -230 93 -286 q 1 -112 1 -174 q 48 -8 1 -46 q 163 29 95 29 l 346 -23 q 253 -43 285 -23 q 220 -99 220 -62 q 272 -160 220 -141 q 403 -180 324 -180 q 499 -162 460 -180 q 559 -117 539 -144 q 580 -59 580 -89 q 570 -32 580 -41 q 538 -23 560 -23 l 346 -23 q 214 1 277 -23 q 111 66 151 24 q 71 159 71 107 q 94 235 71 202 q 161 285 118 267 q 263 303 205 303 l 326 235 q 291 228 307 235 q 267 210 276 222 q 258 180 258 198 q 278 143 258 156 q 346 131 299 131 l 538 131 q 730 91 660 131 q 799 -42 799 52 q 750 -195 799 -123 q 612 -311 701 -267 q 403 -356 523 -356 m 400 223 q 245 252 317 223 q 131 336 174 282 q 87 463 87 390 q 131 593 87 539 q 245 677 174 648 q 400 706 317 706 q 553 677 482 706 q 669 593 625 648 q 714 463 714 539 q 669 336 714 390 q 553 252 625 282 q 400 223 482 223 m 403 375 q 475 401 453 375 q 496 463 496 426 q 474 531 496 506 q 400 556 453 556 q 329 531 352 556 q 306 463 306 506 q 330 401 306 426 q 403 375 353 375 m 661 595 l 561 661 q 594 771 561 724 q 680 843 628 817 q 787 869 732 869 l 778 659 q 691 643 721 659 q 661 595 661 628 z "},"h":{"ha":894,"x_min":117,"x_max":794,"o":"m 570 0 l 570 399 q 544 479 570 453 q 480 505 517 505 q 410 483 442 505 q 359 414 378 462 q 340 288 340 367 l 272 288 q 307 528 272 435 q 403 663 342 620 q 541 706 464 706 q 685 667 629 706 q 767 558 741 627 q 794 399 794 488 l 794 0 l 570 0 m 117 0 l 117 958 l 340 958 l 340 0 l 117 0 z "},"i":{"ha":499,"x_min":118,"x_max":382,"o":"m 250 772 q 152 805 187 772 q 118 896 118 837 q 152 988 118 953 q 250 1022 187 1022 q 347 988 311 1022 q 382 896 382 953 q 347 805 382 837 q 250 772 311 772 m 139 0 l 139 688 l 361 688 l 361 0 l 139 0 z "},"j":{"ha":497,"x_min":-91,"x_max":377,"o":"m 245 772 q 148 805 184 772 q 112 896 112 837 q 148 988 112 953 q 245 1022 184 1022 q 342 988 306 1022 q 377 896 377 953 q 342 805 377 837 q 245 772 306 772 m 113 -356 q 4 -345 51 -356 q -91 -322 -43 -335 l -91 -131 q -22 -152 -61 -142 q 50 -162 17 -162 q 114 -142 93 -162 q 135 -62 135 -122 l 135 687 l 359 687 l 359 -66 q 297 -290 359 -224 q 113 -356 234 -356 z "},"k":{"ha":863,"x_min":117,"x_max":863,"o":"m 117 0 l 117 958 l 340 958 l 340 0 l 117 0 m 312 458 l 548 684 l 844 684 l 312 231 l 312 458 m 593 0 l 306 440 l 510 496 l 863 0 l 593 0 z "},"l":{"ha":458,"x_min":117,"x_max":340,"o":"m 117 0 l 117 958 l 340 958 l 340 0 l 117 0 z "},"m":{"ha":1338,"x_min":117,"x_max":1239,"o":"m 1014 0 l 1014 399 q 988 479 1014 453 q 923 505 962 505 q 830 456 866 505 q 794 288 794 407 l 706 288 q 728 492 706 411 q 790 620 751 573 q 879 686 828 667 q 986 706 929 706 q 1130 667 1074 706 q 1212 558 1185 627 q 1239 399 1239 488 l 1239 0 l 1014 0 m 117 0 l 117 684 l 313 684 l 337 588 q 425 678 372 649 q 541 706 478 706 q 685 667 629 706 q 767 558 741 627 q 794 399 794 488 l 794 0 l 570 0 l 570 399 q 544 479 570 453 q 480 505 517 505 q 410 483 442 505 q 359 414 378 462 q 340 288 340 367 l 340 0 l 117 0 z "},"n":{"ha":894,"x_min":117,"x_max":794,"o":"m 570 0 l 570 399 q 544 479 570 453 q 480 505 517 505 q 410 483 442 505 q 359 414 378 462 q 340 288 340 367 l 272 288 q 307 528 272 435 q 403 663 342 620 q 541 706 464 706 q 685 667 629 706 q 767 558 741 627 q 794 399 794 488 l 794 0 l 570 0 m 117 0 l 117 684 l 313 684 l 340 571 l 340 0 l 117 0 z "},"o":{"ha":815,"x_min":60,"x_max":754,"o":"m 409 -22 q 234 17 314 -22 q 107 136 155 56 q 60 340 60 217 q 107 549 60 468 q 234 668 155 629 q 409 706 314 706 q 581 668 502 706 q 707 549 659 629 q 754 340 754 468 q 707 136 754 217 q 581 17 659 56 q 409 -22 502 -22 m 401 172 q 463 188 433 172 q 513 242 493 205 q 533 340 533 279 q 499 474 533 435 q 417 513 465 513 q 354 497 385 513 q 302 442 322 480 q 281 340 281 404 q 317 210 281 248 q 401 172 353 172 z "},"p":{"ha":885,"x_min":117,"x_max":826,"o":"m 493 -22 q 367 8 417 -22 q 291 104 316 39 q 265 274 265 169 l 340 274 q 356 225 340 246 q 399 192 372 204 q 458 181 426 181 q 523 197 490 181 q 580 248 557 213 q 603 342 603 283 q 586 428 603 391 q 537 485 569 465 q 462 505 506 505 q 399 490 426 505 q 355 449 371 476 q 340 386 340 422 l 265 386 q 299 573 265 503 q 388 675 333 643 q 504 706 442 706 q 660 663 586 706 q 780 539 733 620 q 826 342 826 458 q 779 145 826 226 q 656 21 732 64 q 493 -22 580 -22 m 117 -332 l 117 684 l 299 684 l 340 506 l 340 -332 l 117 -332 z "},"q":{"ha":885,"x_min":60,"x_max":851,"o":"m 391 -22 q 229 21 305 -22 q 107 145 153 64 q 60 342 60 226 q 106 539 60 458 q 224 663 151 620 q 378 706 297 706 q 495 675 440 706 q 584 573 550 643 q 618 386 618 503 l 542 386 q 527 449 542 422 q 486 490 513 476 q 424 505 460 505 q 347 485 379 505 q 298 428 315 465 q 281 342 281 391 q 305 248 281 283 q 362 197 328 213 q 428 181 396 181 q 484 193 458 181 q 526 226 510 205 q 542 274 542 247 l 574 274 q 560 121 574 188 q 507 16 547 54 q 391 -22 467 -22 m 792 -356 q 600 -259 658 -326 q 542 -77 542 -192 l 542 506 l 627 684 l 766 684 l 766 -95 q 774 -149 766 -130 q 800 -179 782 -168 q 851 -199 819 -190 l 792 -356 z "},"r":{"ha":590,"x_min":117,"x_max":573,"o":"m 117 0 l 117 688 l 340 688 l 340 0 l 117 0 m 292 292 q 328 521 292 431 q 417 653 363 610 q 528 697 472 697 q 550 695 539 697 q 571 692 561 694 l 573 469 q 538 472 556 471 q 503 473 519 473 q 418 455 455 473 q 360 397 381 437 q 340 292 340 358 l 292 292 z "},"s":{"ha":735,"x_min":50,"x_max":683,"o":"m 382 -22 q 209 4 284 -22 q 92 82 134 30 q 51 215 50 135 l 251 215 q 280 165 253 178 q 352 151 306 151 q 398 158 380 151 q 425 176 416 165 q 434 201 434 188 q 422 228 434 218 q 383 249 409 239 l 217 314 q 103 391 143 344 q 63 503 63 438 q 147 650 63 594 q 377 706 231 706 q 588 642 514 706 q 662 480 661 578 l 458 480 q 440 518 458 502 q 377 535 421 535 q 320 523 341 535 q 299 492 299 511 q 343 450 299 465 l 532 374 q 642 305 602 347 q 683 201 683 263 q 643 93 683 144 q 536 10 604 42 q 382 -22 468 -22 z "},"t":{"ha":575,"x_min":42,"x_max":533,"o":"m 370 -22 q 248 1 305 -22 q 157 75 192 25 q 123 205 123 126 l 123 857 l 347 857 l 347 213 q 408 151 347 151 q 450 155 428 151 q 501 170 472 160 l 533 15 q 452 -11 491 0 q 370 -22 414 -22 m 42 540 l 42 684 l 502 684 l 502 540 l 42 540 z "},"u":{"ha":902,"x_min":110,"x_max":785,"o":"m 563 688 l 785 688 l 785 0 l 563 0 l 563 688 m 110 688 l 332 688 l 332 274 q 356 205 332 227 q 417 182 380 182 q 485 199 451 182 q 541 256 519 215 q 563 367 563 296 l 612 367 q 581 148 612 231 q 495 26 549 64 q 374 -12 442 -12 q 244 11 305 -12 q 147 92 184 35 q 110 249 110 149 l 110 688 z "},"v":{"ha":745,"x_min":8,"x_max":736,"o":"m 8 684 l 265 684 l 377 190 l 367 190 l 479 684 l 736 684 l 499 0 l 244 0 l 8 684 z "},"w":{"ha":1101,"x_min":8,"x_max":1092,"o":"m 8 684 l 240 684 l 361 218 l 342 218 l 450 643 l 660 643 l 769 217 l 749 217 l 869 684 l 1092 684 l 865 0 l 646 0 l 533 402 l 567 402 l 458 0 l 236 0 l 8 684 z "},"x":{"ha":830,"x_min":8,"x_max":823,"o":"m 8 0 l 282 340 l 8 688 l 282 688 l 421 508 l 550 688 l 822 688 l 552 340 l 823 0 l 551 0 l 407 178 l 282 0 l 8 0 z "},"y":{"ha":755,"x_min":9,"x_max":747,"o":"m 22 684 l 276 684 l 417 194 l 383 194 l 522 684 l 747 684 l 481 -110 q 368 -303 432 -251 q 218 -356 303 -356 q 114 -347 166 -356 q 9 -316 61 -337 l 9 -125 q 85 -152 48 -143 q 158 -162 122 -162 q 202 -153 181 -162 q 240 -123 223 -144 q 269 -64 258 -101 l 292 0 l 22 684 z "},"z":{"ha":717,"x_min":85,"x_max":633,"o":"m 85 0 l 85 181 l 391 505 l 85 505 l 85 684 l 633 684 l 633 505 l 344 181 l 633 181 l 633 0 l 85 0 z "},"A":{"ha":943,"x_min":25,"x_max":918,"o":"m 25 0 l 339 932 l 622 932 l 918 0 l 684 0 l 633 164 l 312 164 l 261 0 l 25 0 m 368 328 l 583 328 l 477 669 l 368 328 z "},"B":{"ha":939,"x_min":117,"x_max":872,"o":"m 117 0 l 117 932 l 521 932 q 708 899 634 932 q 820 809 783 866 q 857 681 857 753 q 813 551 857 604 q 697 473 769 497 q 785 435 745 460 q 848 367 824 409 q 872 263 872 325 q 857 176 872 222 q 803 91 842 131 q 697 25 765 51 q 524 0 629 0 l 117 0 m 340 194 l 517 194 q 602 216 573 194 q 631 277 631 237 q 604 342 631 317 q 517 366 576 366 l 340 366 l 340 194 m 340 740 l 340 562 l 511 562 q 602 586 575 562 q 629 649 629 610 q 602 713 629 687 q 513 740 576 740 l 340 740 z "},"C":{"ha":910,"x_min":60,"x_max":850,"o":"m 472 -22 q 257 33 349 -22 q 112 196 164 88 q 60 465 60 304 q 111 734 60 626 q 256 898 163 842 q 472 953 349 953 q 740 869 648 953 q 850 653 833 786 l 614 613 q 564 711 598 672 q 472 751 529 751 q 381 720 420 751 q 320 626 342 689 q 299 465 299 563 q 321 306 299 369 q 382 213 343 243 q 472 182 422 182 q 578 220 543 182 q 614 312 614 258 l 849 312 q 805 130 849 204 q 678 16 762 55 q 472 -22 594 -22 z "},"D":{"ha":992,"x_min":117,"x_max":935,"o":"m 117 932 l 447 932 q 701 875 591 932 q 873 714 810 818 q 935 465 935 609 q 873 218 935 322 q 701 57 810 113 q 447 0 591 0 l 117 0 l 117 932 m 340 728 l 340 203 l 447 203 q 578 237 523 203 q 664 331 633 272 q 694 465 694 390 q 664 601 694 542 q 578 694 633 660 q 447 728 523 728 l 340 728 z "},"E":{"ha":850,"x_min":116,"x_max":739,"o":"m 116 0 l 116 932 l 739 932 l 739 740 l 338 740 l 338 560 l 714 560 l 714 367 l 338 367 l 338 194 l 739 194 l 739 0 l 116 0 z "},"F":{"ha":792,"x_min":117,"x_max":725,"o":"m 117 0 l 117 932 l 725 932 l 725 740 l 340 740 l 340 557 l 685 557 l 685 367 l 340 367 l 340 0 l 117 0 z "},"G":{"ha":988,"x_min":60,"x_max":888,"o":"m 470 -22 q 260 40 353 -22 q 114 213 167 103 q 60 466 60 323 q 91 663 60 574 q 182 817 123 752 q 322 917 240 882 q 503 953 403 953 q 750 884 655 953 q 885 670 845 816 l 649 628 q 587 719 626 685 q 491 752 548 752 q 393 717 437 752 q 325 619 350 683 q 300 466 300 555 q 325 314 300 378 q 393 215 350 249 q 491 180 437 180 q 586 202 544 180 q 652 264 628 225 q 676 349 676 302 l 715 349 q 688 151 715 235 q 607 23 661 68 q 470 -22 553 -22 m 704 0 l 676 192 l 676 357 l 491 358 l 491 494 l 888 494 l 888 0 l 704 0 z "},"H":{"ha":1034,"x_min":117,"x_max":916,"o":"m 117 932 l 340 932 l 340 565 l 692 565 l 692 932 l 916 932 l 916 0 l 692 0 l 692 369 l 340 369 l 340 0 l 117 0 l 117 932 z "},"I":{"ha":458,"x_min":117,"x_max":340,"o":"m 117 0 l 117 932 l 340 932 l 340 0 l 117 0 z "},"J":{"ha":674,"x_min":34,"x_max":571,"o":"m 34 32 l 34 249 q 153 206 96 217 q 254 194 210 194 q 323 220 299 194 q 346 310 346 247 l 346 932 l 571 932 l 571 310 q 532 114 571 186 q 426 9 492 41 q 275 -22 359 -22 q 147 -7 208 -22 q 34 32 86 8 z "},"K":{"ha":976,"x_min":117,"x_max":989,"o":"m 659 932 l 963 932 l 328 288 l 328 585 l 659 932 m 511 556 l 989 0 l 705 0 l 360 410 l 511 556 m 117 932 l 341 932 l 341 0 l 117 0 l 117 932 z "},"L":{"ha":725,"x_min":117,"x_max":692,"o":"m 340 932 l 340 194 l 692 194 l 692 0 l 117 0 l 117 932 l 340 932 z "},"M":{"ha":1255,"x_min":117,"x_max":1136,"o":"m 117 932 l 435 932 l 642 435 l 624 435 l 831 932 l 1136 932 l 1136 0 l 913 0 l 913 663 l 943 663 l 703 87 l 560 87 l 322 662 l 340 662 l 340 0 l 117 0 l 117 932 z "},"N":{"ha":1044,"x_min":113,"x_max":926,"o":"m 113 932 l 345 932 l 719 368 l 704 368 l 704 932 l 926 932 l 926 0 l 712 0 l 299 619 l 335 619 l 335 0 l 113 0 l 113 932 z "},"O":{"ha":1002,"x_min":60,"x_max":943,"o":"m 500 -22 q 268 34 367 -22 q 115 199 169 90 q 60 469 60 308 q 115 741 60 633 q 268 900 169 848 q 500 953 367 953 q 734 898 634 953 q 888 735 833 843 q 943 469 943 628 q 888 196 943 306 q 734 32 833 87 q 500 -22 634 -22 m 500 177 q 656 254 597 177 q 714 470 714 331 q 656 677 714 601 q 500 753 597 753 q 347 677 406 753 q 289 469 289 601 q 347 254 289 331 q 500 177 406 177 z "},"P":{"ha":846,"x_min":112,"x_max":819,"o":"m 112 0 l 112 932 l 469 932 q 725 855 631 932 q 819 626 819 777 q 725 397 819 475 q 469 319 631 319 l 335 319 l 335 0 l 112 0 m 335 513 l 469 513 q 561 547 530 513 q 592 626 592 581 q 561 706 592 672 q 469 740 530 740 l 335 740 l 335 513 z "},"Q":{"ha":1003,"x_min":60,"x_max":943,"o":"m 500 -22 q 268 34 367 -22 q 115 199 169 90 q 60 469 60 308 q 115 741 60 633 q 268 900 169 848 q 500 953 367 953 q 734 898 634 953 q 888 735 833 843 q 943 469 943 628 q 888 196 943 306 q 734 32 833 87 q 500 -22 634 -22 m 792 -269 q 648 -227 716 -269 q 534 -111 580 -185 l 438 41 l 603 134 l 684 -1 q 728 -39 701 -28 q 785 -51 756 -50 q 851 -44 818 -51 q 920 -24 885 -36 l 920 -245 q 856 -264 887 -258 q 792 -269 825 -269 m 500 177 q 656 254 597 177 q 714 470 714 331 q 656 677 714 601 q 500 753 597 753 q 347 677 406 753 q 289 469 289 601 q 347 254 289 331 q 500 177 406 177 z "},"R":{"ha":939,"x_min":117,"x_max":894,"o":"m 117 0 l 117 932 l 481 932 q 753 852 656 932 q 850 637 850 772 q 753 425 850 505 q 481 346 656 346 l 340 346 l 340 0 l 117 0 m 603 0 l 376 450 l 611 450 l 894 0 l 603 0 m 340 490 l 456 490 q 580 525 539 490 q 622 613 622 559 q 586 704 622 668 q 481 740 551 740 l 340 740 l 340 490 z "},"S":{"ha":933,"x_min":85,"x_max":849,"o":"m 468 -22 q 283 11 368 -22 q 144 117 197 45 q 85 304 90 189 l 304 304 q 326 234 304 262 q 384 193 347 206 q 467 180 422 180 q 534 186 503 180 q 585 208 566 192 q 605 252 605 224 q 584 303 605 286 q 510 341 564 319 l 308 429 q 152 531 208 472 q 97 690 97 589 q 193 880 97 808 q 456 953 289 953 q 717 873 626 953 q 819 644 808 792 l 601 644 q 561 721 593 690 q 456 752 528 752 q 372 733 404 752 q 340 685 340 714 q 361 644 340 659 q 422 610 381 628 l 637 519 q 796 410 744 473 q 849 260 849 348 q 804 104 849 167 q 674 9 759 41 q 468 -22 589 -22 z "},"T":{"ha":783,"x_min":8,"x_max":776,"o":"m 8 740 l 8 932 l 776 932 l 776 740 l 454 740 l 504 790 l 504 0 l 282 0 l 282 790 l 332 740 l 8 740 z "},"U":{"ha":1013,"x_min":110,"x_max":911,"o":"m 110 932 l 332 932 l 332 367 q 383 224 332 267 q 510 180 433 180 q 639 224 588 180 q 690 367 690 267 l 690 932 l 911 932 l 911 367 q 865 161 911 249 q 728 26 818 74 q 510 -22 639 -22 q 291 26 381 -22 q 156 161 202 74 q 110 367 110 249 l 110 932 z "},"V":{"ha":895,"x_min":25,"x_max":871,"o":"m 438 247 l 639 932 l 871 932 l 563 0 l 328 0 l 25 932 l 260 932 l 457 247 l 438 247 z "},"W":{"ha":1391,"x_min":8,"x_max":1383,"o":"m 8 932 l 256 932 l 465 196 l 413 196 l 611 904 l 761 904 l 979 213 l 934 213 l 1131 932 l 1383 932 l 1072 0 l 838 0 l 688 469 l 698 469 l 555 0 l 322 0 l 8 932 z "},"X":{"ha":1010,"x_min":26,"x_max":986,"o":"m 26 0 l 355 465 l 26 932 l 301 932 l 504 639 l 667 932 l 935 932 l 629 469 l 986 0 l 705 0 l 483 292 l 295 0 l 26 0 z "},"Y":{"ha":870,"x_min":7,"x_max":863,"o":"m 7 932 l 268 932 l 447 583 l 411 583 l 602 932 l 863 932 l 536 387 l 536 0 l 315 0 l 315 387 l 7 932 z "},"Z":{"ha":927,"x_min":101,"x_max":827,"o":"m 101 0 l 101 188 l 613 810 l 613 730 l 101 728 l 101 932 l 827 932 l 827 747 l 363 178 l 363 203 l 827 204 l 827 0 l 101 0 z "},"'":{"ha":313,"x_min":47,"x_max":267,"o":"m 47 940 l 267 940 l 238 583 l 76 583 l 47 940 z "},"ʼ":{"ha":406,"x_min":50,"x_max":408,"o":"m 212 481 l 50 564 q 146 625 103 590 q 204 702 190 660 q 123 745 157 714 q 90 826 90 776 q 132 917 90 881 q 239 953 174 953 q 364 898 319 953 q 408 767 408 842 q 354 602 408 681 q 212 481 300 524 z "},"‘":{"ha":462,"x_min":50,"x_max":408,"o":"m 220 468 q 129 495 167 468 q 70 567 91 523 q 50 660 50 610 q 109 824 50 748 q 256 944 168 899 l 408 856 q 313 799 356 833 q 253 719 271 765 q 334 680 300 710 q 369 599 369 649 q 326 506 369 544 q 220 468 284 468 z "},"’":{"ha":462,"x_min":60,"x_max":417,"o":"m 213 468 l 60 556 q 157 615 113 580 q 217 694 201 649 q 134 735 167 703 q 101 815 101 766 q 145 908 101 872 q 250 944 188 944 q 341 917 303 944 q 398 845 378 890 q 417 751 417 801 q 358 588 417 663 q 213 468 299 513 z "},"(":{"ha":619,"x_min":101,"x_max":568,"o":"m 408 1087 l 568 967 q 434 801 488 881 q 355 638 381 721 q 329 458 329 554 q 388 198 329 315 q 568 -47 447 81 l 408 -169 q 173 125 244 -28 q 101 458 101 279 q 173 792 101 638 q 408 1087 244 947 z "},")":{"ha":619,"x_min":50,"x_max":518,"o":"m 212 -169 l 50 -47 q 231 198 172 81 q 290 458 290 315 q 264 638 290 554 q 184 801 238 721 q 50 967 131 881 l 212 1087 q 446 792 374 947 q 518 458 518 638 q 487 231 518 338 q 388 24 456 123 q 212 -169 320 -76 z "},"+":{"ha":764,"x_min":17,"x_max":747,"o":"m 270 696 l 494 696 l 494 453 l 747 453 l 747 257 l 494 257 l 494 14 l 270 14 l 270 257 l 17 257 l 17 453 l 270 453 l 270 696 z "},"−":{"ha":764,"x_min":84,"x_max":680,"o":"m 84 254 l 84 451 l 680 451 l 680 254 l 84 254 z "},"=":{"ha":764,"x_min":84,"x_max":680,"o":"m 84 420 l 84 617 l 680 617 l 680 420 l 84 420 m 84 101 l 84 297 l 680 297 l 680 101 l 84 101 z "},"$":{"ha":1042,"x_min":85,"x_max":957,"o":"m 543 -22 q 370 -4 453 -22 q 223 53 288 14 q 122 154 159 92 q 85 304 85 216 l 304 304 q 331 231 304 258 q 414 192 358 203 q 556 180 469 180 q 645 190 612 180 q 692 217 678 199 q 707 258 707 235 q 688 306 707 284 q 633 344 669 328 l 524 388 l 524 577 l 746 495 q 908 397 860 453 q 957 252 957 340 q 914 120 957 183 q 780 17 871 57 q 543 -22 688 -22 m 447 -155 l 447 1060 l 597 1060 l 597 -155 l 447 -155 m 485 383 l 351 429 q 165 530 233 471 q 98 690 98 589 q 204 880 98 808 q 513 953 310 953 q 802 871 705 953 q 924 644 899 789 l 704 644 q 645 727 694 690 q 509 765 597 765 q 382 742 424 765 q 340 683 340 719 q 357 642 340 658 q 406 612 373 626 l 485 576 l 485 383 z "},"?":{"ha":745,"x_min":24,"x_max":722,"o":"m 240 319 l 240 367 q 256 466 240 428 q 302 530 271 505 q 381 576 333 556 q 442 612 422 596 q 469 644 463 628 q 476 677 476 660 q 450 731 476 710 q 378 752 424 752 q 286 721 319 752 q 253 644 253 690 l 24 644 q 118 869 30 785 q 367 953 206 953 q 556 917 476 953 q 678 819 635 881 q 722 677 722 757 q 685 552 722 603 q 574 466 649 500 q 507 428 531 446 q 473 390 483 410 q 464 343 464 370 l 464 319 l 240 319 m 358 -22 q 250 18 291 -22 q 210 118 210 58 q 250 220 210 180 q 358 260 291 260 q 467 220 425 260 q 510 118 510 180 q 467 18 510 58 q 358 -22 425 -22 z "},"£":{"ha":890,"x_min":33,"x_max":839,"o":"m 84 140 l 84 203 q 150 232 133 203 q 168 319 168 260 l 168 634 q 210 815 168 744 q 324 919 253 885 q 481 953 394 953 q 687 883 614 953 q 776 674 760 813 l 558 674 q 536 730 556 708 q 481 752 517 752 q 416 723 442 752 q 390 634 390 694 l 390 336 q 323 189 390 238 q 84 140 255 140 m 33 0 l 33 203 l 462 203 q 562 227 533 203 q 595 301 590 251 l 839 301 q 754 78 839 156 q 465 0 669 0 l 33 0 m 65 410 l 65 556 l 613 556 l 613 410 l 65 410 z "},"`":{"ha":552,"x_min":60,"x_max":492,"o":"m 388 769 l 60 1013 l 204 1130 l 492 856 l 388 769 z "},"´":{"ha":552,"x_min":60,"x_max":492,"o":"m 164 769 l 60 856 l 347 1130 l 492 1013 l 164 769 z "},"à":{"ha":863,"x_min":69,"x_max":760,"o":"m 566 0 l 538 183 l 538 439 q 519 519 538 490 q 439 547 500 547 q 380 536 403 547 q 347 508 358 526 q 336 469 336 490 l 96 469 q 134 602 96 550 q 249 681 172 655 q 439 706 325 706 q 610 676 538 706 q 721 584 682 645 q 760 431 760 523 l 760 0 l 566 0 m 351 -22 q 196 9 259 -22 q 101 92 133 40 q 69 209 69 145 q 103 314 69 269 q 202 382 136 358 q 363 406 267 406 q 466 400 422 406 q 558 385 511 394 l 558 260 q 486 272 524 267 q 414 276 449 276 q 336 260 365 276 q 307 209 307 244 q 333 164 307 183 q 414 145 358 145 q 488 164 461 145 q 526 211 515 183 q 538 267 538 240 l 590 267 q 565 122 590 188 q 487 17 540 56 q 351 -22 434 -22 m 538 769 l 210 1013 l 355 1130 l 642 856 l 538 769 z "},"è":{"ha":760,"x_min":60,"x_max":708,"o":"m 391 -22 q 229 22 305 -22 q 107 149 153 67 q 60 345 60 232 q 106 539 60 458 q 228 663 153 620 q 391 706 304 706 q 541 672 477 706 q 644 579 605 638 q 695 448 683 521 q 690 297 708 374 l 235 297 l 235 409 l 528 409 l 496 388 q 494 438 498 413 q 479 484 490 463 q 448 518 468 505 q 395 531 427 531 q 334 514 360 531 q 293 464 308 497 q 279 385 279 432 l 279 298 q 292 222 279 254 q 329 173 304 190 q 391 155 353 155 q 444 167 422 155 q 476 207 467 180 l 697 207 q 646 91 687 143 q 541 8 606 39 q 391 -22 476 -22 m 488 769 l 160 1013 l 304 1130 l 592 856 l 488 769 z "},"ò":{"ha":815,"x_min":60,"x_max":754,"o":"m 409 -22 q 234 17 314 -22 q 107 136 155 56 q 60 340 60 217 q 107 549 60 468 q 234 668 155 629 q 409 706 314 706 q 581 668 502 706 q 707 549 659 629 q 754 340 754 468 q 707 136 754 217 q 581 17 659 56 q 409 -22 502 -22 m 401 172 q 463 188 433 172 q 513 242 493 205 q 533 340 533 279 q 499 474 533 435 q 417 513 465 513 q 354 497 385 513 q 302 442 322 480 q 281 340 281 404 q 317 210 281 248 q 401 172 353 172 m 515 769 l 187 1013 l 331 1130 l 619 856 l 515 769 z "},"À":{"ha":943,"x_min":25,"x_max":918,"o":"m 25 0 l 339 932 l 622 932 l 918 0 l 684 0 l 633 164 l 312 164 l 261 0 l 25 0 m 368 328 l 583 328 l 477 669 l 368 328 m 592 1015 l 264 1258 l 408 1375 l 696 1101 l 592 1015 z "},"È":{"ha":850,"x_min":116,"x_max":739,"o":"m 116 0 l 116 932 l 739 932 l 739 740 l 338 740 l 338 560 l 714 560 l 714 367 l 338 367 l 338 194 l 739 194 l 739 0 l 116 0 m 532 1015 l 204 1258 l 349 1375 l 636 1101 l 532 1015 z "},"ù":{"ha":902,"x_min":110,"x_max":785,"o":"m 563 688 l 785 688 l 785 0 l 563 0 l 563 688 m 110 688 l 332 688 l 332 274 q 356 205 332 227 q 417 182 380 182 q 485 199 451 182 q 541 256 519 215 q 563 367 563 296 l 612 367 q 581 148 612 231 q 495 26 549 64 q 374 -12 442 -12 q 244 11 305 -12 q 147 92 184 35 q 110 249 110 149 l 110 688 m 567 769 l 240 1013 l 384 1130 l 672 856 l 567 769 z "},"á":{"ha":863,"x_min":69,"x_max":760,"o":"m 566 0 l 538 183 l 538 439 q 519 519 538 490 q 439 547 500 547 q 380 536 403 547 q 347 508 358 526 q 336 469 336 490 l 96 469 q 134 602 96 550 q 249 681 172 655 q 439 706 325 706 q 610 676 538 706 q 721 584 682 645 q 760 431 760 523 l 760 0 l 566 0 m 351 -22 q 196 9 259 -22 q 101 92 133 40 q 69 209 69 145 q 103 314 69 269 q 202 382 136 358 q 363 406 267 406 q 466 400 422 406 q 558 385 511 394 l 558 260 q 486 272 524 267 q 414 276 449 276 q 336 260 365 276 q 307 209 307 244 q 333 164 307 183 q 414 145 358 145 q 488 164 461 145 q 526 211 515 183 q 538 267 538 240 l 590 267 q 565 122 590 188 q 487 17 540 56 q 351 -22 434 -22 m 383 769 l 278 856 l 566 1130 l 710 1013 l 383 769 z "},"é":{"ha":760,"x_min":60,"x_max":708,"o":"m 391 -22 q 229 22 305 -22 q 107 149 153 67 q 60 345 60 232 q 106 539 60 458 q 228 663 153 620 q 391 706 304 706 q 541 672 477 706 q 644 579 605 638 q 695 448 683 521 q 690 297 708 374 l 235 297 l 235 409 l 528 409 l 496 388 q 494 438 498 413 q 479 484 490 463 q 448 518 468 505 q 395 531 427 531 q 334 514 360 531 q 293 464 308 497 q 279 385 279 432 l 279 298 q 292 222 279 254 q 329 173 304 190 q 391 155 353 155 q 444 167 422 155 q 476 207 467 180 l 697 207 q 646 91 687 143 q 541 8 606 39 q 391 -22 476 -22 m 332 769 l 228 856 l 515 1130 l 660 1013 l 332 769 z "},"ó":{"ha":815,"x_min":60,"x_max":754,"o":"m 409 -22 q 234 17 314 -22 q 107 136 155 56 q 60 340 60 217 q 107 549 60 468 q 234 668 155 629 q 409 706 314 706 q 581 668 502 706 q 707 549 659 629 q 754 340 754 468 q 707 136 754 217 q 581 17 659 56 q 409 -22 502 -22 m 401 172 q 463 188 433 172 q 513 242 493 205 q 533 340 533 279 q 499 474 533 435 q 417 513 465 513 q 354 497 385 513 q 302 442 322 480 q 281 340 281 404 q 317 210 281 248 q 401 172 353 172 m 359 769 l 255 856 l 542 1130 l 687 1013 l 359 769 z "},"ú":{"ha":902,"x_min":110,"x_max":785,"o":"m 563 688 l 785 688 l 785 0 l 563 0 l 563 688 m 110 688 l 332 688 l 332 274 q 356 205 332 227 q 417 182 380 182 q 485 199 451 182 q 541 256 519 215 q 563 367 563 296 l 612 367 q 581 148 612 231 q 495 26 549 64 q 374 -12 442 -12 q 244 11 305 -12 q 147 92 184 35 q 110 249 110 149 l 110 688 m 412 769 l 308 856 l 595 1130 l 740 1013 l 412 769 z "},"Á":{"ha":943,"x_min":25,"x_max":918,"o":"m 25 0 l 339 932 l 622 932 l 918 0 l 684 0 l 633 164 l 312 164 l 261 0 l 25 0 m 368 328 l 583 328 l 477 669 l 368 328 m 436 1015 l 332 1101 l 619 1375 l 764 1258 l 436 1015 z "},"É":{"ha":850,"x_min":116,"x_max":739,"o":"m 116 0 l 116 932 l 739 932 l 739 740 l 338 740 l 338 560 l 714 560 l 714 367 l 338 367 l 338 194 l 739 194 l 739 0 l 116 0 m 376 1015 l 272 1101 l 560 1375 l 704 1258 l 376 1015 z "},"Ì":{"ha":458,"x_min":8,"x_max":440,"o":"m 117 0 l 117 932 l 340 932 l 340 0 l 117 0 m 336 1015 l 8 1258 l 153 1375 l 440 1101 l 336 1015 z "},"Í":{"ha":458,"x_min":76,"x_max":508,"o":"m 117 0 l 117 932 l 340 932 l 340 0 l 117 0 m 181 1015 l 76 1101 l 364 1375 l 508 1258 l 181 1015 z "},"Ò":{"ha":1002,"x_min":60,"x_max":943,"o":"m 500 -22 q 268 34 367 -22 q 115 199 169 90 q 60 469 60 308 q 115 741 60 633 q 268 900 169 848 q 500 953 367 953 q 734 898 634 953 q 888 735 833 843 q 943 469 943 628 q 888 196 943 306 q 734 32 833 87 q 500 -22 634 -22 m 500 177 q 656 254 597 177 q 714 470 714 331 q 656 677 714 601 q 500 753 597 753 q 347 677 406 753 q 289 469 289 601 q 347 254 289 331 q 500 177 406 177 m 608 1015 l 281 1258 l 425 1375 l 713 1101 l 608 1015 z "},"Ó":{"ha":1002,"x_min":60,"x_max":943,"o":"m 500 -22 q 268 34 367 -22 q 115 199 169 90 q 60 469 60 308 q 115 741 60 633 q 268 900 169 848 q 500 953 367 953 q 734 898 634 953 q 888 735 833 843 q 943 469 943 628 q 888 196 943 306 q 734 32 833 87 q 500 -22 634 -22 m 500 177 q 656 254 597 177 q 714 470 714 331 q 656 677 714 601 q 500 753 597 753 q 347 677 406 753 q 289 469 289 601 q 347 254 289 331 q 500 177 406 177 m 453 1015 l 349 1101 l 636 1375 l 781 1258 l 453 1015 z "},"Ù":{"ha":1013,"x_min":110,"x_max":911,"o":"m 110 932 l 332 932 l 332 367 q 383 224 332 267 q 510 180 433 180 q 639 224 588 180 q 690 367 690 267 l 690 932 l 911 932 l 911 367 q 865 161 911 249 q 728 26 818 74 q 510 -22 639 -22 q 291 26 381 -22 q 156 161 202 74 q 110 367 110 249 l 110 932 m 613 1015 l 285 1258 l 430 1375 l 717 1101 l 613 1015 z "},"Ú":{"ha":1013,"x_min":110,"x_max":911,"o":"m 110 932 l 332 932 l 332 367 q 383 224 332 267 q 510 180 433 180 q 639 224 588 180 q 690 367 690 267 l 690 932 l 911 932 l 911 367 q 865 161 911 249 q 728 26 818 74 q 510 -22 639 -22 q 291 26 381 -22 q 156 161 202 74 q 110 367 110 249 l 110 932 m 458 1015 l 353 1101 l 641 1375 l 785 1258 l 458 1015 z "},"ˆ":{"ha":672,"x_min":60,"x_max":612,"o":"m 188 782 l 60 884 l 335 1092 l 612 884 l 481 782 l 295 928 l 374 928 l 188 782 z "},"â":{"ha":863,"x_min":69,"x_max":760,"o":"m 566 0 l 538 183 l 538 439 q 519 519 538 490 q 439 547 500 547 q 380 536 403 547 q 347 508 358 526 q 336 469 336 490 l 96 469 q 134 602 96 550 q 249 681 172 655 q 439 706 325 706 q 610 676 538 706 q 721 584 682 645 q 760 431 760 523 l 760 0 l 566 0 m 351 -22 q 196 9 259 -22 q 101 92 133 40 q 69 209 69 145 q 103 314 69 269 q 202 382 136 358 q 363 406 267 406 q 466 400 422 406 q 558 385 511 394 l 558 260 q 486 272 524 267 q 414 276 449 276 q 336 260 365 276 q 307 209 307 244 q 333 164 307 183 q 414 145 358 145 q 488 164 461 145 q 526 211 515 183 q 538 267 538 240 l 590 267 q 565 122 590 188 q 487 17 540 56 q 351 -22 434 -22 m 284 778 l 156 881 l 431 1089 l 708 881 l 577 778 l 391 925 l 470 925 l 284 778 z "},"ê":{"ha":760,"x_min":60,"x_max":708,"o":"m 391 -22 q 229 22 305 -22 q 107 149 153 67 q 60 345 60 232 q 106 539 60 458 q 228 663 153 620 q 391 706 304 706 q 541 672 477 706 q 644 579 605 638 q 695 448 683 521 q 690 297 708 374 l 235 297 l 235 409 l 528 409 l 496 388 q 494 438 498 413 q 479 484 490 463 q 448 518 468 505 q 395 531 427 531 q 334 514 360 531 q 293 464 308 497 q 279 385 279 432 l 279 298 q 292 222 279 254 q 329 173 304 190 q 391 155 353 155 q 444 167 422 155 q 476 207 467 180 l 697 207 q 646 91 687 143 q 541 8 606 39 q 391 -22 476 -22 m 233 778 l 105 881 l 380 1089 l 657 881 l 526 778 l 340 925 l 419 925 l 233 778 z "},"ô":{"ha":815,"x_min":60,"x_max":754,"o":"m 409 -22 q 234 17 314 -22 q 107 136 155 56 q 60 340 60 217 q 107 549 60 468 q 234 668 155 629 q 409 706 314 706 q 581 668 502 706 q 707 549 659 629 q 754 340 754 468 q 707 136 754 217 q 581 17 659 56 q 409 -22 502 -22 m 401 172 q 463 188 433 172 q 513 242 493 205 q 533 340 533 279 q 499 474 533 435 q 417 513 465 513 q 354 497 385 513 q 302 442 322 480 q 281 340 281 404 q 317 210 281 248 q 401 172 353 172 m 260 778 l 132 881 l 407 1089 l 684 881 l 553 778 l 367 925 l 447 925 l 260 778 z "},"û":{"ha":902,"x_min":110,"x_max":785,"o":"m 563 688 l 785 688 l 785 0 l 563 0 l 563 688 m 110 688 l 332 688 l 332 274 q 356 205 332 227 q 417 182 380 182 q 485 199 451 182 q 541 256 519 215 q 563 367 563 296 l 612 367 q 581 148 612 231 q 495 26 549 64 q 374 -12 442 -12 q 244 11 305 -12 q 147 92 184 35 q 110 249 110 149 l 110 688 m 313 778 l 185 881 l 460 1089 l 737 881 l 606 778 l 420 925 l 499 925 l 313 778 z "},"Â":{"ha":943,"x_min":25,"x_max":918,"o":"m 25 0 l 339 932 l 622 932 l 918 0 l 684 0 l 633 164 l 312 164 l 261 0 l 25 0 m 368 328 l 583 328 l 477 669 l 368 328 m 338 1024 l 209 1126 l 484 1334 l 761 1126 l 631 1024 l 444 1170 l 524 1170 l 338 1024 z "},"Ê":{"ha":850,"x_min":116,"x_max":739,"o":"m 116 0 l 116 932 l 739 932 l 739 740 l 338 740 l 338 560 l 714 560 l 714 367 l 338 367 l 338 194 l 739 194 l 739 0 l 116 0 m 278 1024 l 149 1126 l 424 1334 l 701 1126 l 571 1024 l 385 1170 l 464 1170 l 278 1024 z "},"Î":{"ha":458,"x_min":-47,"x_max":506,"o":"m 117 0 l 117 932 l 340 932 l 340 0 l 117 0 m 82 1024 l -47 1126 l 228 1334 l 506 1126 l 375 1024 l 189 1170 l 268 1170 l 82 1024 z "},"Ô":{"ha":1002,"x_min":60,"x_max":943,"o":"m 500 -22 q 268 34 367 -22 q 115 199 169 90 q 60 469 60 308 q 115 741 60 633 q 268 900 169 848 q 500 953 367 953 q 734 898 634 953 q 888 735 833 843 q 943 469 943 628 q 888 196 943 306 q 734 32 833 87 q 500 -22 634 -22 m 500 177 q 656 254 597 177 q 714 470 714 331 q 656 677 714 601 q 500 753 597 753 q 347 677 406 753 q 289 469 289 601 q 347 254 289 331 q 500 177 406 177 m 354 1024 l 226 1126 l 501 1334 l 778 1126 l 647 1024 l 461 1170 l 540 1170 l 354 1024 z "},"Û":{"ha":1013,"x_min":110,"x_max":911,"o":"m 110 932 l 332 932 l 332 367 q 383 224 332 267 q 510 180 433 180 q 639 224 588 180 q 690 367 690 267 l 690 932 l 911 932 l 911 367 q 865 161 911 249 q 728 26 818 74 q 510 -22 639 -22 q 291 26 381 -22 q 156 161 202 74 q 110 367 110 249 l 110 932 m 359 1024 l 231 1126 l 506 1334 l 783 1126 l 652 1024 l 466 1170 l 545 1170 l 359 1024 z "},"˜":{"ha":646,"x_min":60,"x_max":585,"o":"m 147 791 l 60 842 q 123 999 76 941 q 235 1056 169 1056 q 281 1048 257 1056 q 336 1023 305 1039 q 383 1001 364 1010 q 419 992 401 992 q 459 1008 440 992 q 493 1056 478 1023 l 585 996 q 551 893 576 940 q 491 819 525 847 q 425 791 458 791 q 369 801 395 791 q 310 828 344 812 q 266 851 282 844 q 235 858 249 858 q 190 845 211 858 q 147 791 169 832 z "},"&":{"ha":1414,"x_min":132,"x_max":1328,"o":"m 1083 -22 q 930 15 1001 -22 q 780 125 858 51 l 356 521 q 290 606 318 556 q 263 713 263 657 q 301 830 263 776 q 416 916 340 883 q 603 949 492 949 q 789 917 714 949 q 903 832 865 885 q 942 716 942 779 q 906 591 942 645 q 803 498 870 537 q 643 435 736 460 l 529 540 q 614 573 576 555 q 674 618 651 592 q 697 681 697 644 q 670 734 697 713 q 603 755 644 755 q 534 734 558 755 q 509 681 509 713 q 523 632 509 654 q 561 586 537 610 l 960 216 q 1004 185 982 197 q 1058 173 1026 173 q 1110 195 1090 173 q 1131 265 1131 218 l 1328 265 q 1267 57 1327 135 q 1083 -22 1206 -22 m 536 -22 q 383 0 456 -22 q 253 61 310 22 q 164 155 197 101 q 132 273 132 209 q 222 439 132 381 q 461 508 312 497 l 542 393 q 415 358 452 387 q 378 289 378 330 q 398 234 378 258 q 453 195 417 209 q 538 181 490 181 q 669 207 608 181 q 785 282 731 233 q 886 399 840 331 q 972 551 933 467 l 1117 469 q 1015 261 1075 352 q 880 107 955 170 q 718 11 805 44 q 536 -22 631 -22 z "},"@":{"ha":1554,"x_min":93,"x_max":1478,"o":"m 826 -356 q 525 -307 660 -356 q 293 -171 390 -258 q 145 33 197 -84 q 93 287 93 150 q 150 555 93 433 q 310 766 208 677 q 548 904 413 856 q 840 953 684 953 q 1105 911 987 953 q 1306 793 1222 869 q 1433 617 1389 718 q 1478 397 1478 515 q 1446 215 1478 294 q 1360 84 1414 137 q 1239 6 1306 32 q 1101 -21 1172 -21 q 984 2 1033 -21 q 917 63 936 26 l 904 88 q 841 10 881 42 q 735 -21 802 -21 q 608 16 665 -21 q 518 115 551 52 q 485 258 485 178 q 514 397 485 332 q 592 511 542 462 q 707 590 642 561 q 846 618 772 618 q 1009 558 949 618 q 1068 377 1068 497 l 1068 226 q 1080 172 1068 188 q 1111 156 1092 156 q 1170 179 1136 156 q 1231 254 1205 202 q 1256 392 1256 306 q 1211 577 1256 496 q 1075 705 1165 658 q 850 752 985 752 q 635 716 733 752 q 466 613 538 679 q 355 457 394 547 q 315 260 315 367 q 372 36 315 134 q 543 -118 429 -62 q 826 -174 657 -174 l 826 -356 m 777 158 q 845 180 819 158 q 897 246 872 203 l 897 374 q 885 425 897 402 q 837 449 874 449 q 765 425 801 449 q 704 359 728 401 q 679 263 679 317 q 708 182 679 206 q 777 158 736 158 z "},"¨":{"ha":672,"x_min":60,"x_max":611,"o":"m 486 796 q 399 829 435 796 q 363 913 363 862 q 399 996 363 963 q 486 1028 435 1028 q 576 996 541 1028 q 611 913 611 963 q 576 829 611 862 q 486 796 541 796 m 183 796 q 94 829 128 796 q 60 911 60 862 q 94 995 60 963 q 183 1027 128 1027 q 273 995 238 1027 q 308 911 308 963 q 273 829 308 862 q 183 796 238 796 z "},"ä":{"ha":863,"x_min":69,"x_max":760,"o":"m 566 0 l 538 183 l 538 439 q 519 519 538 490 q 439 547 500 547 q 380 536 403 547 q 347 508 358 526 q 336 469 336 490 l 96 469 q 134 602 96 550 q 249 681 172 655 q 439 706 325 706 q 610 676 538 706 q 721 584 682 645 q 760 431 760 523 l 760 0 l 566 0 m 351 -22 q 196 9 259 -22 q 101 92 133 40 q 69 209 69 145 q 103 314 69 269 q 202 382 136 358 q 363 406 267 406 q 466 400 422 406 q 558 385 511 394 l 558 260 q 486 272 524 267 q 414 276 449 276 q 336 260 365 276 q 307 209 307 244 q 333 164 307 183 q 414 145 358 145 q 488 164 461 145 q 526 211 515 183 q 538 267 538 240 l 590 267 q 565 122 590 188 q 487 17 540 56 q 351 -22 434 -22 m 582 796 q 495 829 531 796 q 459 913 459 862 q 495 996 459 963 q 582 1028 531 1028 q 672 996 637 1028 q 707 913 707 963 q 672 829 707 862 q 582 796 637 796 m 279 796 q 190 829 224 796 q 156 911 156 862 q 190 995 156 963 q 279 1027 224 1027 q 369 995 334 1027 q 404 911 404 963 q 369 829 404 862 q 279 796 334 796 z "},"ë":{"ha":760,"x_min":60,"x_max":708,"o":"m 391 -22 q 229 22 305 -22 q 107 149 153 67 q 60 345 60 232 q 106 539 60 458 q 228 663 153 620 q 391 706 304 706 q 541 672 477 706 q 644 579 605 638 q 695 448 683 521 q 690 297 708 374 l 235 297 l 235 409 l 528 409 l 496 388 q 494 438 498 413 q 479 484 490 463 q 448 518 468 505 q 395 531 427 531 q 334 514 360 531 q 293 464 308 497 q 279 385 279 432 l 279 298 q 292 222 279 254 q 329 173 304 190 q 391 155 353 155 q 444 167 422 155 q 476 207 467 180 l 697 207 q 646 91 687 143 q 541 8 606 39 q 391 -22 476 -22 m 531 796 q 444 829 480 796 q 408 913 408 862 q 444 996 408 963 q 531 1028 480 1028 q 621 996 586 1028 q 656 913 656 963 q 621 829 656 862 q 531 796 586 796 m 228 796 q 139 829 174 796 q 105 911 105 862 q 139 995 105 963 q 228 1027 174 1027 q 318 995 283 1027 q 353 911 353 963 q 318 829 353 862 q 228 796 283 796 z "},"ö":{"ha":815,"x_min":60,"x_max":754,"o":"m 409 -22 q 234 17 314 -22 q 107 136 155 56 q 60 340 60 217 q 107 549 60 468 q 234 668 155 629 q 409 706 314 706 q 581 668 502 706 q 707 549 659 629 q 754 340 754 468 q 707 136 754 217 q 581 17 659 56 q 409 -22 502 -22 m 401 172 q 463 188 433 172 q 513 242 493 205 q 533 340 533 279 q 499 474 533 435 q 417 513 465 513 q 354 497 385 513 q 302 442 322 480 q 281 340 281 404 q 317 210 281 248 q 401 172 353 172 m 558 796 q 471 829 507 796 q 435 913 435 862 q 471 996 435 963 q 558 1028 507 1028 q 648 996 613 1028 q 683 913 683 963 q 648 829 683 862 q 558 796 613 796 m 256 796 q 166 829 201 796 q 132 911 132 862 q 166 995 132 963 q 256 1027 201 1027 q 345 995 310 1027 q 381 911 381 963 q 345 829 381 862 q 256 796 310 796 z "},"ü":{"ha":902,"x_min":110,"x_max":785,"o":"m 563 688 l 785 688 l 785 0 l 563 0 l 563 688 m 110 688 l 332 688 l 332 274 q 356 205 332 227 q 417 182 380 182 q 485 199 451 182 q 541 256 519 215 q 563 367 563 296 l 612 367 q 581 148 612 231 q 495 26 549 64 q 374 -12 442 -12 q 244 11 305 -12 q 147 92 184 35 q 110 249 110 149 l 110 688 m 611 796 q 524 829 560 796 q 488 913 488 862 q 524 996 488 963 q 611 1028 560 1028 q 701 996 666 1028 q 736 913 736 963 q 701 829 736 862 q 611 796 666 796 m 308 796 q 219 829 253 796 q 185 911 185 862 q 219 995 185 963 q 308 1027 253 1027 q 398 995 363 1027 q 433 911 433 963 q 398 829 433 862 q 308 796 363 796 z "},"Ä":{"ha":943,"x_min":25,"x_max":918,"o":"m 25 0 l 339 932 l 622 932 l 918 0 l 684 0 l 633 164 l 312 164 l 261 0 l 25 0 m 368 328 l 583 328 l 477 669 l 368 328 m 635 1041 q 548 1074 584 1041 q 513 1158 513 1107 q 548 1241 513 1208 q 635 1274 584 1274 q 725 1241 690 1274 q 760 1158 760 1208 q 725 1074 760 1107 q 635 1041 690 1041 m 333 1041 q 243 1074 278 1041 q 209 1156 209 1107 q 243 1240 209 1208 q 333 1272 278 1272 q 423 1240 388 1272 q 458 1156 458 1208 q 423 1074 458 1107 q 333 1041 388 1041 z "},"Ë":{"ha":850,"x_min":116,"x_max":739,"o":"m 116 0 l 116 932 l 739 932 l 739 740 l 338 740 l 338 560 l 714 560 l 714 367 l 338 367 l 338 194 l 739 194 l 739 0 l 116 0 m 576 1041 q 489 1074 524 1041 q 453 1158 453 1107 q 489 1241 453 1208 q 576 1274 524 1274 q 666 1241 631 1274 q 701 1158 701 1208 q 666 1074 701 1107 q 576 1041 631 1041 m 273 1041 q 184 1074 218 1041 q 149 1156 149 1107 q 184 1240 149 1208 q 273 1272 218 1272 q 363 1240 328 1272 q 398 1156 398 1208 q 363 1074 398 1107 q 273 1041 328 1041 z "},"Ï":{"ha":458,"x_min":-47,"x_max":505,"o":"m 117 0 l 117 932 l 340 932 l 340 0 l 117 0 m 380 1041 q 293 1074 328 1041 q 257 1158 257 1107 q 293 1241 257 1208 q 380 1274 328 1274 q 470 1241 435 1274 q 505 1158 505 1208 q 470 1074 505 1107 q 380 1041 435 1041 m 77 1041 q -12 1074 22 1041 q -47 1156 -47 1107 q -12 1240 -47 1208 q 77 1272 22 1272 q 167 1240 132 1272 q 202 1156 202 1208 q 167 1074 202 1107 q 77 1041 132 1041 z "},"Ö":{"ha":1002,"x_min":60,"x_max":943,"o":"m 500 -22 q 268 34 367 -22 q 115 199 169 90 q 60 469 60 308 q 115 741 60 633 q 268 900 169 848 q 500 953 367 953 q 734 898 634 953 q 888 735 833 843 q 943 469 943 628 q 888 196 943 306 q 734 32 833 87 q 500 -22 634 -22 m 500 177 q 656 254 597 177 q 714 470 714 331 q 656 677 714 601 q 500 753 597 753 q 347 677 406 753 q 289 469 289 601 q 347 254 289 331 q 500 177 406 177 m 652 1041 q 565 1074 601 1041 q 529 1158 529 1107 q 565 1241 529 1208 q 652 1274 601 1274 q 742 1241 707 1274 q 777 1158 777 1208 q 742 1074 777 1107 q 652 1041 707 1041 m 349 1041 q 260 1074 294 1041 q 226 1156 226 1107 q 260 1240 226 1208 q 349 1272 294 1272 q 439 1240 404 1272 q 474 1156 474 1208 q 439 1074 474 1107 q 349 1041 404 1041 z "},"Ü":{"ha":1013,"x_min":110,"x_max":911,"o":"m 110 932 l 332 932 l 332 367 q 383 224 332 267 q 510 180 433 180 q 639 224 588 180 q 690 367 690 267 l 690 932 l 911 932 l 911 367 q 865 161 911 249 q 728 26 818 74 q 510 -22 639 -22 q 291 26 381 -22 q 156 161 202 74 q 110 367 110 249 l 110 932 m 657 1041 q 570 1074 606 1041 q 534 1158 534 1107 q 570 1241 534 1208 q 657 1274 606 1274 q 747 1241 712 1274 q 782 1158 782 1208 q 747 1074 782 1107 q 657 1041 712 1041 m 354 1041 q 265 1074 299 1041 q 231 1156 231 1107 q 265 1240 231 1208 q 354 1272 299 1272 q 444 1240 409 1272 q 479 1156 479 1208 q 444 1074 479 1107 q 354 1041 409 1041 z "},"ì":{"ha":499,"x_min":29,"x_max":461,"o":"m 139 0 l 139 688 l 361 688 l 361 0 l 139 0 m 357 769 l 29 1013 l 174 1130 l 461 856 l 357 769 z "},"í":{"ha":499,"x_min":97,"x_max":529,"o":"m 139 0 l 139 688 l 361 688 l 361 0 l 139 0 m 201 769 l 97 856 l 385 1130 l 529 1013 l 201 769 z "},"î":{"ha":499,"x_min":-26,"x_max":526,"o":"m 139 0 l 139 688 l 361 688 l 361 0 l 139 0 m 103 778 l -26 881 l 249 1089 l 526 881 l 396 778 l 210 925 l 289 925 l 103 778 z "},"ï":{"ha":499,"x_min":-26,"x_max":526,"o":"m 139 0 l 139 688 l 361 688 l 361 0 l 139 0 m 401 796 q 314 829 349 796 q 278 913 278 862 q 314 996 278 963 q 401 1028 349 1028 q 491 996 456 1028 q 526 913 526 963 q 491 829 526 862 q 401 796 456 796 m 98 796 q 9 829 43 796 q -26 911 -26 862 q 9 995 -26 963 q 98 1027 43 1027 q 188 995 153 1027 q 223 911 223 963 q 188 829 223 862 q 98 796 153 796 z "},"<":{"ha":764,"x_min":63,"x_max":702,"o":"m 554 924 l 702 756 l 224 424 l 224 520 l 702 189 l 554 22 l 63 371 l 63 574 l 554 924 z "},">":{"ha":764,"x_min":63,"x_max":701,"o":"m 210 22 l 63 189 l 540 520 l 540 424 l 63 756 l 210 924 l 701 574 l 701 371 l 210 22 z "},"\"":{"ha":645,"x_min":49,"x_max":597,"o":"m 406 601 l 377 958 l 597 958 l 567 601 l 406 601 m 77 601 l 49 958 l 268 958 l 239 601 l 77 601 z "},"#":{"ha":1018,"x_min":85,"x_max":949,"o":"m 183 49 l 201 219 l 85 219 l 98 361 l 217 361 l 238 550 l 118 550 l 134 692 l 251 692 l 271 862 l 481 862 l 461 692 l 624 692 l 642 862 l 850 862 l 833 692 l 949 692 l 935 550 l 816 550 l 797 361 l 916 361 l 902 219 l 783 219 l 765 49 l 556 49 l 574 219 l 410 219 l 393 49 l 183 49 m 426 361 l 589 361 l 610 550 l 447 550 l 426 361 z "},"*":{"ha":563,"x_min":60,"x_max":515,"o":"m 92 650 l 206 752 l 60 798 l 111 920 l 238 855 l 217 1007 l 358 1007 l 337 855 l 464 924 l 515 801 l 373 753 l 487 650 l 384 562 l 289 698 l 189 562 l 92 650 z "},"/":{"ha":713,"x_min":68,"x_max":661,"o":"m 68 -123 l 433 1055 l 661 1055 l 293 -123 l 68 -123 z "},"%":{"ha":1119,"x_min":85,"x_max":1058,"o":"m 140 0 l 776 932 l 997 932 l 363 0 l 140 0 m 853 -17 q 752 7 799 -17 q 678 81 706 31 q 651 206 651 131 q 678 333 651 283 q 752 407 706 383 q 853 431 799 431 q 954 407 908 431 q 1029 333 1001 383 q 1058 206 1058 283 q 1029 81 1058 131 q 954 7 1001 31 q 853 -17 908 -17 m 853 121 q 884 138 872 121 q 896 206 896 156 q 884 275 896 257 q 853 294 872 294 q 822 275 833 294 q 810 206 810 257 q 822 138 810 156 q 853 121 833 121 m 287 508 q 186 532 233 508 q 113 606 140 556 q 85 732 85 656 q 113 856 85 807 q 186 929 140 905 q 287 953 233 953 q 390 929 343 953 q 464 856 436 905 q 492 732 492 807 q 464 606 492 656 q 390 532 436 556 q 287 508 343 508 m 287 644 q 319 662 307 644 q 331 732 331 680 q 319 798 331 781 q 287 815 307 815 q 256 798 267 815 q 245 732 245 781 q 256 662 245 680 q 287 644 267 644 z "},"\\":{"ha":713,"x_min":51,"x_max":644,"o":"m 51 1056 l 276 1056 l 644 -122 l 417 -122 l 51 1056 z "},"|":{"ha":458,"x_min":117,"x_max":340,"o":"m 117 -169 l 117 1099 l 340 1099 l 340 -169 l 117 -169 z "},"[":{"ha":542,"x_min":117,"x_max":533,"o":"m 117 -254 l 117 1185 l 533 1185 l 533 981 l 340 981 l 340 -50 l 533 -50 l 533 -254 l 117 -254 z "},"]":{"ha":541,"x_min":9,"x_max":425,"o":"m 425 -254 l 9 -254 l 9 -50 l 203 -50 l 203 981 l 9 981 l 9 1185 l 425 1185 l 425 -254 z "},"^":{"ha":764,"x_min":-17,"x_max":781,"o":"m -17 263 l 291 863 l 473 863 l 781 263 l 538 263 l 339 698 l 425 698 l 224 263 l -17 263 z "},"_":{"ha":1130,"x_min":76,"x_max":1054,"o":"m 76 0 l 76 194 l 1054 194 l 1054 0 l 76 0 z "},"{":{"ha":606,"x_min":93,"x_max":606,"o":"m 606 -243 q 366 -195 460 -243 q 226 -62 272 -147 q 181 133 181 23 l 181 260 q 173 333 181 314 q 139 352 166 352 l 93 352 l 93 581 l 139 581 q 173 599 166 581 q 181 673 181 617 l 181 801 q 226 994 181 911 q 366 1125 272 1078 q 606 1172 460 1172 l 606 970 q 453 931 504 970 q 401 797 401 892 l 401 659 q 369 542 401 590 q 290 471 337 494 l 290 460 q 369 389 337 438 q 401 272 401 341 l 401 135 q 453 0 401 40 q 606 -39 504 -39 l 606 -243 z "},"}":{"ha":606,"x_min":-1,"x_max":513,"o":"m -1 -243 l -1 -39 q 153 0 101 -39 q 204 135 204 40 l 204 272 q 237 389 204 341 q 316 460 269 438 l 316 471 q 237 542 269 494 q 204 659 204 590 l 204 797 q 153 931 204 892 q -1 970 101 970 l -1 1172 q 240 1125 146 1172 q 380 994 334 1078 q 425 801 425 911 l 425 673 q 432 599 425 617 q 467 581 440 581 l 513 581 l 513 352 l 467 352 q 432 333 440 352 q 425 260 425 314 l 425 133 q 380 -62 425 23 q 240 -195 334 -147 q -1 -243 146 -243 z "},"~":{"ha":764,"x_min":32,"x_max":733,"o":"m 149 256 l 32 319 q 106 490 58 424 q 240 556 153 556 q 315 545 276 556 q 402 517 353 535 q 475 491 445 500 q 526 482 504 482 q 577 501 554 482 q 615 556 599 520 l 733 481 q 644 326 701 380 q 508 273 586 273 q 447 282 483 273 q 361 312 411 290 q 290 334 316 326 q 241 343 263 343 q 188 322 210 343 q 149 256 165 301 z "},"ã":{"ha":863,"x_min":69,"x_max":760,"o":"m 566 0 l 538 183 l 538 439 q 519 519 538 490 q 439 547 500 547 q 380 536 403 547 q 347 508 358 526 q 336 469 336 490 l 96 469 q 134 602 96 550 q 249 681 172 655 q 439 706 325 706 q 610 676 538 706 q 721 584 682 645 q 760 431 760 523 l 760 0 l 566 0 m 351 -22 q 196 9 259 -22 q 101 92 133 40 q 69 209 69 145 q 103 314 69 269 q 202 382 136 358 q 363 406 267 406 q 466 400 422 406 q 558 385 511 394 l 558 260 q 486 272 524 267 q 414 276 449 276 q 336 260 365 276 q 307 209 307 244 q 333 164 307 183 q 414 145 358 145 q 488 164 461 145 q 526 211 515 183 q 538 267 538 240 l 590 267 q 565 122 590 188 q 487 17 540 56 q 351 -22 434 -22 m 256 789 l 168 840 q 231 997 185 939 q 343 1054 277 1054 q 389 1045 365 1054 q 444 1021 413 1037 q 491 999 472 1008 q 528 990 510 990 q 567 1006 548 990 q 601 1054 587 1021 l 694 994 q 659 891 685 938 q 600 817 633 844 q 533 789 566 789 q 478 799 503 789 q 418 826 452 810 q 374 849 390 842 q 343 856 358 856 q 299 843 319 856 q 256 789 278 830 z "},"ñ":{"ha":894,"x_min":117,"x_max":794,"o":"m 570 0 l 570 399 q 544 479 570 453 q 480 505 517 505 q 410 483 442 505 q 359 414 378 462 q 340 288 340 367 l 272 288 q 307 528 272 435 q 403 663 342 620 q 541 706 464 706 q 685 667 629 706 q 767 558 741 627 q 794 399 794 488 l 794 0 l 570 0 m 117 0 l 117 684 l 313 684 l 340 571 l 340 0 l 117 0 m 272 789 l 184 840 q 247 997 201 939 q 359 1054 293 1054 q 405 1045 381 1054 q 460 1021 429 1037 q 507 999 488 1008 q 544 990 526 990 q 583 1006 564 990 q 617 1054 603 1021 l 710 994 q 675 891 701 938 q 616 817 649 844 q 549 789 582 789 q 494 799 519 789 q 434 826 468 810 q 390 849 406 842 q 359 856 374 856 q 315 843 335 856 q 272 789 294 830 z "},"õ":{"ha":815,"x_min":60,"x_max":754,"o":"m 409 -22 q 234 17 314 -22 q 107 136 155 56 q 60 340 60 217 q 107 549 60 468 q 234 668 155 629 q 409 706 314 706 q 581 668 502 706 q 707 549 659 629 q 754 340 754 468 q 707 136 754 217 q 581 17 659 56 q 409 -22 502 -22 m 401 172 q 463 188 433 172 q 513 242 493 205 q 533 340 533 279 q 499 474 533 435 q 417 513 465 513 q 354 497 385 513 q 302 442 322 480 q 281 340 281 404 q 317 210 281 248 q 401 172 353 172 m 232 789 l 144 840 q 207 997 161 939 q 319 1054 253 1054 q 366 1045 342 1054 q 421 1021 390 1037 q 467 999 449 1008 q 504 990 486 990 q 544 1006 524 990 q 578 1054 563 1021 l 670 994 q 635 891 661 938 q 576 817 610 844 q 510 789 542 789 q 454 799 480 789 q 394 826 428 810 q 350 849 367 842 q 319 856 334 856 q 275 843 296 856 q 232 789 254 830 z "},"Ã":{"ha":943,"x_min":25,"x_max":918,"o":"m 25 0 l 339 932 l 622 932 l 918 0 l 684 0 l 633 164 l 312 164 l 261 0 l 25 0 m 368 328 l 583 328 l 477 669 l 368 328 m 309 1034 l 222 1085 q 284 1242 238 1184 q 397 1299 331 1299 q 443 1291 419 1299 q 498 1266 467 1282 q 544 1244 526 1253 q 581 1235 563 1235 q 621 1251 601 1235 q 655 1299 640 1266 l 747 1239 q 713 1136 738 1183 q 653 1062 687 1090 q 587 1034 619 1034 q 531 1044 557 1034 q 472 1072 506 1055 q 427 1094 444 1088 q 397 1101 411 1101 q 352 1088 373 1101 q 309 1034 331 1075 z "},"Ñ":{"ha":1044,"x_min":113,"x_max":926,"o":"m 113 932 l 345 932 l 719 368 l 704 368 l 704 932 l 926 932 l 926 0 l 712 0 l 299 619 l 335 619 l 335 0 l 113 0 l 113 932 m 347 1034 l 259 1085 q 322 1242 276 1184 q 434 1299 368 1299 q 480 1291 456 1299 q 535 1266 504 1282 q 582 1244 563 1253 q 619 1235 601 1235 q 658 1251 639 1235 q 692 1299 678 1266 l 785 1239 q 750 1136 776 1183 q 691 1062 724 1090 q 624 1034 657 1034 q 569 1044 594 1034 q 509 1072 543 1055 q 465 1094 481 1088 q 434 1101 449 1101 q 390 1088 410 1101 q 347 1034 369 1075 z "},"Õ":{"ha":1002,"x_min":60,"x_max":943,"o":"m 500 -22 q 268 34 367 -22 q 115 199 169 90 q 60 469 60 308 q 115 741 60 633 q 268 900 169 848 q 500 953 367 953 q 734 898 634 953 q 888 735 833 843 q 943 469 943 628 q 888 196 943 306 q 734 32 833 87 q 500 -22 634 -22 m 500 177 q 656 254 597 177 q 714 470 714 331 q 656 677 714 601 q 500 753 597 753 q 347 677 406 753 q 289 469 289 601 q 347 254 289 331 q 500 177 406 177 m 326 1034 l 238 1085 q 301 1242 255 1184 q 413 1299 347 1299 q 459 1291 435 1299 q 515 1266 483 1282 q 561 1244 542 1253 q 598 1235 580 1235 q 638 1251 618 1235 q 672 1299 657 1266 l 764 1239 q 729 1136 755 1183 q 670 1062 703 1090 q 603 1034 636 1034 q 548 1044 574 1034 q 488 1072 522 1055 q 444 1094 460 1088 q 413 1101 428 1101 q 369 1088 390 1101 q 326 1034 348 1075 z "},"Ă":{"ha":943,"x_min":25,"x_max":918,"o":"m 25 0 l 339 932 l 622 932 l 918 0 l 684 0 l 633 164 l 312 164 l 261 0 l 25 0 m 368 328 l 583 328 l 477 669 l 368 328 m 485 1058 q 302 1124 367 1058 q 238 1317 238 1189 l 407 1317 q 427 1228 407 1257 q 485 1200 447 1200 q 543 1228 523 1200 q 563 1317 563 1257 l 732 1317 q 667 1124 732 1189 q 485 1058 602 1058 z "},"Ā":{"ha":943,"x_min":25,"x_max":918,"o":"m 25 0 l 339 932 l 622 932 l 918 0 l 684 0 l 633 164 l 312 164 l 261 0 l 25 0 m 368 328 l 583 328 l 477 669 l 368 328 m 220 1237 l 749 1237 l 749 1057 l 220 1057 l 220 1237 z "},"Ą":{"ha":943,"x_min":25,"x_max":998,"o":"m 25 0 l 339 932 l 622 932 l 918 0 l 684 0 l 633 164 l 312 164 l 261 0 l 25 0 m 368 328 l 583 328 l 477 669 l 368 328 m 998 -221 q 905 -257 951 -244 q 812 -269 859 -269 q 676 -233 732 -269 q 619 -128 619 -197 q 646 -40 619 -83 q 723 27 673 3 l 906 0 q 802 -40 840 -17 q 763 -92 763 -62 q 784 -121 763 -115 q 824 -128 804 -128 q 879 -119 852 -128 q 948 -90 906 -110 l 998 -221 z "},"Å":{"ha":943,"x_min":25,"x_max":918,"o":"m 25 0 l 339 932 l 622 932 l 918 0 l 684 0 l 633 164 l 312 164 l 261 0 l 25 0 m 368 328 l 583 328 l 477 669 l 368 328 m 486 999 q 390 1025 433 999 q 320 1095 346 1051 q 294 1192 294 1139 q 320 1288 294 1244 q 390 1358 346 1332 q 486 1384 433 1384 q 583 1358 539 1384 q 652 1288 626 1332 q 678 1192 678 1244 q 652 1095 678 1139 q 583 1025 626 1051 q 486 999 539 999 m 486 1142 q 522 1156 507 1142 q 536 1192 536 1171 q 522 1227 536 1213 q 486 1242 507 1242 q 451 1227 465 1242 q 436 1192 436 1213 q 451 1156 436 1171 q 486 1142 465 1142 z "},"Æ":{"ha":1289,"x_min":25,"x_max":1178,"o":"m 1178 932 l 1178 740 l 783 740 l 819 771 l 819 472 l 783 560 l 1151 560 l 1151 367 l 783 367 l 819 431 l 819 93 l 783 194 l 1178 194 l 1178 0 l 597 0 l 597 244 l 633 164 l 249 164 l 354 241 l 256 0 l 25 0 l 403 932 l 1178 932 m 633 328 l 597 268 l 597 767 l 633 740 l 506 740 l 592 826 l 366 272 l 300 328 l 633 328 z "},"Ć":{"ha":910,"x_min":60,"x_max":850,"o":"m 472 -22 q 257 33 349 -22 q 112 196 164 88 q 60 465 60 304 q 111 734 60 626 q 256 898 163 842 q 472 953 349 953 q 740 869 648 953 q 850 653 833 786 l 614 613 q 564 711 598 672 q 472 751 529 751 q 381 720 420 751 q 320 626 342 689 q 299 465 299 563 q 321 306 299 369 q 382 213 343 243 q 472 182 422 182 q 578 220 543 182 q 614 312 614 258 l 849 312 q 805 130 849 204 q 678 16 762 55 q 472 -22 594 -22 m 406 1015 l 302 1101 l 590 1375 l 734 1258 l 406 1015 z "},"Č":{"ha":910,"x_min":60,"x_max":850,"o":"m 472 -22 q 257 33 349 -22 q 112 196 164 88 q 60 465 60 304 q 111 734 60 626 q 256 898 163 842 q 472 953 349 953 q 740 869 648 953 q 850 653 833 786 l 614 613 q 564 711 598 672 q 472 751 529 751 q 381 720 420 751 q 320 626 342 689 q 299 465 299 563 q 321 306 299 369 q 382 213 343 243 q 472 182 422 182 q 578 220 543 182 q 614 312 614 258 l 849 312 q 805 130 849 204 q 678 16 762 55 q 472 -22 594 -22 m 463 1027 l 188 1235 l 316 1338 l 502 1163 l 423 1163 l 609 1338 l 740 1235 l 463 1027 z "},"Ç":{"ha":910,"x_min":60,"x_max":850,"o":"m 472 -22 q 257 33 349 -22 q 112 196 164 88 q 60 465 60 304 q 111 734 60 626 q 256 898 163 842 q 472 953 349 953 q 740 869 648 953 q 850 653 833 786 l 614 613 q 564 711 598 672 q 472 751 529 751 q 381 720 420 751 q 320 626 342 689 q 299 465 299 563 q 321 306 299 369 q 382 213 343 243 q 472 182 422 182 q 578 220 543 182 q 614 312 614 258 l 849 312 q 805 130 849 204 q 678 16 762 55 q 472 -22 594 -22 m 338 -263 l 365 -193 q 439 -212 407 -210 q 490 -204 471 -215 q 511 -174 509 -194 q 502 -148 513 -160 q 468 -125 492 -136 q 399 -105 443 -115 l 459 72 l 542 56 l 490 -100 l 472 -56 q 585 -84 544 -62 q 642 -134 626 -106 q 656 -190 658 -162 q 621 -255 653 -230 q 540 -290 589 -281 q 438 -293 492 -300 q 338 -263 384 -287 z "},"Ċ":{"ha":910,"x_min":60,"x_max":850,"o":"m 472 -22 q 257 33 349 -22 q 112 196 164 88 q 60 465 60 304 q 111 734 60 626 q 256 898 163 842 q 472 953 349 953 q 740 869 648 953 q 850 653 833 786 l 614 613 q 564 711 598 672 q 472 751 529 751 q 381 720 420 751 q 320 626 342 689 q 299 465 299 563 q 321 306 299 369 q 382 213 343 243 q 472 182 422 182 q 578 220 543 182 q 614 312 614 258 l 849 312 q 805 130 849 204 q 678 16 762 55 q 472 -22 594 -22 m 455 1051 q 353 1089 392 1051 q 315 1185 315 1127 q 353 1282 315 1243 q 455 1321 392 1321 q 558 1282 517 1321 q 599 1185 599 1244 q 558 1089 599 1126 q 455 1051 517 1051 z "},"Ď":{"ha":992,"x_min":117,"x_max":935,"o":"m 117 932 l 447 932 q 701 875 591 932 q 873 714 810 818 q 935 465 935 609 q 873 218 935 322 q 701 57 810 113 q 447 0 591 0 l 117 0 l 117 932 m 340 728 l 340 203 l 447 203 q 578 237 523 203 q 664 331 633 272 q 694 465 694 390 q 664 601 694 542 q 578 694 633 660 q 447 728 523 728 l 340 728 m 504 1027 l 229 1235 l 358 1338 l 544 1163 l 465 1163 l 651 1338 l 781 1235 l 504 1027 z "},"Đ":{"ha":992,"x_min":31,"x_max":935,"o":"m 31 563 l 476 563 l 476 369 l 31 369 l 31 563 m 117 932 l 447 932 q 701 875 591 932 q 873 714 810 818 q 935 465 935 609 q 873 218 935 322 q 701 57 810 113 q 447 0 591 0 l 117 0 l 117 932 m 340 728 l 340 203 l 447 203 q 578 237 523 203 q 664 331 633 272 q 694 465 694 390 q 664 601 694 542 q 578 694 633 660 q 447 728 523 728 l 340 728 z "},"Ð":{"ha":992,"x_min":31,"x_max":935,"o":"m 31 563 l 476 563 l 476 369 l 31 369 l 31 563 m 117 932 l 447 932 q 701 875 591 932 q 873 714 810 818 q 935 465 935 609 q 873 218 935 322 q 701 57 810 113 q 447 0 591 0 l 117 0 l 117 932 m 340 728 l 340 203 l 447 203 q 578 237 523 203 q 664 331 633 272 q 694 465 694 390 q 664 601 694 542 q 578 694 633 660 q 447 728 523 728 l 340 728 z "},"Ě":{"ha":850,"x_min":116,"x_max":739,"o":"m 116 0 l 116 932 l 739 932 l 739 740 l 338 740 l 338 560 l 714 560 l 714 367 l 338 367 l 338 194 l 739 194 l 739 0 l 116 0 m 433 1027 l 158 1235 l 286 1338 l 472 1163 l 393 1163 l 579 1338 l 710 1235 l 433 1027 z "},"Ė":{"ha":850,"x_min":116,"x_max":739,"o":"m 116 0 l 116 932 l 739 932 l 739 740 l 338 740 l 338 560 l 714 560 l 714 367 l 338 367 l 338 194 l 739 194 l 739 0 l 116 0 m 425 1051 q 324 1089 363 1051 q 285 1185 285 1127 q 324 1282 285 1243 q 425 1321 363 1321 q 528 1282 487 1321 q 569 1185 569 1244 q 528 1089 569 1126 q 425 1051 487 1051 z "},"Ē":{"ha":850,"x_min":116,"x_max":739,"o":"m 116 0 l 116 932 l 739 932 l 739 740 l 338 740 l 338 560 l 714 560 l 714 367 l 338 367 l 338 194 l 739 194 l 739 0 l 116 0 m 160 1237 l 690 1237 l 690 1057 l 160 1057 l 160 1237 z "},"Ę":{"ha":850,"x_min":116,"x_max":804,"o":"m 116 0 l 116 932 l 739 932 l 739 740 l 338 740 l 338 560 l 714 560 l 714 367 l 338 367 l 338 194 l 739 194 l 739 0 l 116 0 m 804 -221 q 711 -257 758 -244 q 618 -269 665 -269 q 482 -233 538 -269 q 426 -128 426 -197 q 452 -40 426 -83 q 529 27 479 3 l 712 0 q 608 -40 647 -17 q 569 -92 569 -62 q 590 -121 569 -115 q 631 -128 610 -128 q 685 -119 658 -128 q 754 -90 713 -110 l 804 -221 z "},"Ğ":{"ha":988,"x_min":60,"x_max":888,"o":"m 470 -22 q 260 40 353 -22 q 114 213 167 103 q 60 466 60 323 q 91 663 60 574 q 182 817 123 752 q 322 917 240 882 q 503 953 403 953 q 750 884 655 953 q 885 670 845 816 l 649 628 q 587 719 626 685 q 491 752 548 752 q 393 717 437 752 q 325 619 350 683 q 300 466 300 555 q 325 314 300 378 q 393 215 350 249 q 491 180 437 180 q 586 202 544 180 q 652 264 628 225 q 676 349 676 302 l 715 349 q 688 151 715 235 q 607 23 661 68 q 470 -22 553 -22 m 704 0 l 676 192 l 676 357 l 491 358 l 491 494 l 888 494 l 888 0 l 704 0 m 494 1058 q 312 1124 377 1058 q 247 1317 247 1189 l 417 1317 q 436 1228 417 1257 q 494 1200 456 1200 q 552 1228 533 1200 q 572 1317 572 1257 l 742 1317 q 677 1124 742 1189 q 494 1058 612 1058 z "},"Ģ":{"ha":988,"x_min":60,"x_max":888,"o":"m 470 -22 q 260 40 353 -22 q 114 213 167 103 q 60 466 60 323 q 91 663 60 574 q 182 817 123 752 q 322 917 240 882 q 503 953 403 953 q 750 884 655 953 q 885 670 845 816 l 649 628 q 587 719 626 685 q 491 752 548 752 q 393 717 437 752 q 325 619 350 683 q 300 466 300 555 q 325 314 300 378 q 393 215 350 249 q 491 180 437 180 q 586 202 544 180 q 652 264 628 225 q 676 349 676 302 l 715 349 q 688 151 715 235 q 607 23 661 68 q 470 -22 553 -22 m 704 0 l 676 192 l 676 357 l 491 358 l 491 494 l 888 494 l 888 0 l 704 0 m 461 -319 l 372 -272 q 429 -236 403 -256 q 466 -192 456 -216 q 421 -167 439 -185 q 405 -121 403 -149 q 433 -69 407 -90 q 496 -48 459 -48 q 566 -80 542 -48 q 585 -155 589 -112 q 548 -249 583 -204 q 461 -319 514 -294 z "},"Ġ":{"ha":988,"x_min":60,"x_max":888,"o":"m 470 -22 q 260 40 353 -22 q 114 213 167 103 q 60 466 60 323 q 91 663 60 574 q 182 817 123 752 q 322 917 240 882 q 503 953 403 953 q 750 884 655 953 q 885 670 845 816 l 649 628 q 587 719 626 685 q 491 752 548 752 q 393 717 437 752 q 325 619 350 683 q 300 466 300 555 q 325 314 300 378 q 393 215 350 249 q 491 180 437 180 q 586 202 544 180 q 652 264 628 225 q 676 349 676 302 l 715 349 q 688 151 715 235 q 607 23 661 68 q 470 -22 553 -22 m 704 0 l 676 192 l 676 357 l 491 358 l 491 494 l 888 494 l 888 0 l 704 0 m 494 1051 q 393 1089 432 1051 q 354 1185 354 1127 q 393 1282 354 1243 q 494 1321 432 1321 q 597 1282 556 1321 q 638 1185 638 1244 q 597 1089 638 1126 q 494 1051 556 1051 z "},"Ħ":{"ha":1034,"x_min":117,"x_max":916,"o":"m 117 0 l 117 932 l 340 932 l 340 509 l 692 509 l 692 932 l 916 932 l 916 0 l 692 0 l 692 313 l 340 313 l 340 0 l 117 0 m 155 597 l 155 750 l 882 750 l 882 597 l 155 597 z "},"Ĳ":{"ha":1133,"x_min":117,"x_max":1029,"o":"m 117 0 l 117 932 l 340 932 l 340 0 l 117 0 m 492 32 l 492 249 q 611 206 554 217 q 713 194 668 194 q 781 220 758 194 q 804 310 804 247 l 804 932 l 1029 932 l 1029 310 q 990 114 1029 186 q 884 9 951 41 q 733 -22 817 -22 q 606 -7 667 -22 q 492 32 544 8 z "},"İ":{"ha":458,"x_min":89,"x_max":373,"o":"m 117 0 l 117 932 l 340 932 l 340 0 l 117 0 m 229 1051 q 128 1089 167 1051 q 89 1185 89 1127 q 128 1282 89 1243 q 229 1321 167 1321 q 332 1282 291 1321 q 373 1185 373 1244 q 332 1089 373 1126 q 229 1051 291 1051 z "},"Ī":{"ha":458,"x_min":54,"x_max":403,"o":"m 117 0 l 117 932 l 340 932 l 340 0 l 117 0 m 54 1237 l 403 1237 l 403 1057 l 54 1057 l 54 1237 z "},"Į":{"ha":458,"x_min":53,"x_max":432,"o":"m 117 0 l 117 932 l 340 932 l 340 0 l 117 0 m 432 -221 q 339 -257 385 -244 q 246 -269 293 -269 q 110 -233 166 -269 q 53 -128 53 -197 q 80 -40 53 -83 q 157 27 107 3 l 340 0 q 236 -40 274 -17 q 197 -92 197 -62 q 218 -121 197 -115 q 258 -128 238 -128 q 313 -119 286 -128 q 382 -90 340 -110 l 432 -221 z "},"Ķ":{"ha":976,"x_min":117,"x_max":989,"o":"m 659 932 l 963 932 l 328 288 l 328 585 l 659 932 m 511 556 l 989 0 l 705 0 l 360 410 l 511 556 m 117 932 l 341 932 l 341 0 l 117 0 l 117 932 m 455 -319 l 365 -272 q 423 -236 397 -256 q 460 -192 449 -216 q 415 -167 433 -185 q 399 -121 397 -149 q 427 -69 401 -90 q 490 -48 453 -48 q 559 -80 536 -48 q 579 -155 583 -112 q 542 -249 576 -204 q 455 -319 508 -294 z "},"Ĺ":{"ha":725,"x_min":117,"x_max":692,"o":"m 340 932 l 340 194 l 692 194 l 692 0 l 117 0 l 117 932 l 340 932 m 342 1015 l 238 1101 l 525 1375 l 669 1258 l 342 1015 z "},"Ľ":{"ha":725,"x_min":117,"x_max":809,"o":"m 340 932 l 340 194 l 692 194 l 692 0 l 117 0 l 117 932 l 340 932 m 696 660 l 603 708 q 658 744 633 724 q 692 788 683 764 q 645 813 664 794 q 626 859 626 831 q 650 911 626 890 q 711 932 674 932 q 783 900 758 932 q 809 825 809 868 q 778 731 809 776 q 696 660 747 685 z "},"Ļ":{"ha":725,"x_min":117,"x_max":692,"o":"m 340 932 l 340 194 l 692 194 l 692 0 l 117 0 l 117 932 l 340 932 m 329 -319 l 240 -272 q 297 -236 271 -256 q 334 -192 324 -216 q 289 -167 307 -185 q 273 -121 271 -149 q 301 -69 275 -90 q 364 -48 327 -48 q 434 -80 410 -48 q 453 -155 457 -112 q 416 -249 451 -204 q 329 -319 382 -294 z "},"Ł":{"ha":725,"x_min":19,"x_max":692,"o":"m 53 433 l 19 624 l 440 694 l 474 503 l 53 433 m 340 932 l 340 194 l 692 194 l 692 0 l 117 0 l 117 932 l 340 932 z "},"Ń":{"ha":1044,"x_min":113,"x_max":926,"o":"m 113 932 l 345 932 l 719 368 l 704 368 l 704 932 l 926 932 l 926 0 l 712 0 l 299 619 l 335 619 l 335 0 l 113 0 l 113 932 m 474 1015 l 369 1101 l 657 1375 l 801 1258 l 474 1015 z "},"Ň":{"ha":1044,"x_min":113,"x_max":926,"o":"m 113 932 l 345 932 l 719 368 l 704 368 l 704 932 l 926 932 l 926 0 l 712 0 l 299 619 l 335 619 l 335 0 l 113 0 l 113 932 m 530 1027 l 255 1235 l 383 1338 l 569 1163 l 490 1163 l 676 1338 l 807 1235 l 530 1027 z "},"Ņ":{"ha":1044,"x_min":113,"x_max":926,"o":"m 113 932 l 345 932 l 719 368 l 704 368 l 704 932 l 926 932 l 926 0 l 712 0 l 299 619 l 335 619 l 335 0 l 113 0 l 113 932 m 489 -319 l 399 -272 q 457 -236 431 -256 q 494 -192 483 -216 q 449 -167 467 -185 q 433 -121 431 -149 q 461 -69 435 -90 q 524 -48 487 -48 q 593 -80 570 -48 q 613 -155 617 -112 q 576 -249 610 -204 q 489 -319 542 -294 z "},"Ŋ":{"ha":1044,"x_min":113,"x_max":926,"o":"m 680 -356 q 572 -345 619 -356 q 476 -322 524 -335 l 476 -131 q 545 -152 506 -142 q 617 -162 584 -162 q 687 -142 660 -162 q 713 -62 713 -122 l 704 687 l 926 687 l 926 -66 q 864 -290 926 -224 q 680 -356 801 -356 m 113 932 l 345 932 l 719 368 l 704 368 l 704 932 l 926 932 l 926 0 l 842 -194 l 299 619 l 335 619 l 335 0 l 113 0 l 113 932 z "},"Ő":{"ha":1002,"x_min":60,"x_max":943,"o":"m 500 -22 q 268 34 367 -22 q 115 199 169 90 q 60 469 60 308 q 115 741 60 633 q 268 900 169 848 q 500 953 367 953 q 734 898 634 953 q 888 735 833 843 q 943 469 943 628 q 888 196 943 306 q 734 32 833 87 q 500 -22 634 -22 m 500 177 q 656 254 597 177 q 714 470 714 331 q 656 677 714 601 q 500 753 597 753 q 347 677 406 753 q 289 469 289 601 q 347 254 289 331 q 500 177 406 177 m 651 1025 l 545 1047 l 574 1290 l 721 1251 l 651 1025 m 439 1042 l 330 1058 l 335 1306 l 484 1277 l 439 1042 z "},"Ō":{"ha":1002,"x_min":60,"x_max":943,"o":"m 500 -22 q 268 34 367 -22 q 115 199 169 90 q 60 469 60 308 q 115 741 60 633 q 268 900 169 848 q 500 953 367 953 q 734 898 634 953 q 888 735 833 843 q 943 469 943 628 q 888 196 943 306 q 734 32 833 87 q 500 -22 634 -22 m 500 177 q 656 254 597 177 q 714 470 714 331 q 656 677 714 601 q 500 753 597 753 q 347 677 406 753 q 289 469 289 601 q 347 254 289 331 q 500 177 406 177 m 237 1237 l 766 1237 l 766 1057 l 237 1057 l 237 1237 z "},"Ø":{"ha":1002,"x_min":18,"x_max":958,"o":"m 18 0 l 775 932 l 958 932 l 199 0 l 18 0 m 500 -22 q 268 34 367 -22 q 115 199 169 90 q 60 469 60 308 q 115 741 60 633 q 268 900 169 848 q 500 953 367 953 q 734 898 634 953 q 888 735 833 843 q 943 469 943 628 q 888 196 943 306 q 734 32 833 87 q 500 -22 634 -22 m 500 177 q 656 254 597 177 q 714 470 714 331 q 656 677 714 601 q 500 753 597 753 q 347 677 406 753 q 289 469 289 601 q 347 254 289 331 q 500 177 406 177 z "},"Œ":{"ha":1271,"x_min":60,"x_max":1160,"o":"m 469 -22 q 258 34 351 -22 q 113 200 166 90 q 60 471 60 310 q 113 740 60 633 q 258 900 166 847 q 464 953 349 953 q 634 926 559 953 q 742 859 708 899 l 617 740 q 548 749 588 744 q 479 753 508 753 q 341 677 394 753 q 289 465 289 600 q 341 255 289 333 q 484 177 393 177 q 548 182 509 177 q 624 194 588 186 l 742 53 q 634 1 708 25 q 469 -22 559 -22 m 606 0 l 606 932 l 1160 932 l 1160 740 l 778 740 l 822 790 l 822 510 l 778 560 l 1135 560 l 1135 367 l 778 367 l 822 417 l 822 144 l 778 194 l 1160 194 l 1160 0 l 606 0 z "},"Þ":{"ha":846,"x_min":112,"x_max":819,"o":"m 112 0 l 112 932 l 335 932 l 335 736 l 285 786 l 469 786 q 725 709 631 786 q 819 480 819 631 q 725 251 819 329 q 469 173 631 173 l 285 173 l 335 223 l 335 0 l 112 0 m 335 317 l 285 367 l 469 367 q 561 401 530 367 q 592 480 592 435 q 561 560 592 526 q 469 594 530 594 l 285 594 l 335 644 l 335 317 z "},"Ŕ":{"ha":939,"x_min":117,"x_max":894,"o":"m 117 0 l 117 932 l 481 932 q 753 852 656 932 q 850 637 850 772 q 753 425 850 505 q 481 346 656 346 l 340 346 l 340 0 l 117 0 m 603 0 l 376 450 l 611 450 l 894 0 l 603 0 m 340 490 l 456 490 q 580 525 539 490 q 622 613 622 559 q 586 704 622 668 q 481 740 551 740 l 340 740 l 340 490 m 421 1015 l 317 1101 l 604 1375 l 749 1258 l 421 1015 z "},"Ř":{"ha":939,"x_min":117,"x_max":894,"o":"m 117 0 l 117 932 l 481 932 q 753 852 656 932 q 850 637 850 772 q 753 425 850 505 q 481 346 656 346 l 340 346 l 340 0 l 117 0 m 603 0 l 376 450 l 611 450 l 894 0 l 603 0 m 340 490 l 456 490 q 580 525 539 490 q 622 613 622 559 q 586 704 622 668 q 481 740 551 740 l 340 740 l 340 490 m 477 1027 l 202 1235 l 331 1338 l 517 1163 l 438 1163 l 624 1338 l 754 1235 l 477 1027 z "},"Ŗ":{"ha":939,"x_min":117,"x_max":894,"o":"m 117 0 l 117 932 l 481 932 q 753 852 656 932 q 850 637 850 772 q 753 425 850 505 q 481 346 656 346 l 340 346 l 340 0 l 117 0 m 603 0 l 376 450 l 611 450 l 894 0 l 603 0 m 340 490 l 456 490 q 580 525 539 490 q 622 613 622 559 q 586 704 622 668 q 481 740 551 740 l 340 740 l 340 490 m 436 -319 l 347 -272 q 404 -236 378 -256 q 441 -192 431 -216 q 396 -167 414 -185 q 380 -121 378 -149 q 408 -69 382 -90 q 471 -48 434 -48 q 541 -80 517 -48 q 560 -155 564 -112 q 523 -249 558 -204 q 436 -319 489 -294 z "},"Ś":{"ha":933,"x_min":85,"x_max":849,"o":"m 468 -22 q 283 11 368 -22 q 144 117 197 45 q 85 304 90 189 l 304 304 q 326 234 304 262 q 384 193 347 206 q 467 180 422 180 q 534 186 503 180 q 585 208 566 192 q 605 252 605 224 q 584 303 605 286 q 510 341 564 319 l 308 429 q 152 531 208 472 q 97 690 97 589 q 193 880 97 808 q 456 953 289 953 q 717 873 626 953 q 819 644 808 792 l 601 644 q 561 721 593 690 q 456 752 528 752 q 372 733 404 752 q 340 685 340 714 q 361 644 340 659 q 422 610 381 628 l 637 519 q 796 410 744 473 q 849 260 849 348 q 804 104 849 167 q 674 9 759 41 q 468 -22 589 -22 m 418 1015 l 314 1101 l 601 1375 l 746 1258 l 418 1015 z "},"Š":{"ha":933,"x_min":85,"x_max":849,"o":"m 468 -22 q 283 11 368 -22 q 144 117 197 45 q 85 304 90 189 l 304 304 q 326 234 304 262 q 384 193 347 206 q 467 180 422 180 q 534 186 503 180 q 585 208 566 192 q 605 252 605 224 q 584 303 605 286 q 510 341 564 319 l 308 429 q 152 531 208 472 q 97 690 97 589 q 193 880 97 808 q 456 953 289 953 q 717 873 626 953 q 819 644 808 792 l 601 644 q 561 721 593 690 q 456 752 528 752 q 372 733 404 752 q 340 685 340 714 q 361 644 340 659 q 422 610 381 628 l 637 519 q 796 410 744 473 q 849 260 849 348 q 804 104 849 167 q 674 9 759 41 q 468 -22 589 -22 m 474 1027 l 199 1235 l 328 1338 l 514 1163 l 435 1163 l 621 1338 l 751 1235 l 474 1027 z "},"Ş":{"ha":933,"x_min":85,"x_max":849,"o":"m 468 -22 q 283 11 368 -22 q 144 117 197 45 q 85 304 90 189 l 304 304 q 326 234 304 262 q 384 193 347 206 q 467 180 422 180 q 534 186 503 180 q 585 208 566 192 q 605 252 605 224 q 584 303 605 286 q 510 341 564 319 l 308 429 q 152 531 208 472 q 97 690 97 589 q 193 880 97 808 q 456 953 289 953 q 717 873 626 953 q 819 644 808 792 l 601 644 q 561 721 593 690 q 456 752 528 752 q 372 733 404 752 q 340 685 340 714 q 361 644 340 659 q 422 610 381 628 l 637 519 q 796 410 744 473 q 849 260 849 348 q 804 104 849 167 q 674 9 759 41 q 468 -22 589 -22 m 329 -263 l 356 -193 q 431 -212 399 -210 q 482 -204 463 -215 q 503 -174 501 -194 q 494 -148 504 -160 q 459 -125 484 -136 q 391 -105 435 -115 l 451 72 l 533 56 l 482 -100 l 464 -56 q 577 -84 536 -62 q 634 -134 617 -106 q 648 -190 650 -162 q 613 -255 645 -230 q 532 -290 581 -281 q 430 -293 483 -300 q 329 -263 376 -287 z "},"Ș":{"ha":933,"x_min":85,"x_max":849,"o":"m 468 -22 q 283 11 368 -22 q 144 117 197 45 q 85 304 90 189 l 304 304 q 326 234 304 262 q 384 193 347 206 q 467 180 422 180 q 534 186 503 180 q 585 208 566 192 q 605 252 605 224 q 584 303 605 286 q 510 341 564 319 l 308 429 q 152 531 208 472 q 97 690 97 589 q 193 880 97 808 q 456 953 289 953 q 717 873 626 953 q 819 644 808 792 l 601 644 q 561 721 593 690 q 456 752 528 752 q 372 733 404 752 q 340 685 340 714 q 361 644 340 659 q 422 610 381 628 l 637 519 q 796 410 744 473 q 849 260 849 348 q 804 104 849 167 q 674 9 759 41 q 468 -22 589 -22 m 441 -319 l 351 -272 q 409 -236 383 -256 q 446 -192 435 -216 q 401 -167 419 -185 q 385 -121 383 -149 q 413 -69 387 -90 q 476 -48 439 -48 q 545 -80 522 -48 q 565 -155 569 -112 q 528 -249 563 -204 q 441 -319 494 -294 z "},"ẞ":{"ha":1021,"x_min":116,"x_max":972,"o":"m 719 513 q 834 486 776 513 q 932 401 892 459 q 972 250 972 343 q 930 102 972 163 q 818 9 888 41 q 665 -22 748 -22 q 578 -16 615 -22 q 492 8 542 -10 l 492 161 q 569 143 538 149 q 628 138 601 138 q 697 155 672 138 q 732 198 722 173 q 742 242 742 222 q 732 293 742 267 q 691 339 722 320 q 593 358 659 358 l 496 358 l 496 490 l 658 740 l 338 740 l 338 0 l 116 0 l 116 932 l 873 932 l 873 740 l 719 513 z "},"Ŧ":{"ha":783,"x_min":8,"x_max":776,"o":"m 123 337 l 123 531 l 662 531 l 662 337 l 123 337 m 8 740 l 8 932 l 776 932 l 776 740 l 454 740 l 504 790 l 504 0 l 282 0 l 282 790 l 332 740 l 8 740 z "},"Ť":{"ha":783,"x_min":8,"x_max":776,"o":"m 8 740 l 8 932 l 776 932 l 776 740 l 454 740 l 504 790 l 504 0 l 282 0 l 282 790 l 332 740 l 8 740 m 399 1027 l 124 1235 l 253 1338 l 439 1163 l 360 1163 l 546 1338 l 676 1235 l 399 1027 z "},"Ţ":{"ha":783,"x_min":8,"x_max":776,"o":"m 8 740 l 8 932 l 776 932 l 776 740 l 454 740 l 504 790 l 504 0 l 282 0 l 282 790 l 332 740 l 8 740 m 191 -242 l 218 -172 q 292 -192 260 -190 q 343 -183 324 -194 q 365 -153 363 -173 q 356 -127 366 -139 q 321 -105 346 -115 q 253 -84 297 -94 l 313 92 l 395 77 l 344 -79 l 326 -35 q 439 -63 398 -42 q 495 -113 479 -85 q 510 -169 512 -141 q 475 -234 507 -209 q 394 -269 442 -260 q 291 -273 345 -279 q 191 -242 238 -266 z "},"Ț":{"ha":783,"x_min":8,"x_max":776,"o":"m 8 740 l 8 932 l 776 932 l 776 740 l 454 740 l 504 790 l 504 0 l 282 0 l 282 790 l 332 740 l 8 740 m 303 -299 l 213 -251 q 271 -215 244 -235 q 308 -172 297 -195 q 263 -147 281 -165 q 247 -100 244 -128 q 275 -48 249 -69 q 338 -27 301 -27 q 407 -59 384 -27 q 427 -134 431 -91 q 390 -228 424 -183 q 303 -299 356 -274 z "},"Ŭ":{"ha":1013,"x_min":110,"x_max":911,"o":"m 110 932 l 332 932 l 332 367 q 383 224 332 267 q 510 180 433 180 q 639 224 588 180 q 690 367 690 267 l 690 932 l 911 932 l 911 367 q 865 161 911 249 q 728 26 818 74 q 510 -22 639 -22 q 291 26 381 -22 q 156 161 202 74 q 110 367 110 249 l 110 932 m 506 1058 q 324 1124 389 1058 q 259 1317 259 1189 l 428 1317 q 448 1228 428 1257 q 506 1200 468 1200 q 564 1228 544 1200 q 584 1317 584 1257 l 753 1317 q 689 1124 753 1189 q 506 1058 624 1058 z "},"Ű":{"ha":1013,"x_min":110,"x_max":911,"o":"m 110 932 l 332 932 l 332 367 q 383 224 332 267 q 510 180 433 180 q 639 224 588 180 q 690 367 690 267 l 690 932 l 911 932 l 911 367 q 865 161 911 249 q 728 26 818 74 q 510 -22 639 -22 q 291 26 381 -22 q 156 161 202 74 q 110 367 110 249 l 110 932 m 656 1025 l 550 1047 l 579 1290 l 726 1251 l 656 1025 m 444 1042 l 335 1058 l 340 1306 l 489 1277 l 444 1042 z "},"Ū":{"ha":1013,"x_min":110,"x_max":911,"o":"m 110 932 l 332 932 l 332 367 q 383 224 332 267 q 510 180 433 180 q 639 224 588 180 q 690 367 690 267 l 690 932 l 911 932 l 911 367 q 865 161 911 249 q 728 26 818 74 q 510 -22 639 -22 q 291 26 381 -22 q 156 161 202 74 q 110 367 110 249 l 110 932 m 242 1237 l 771 1237 l 771 1057 l 242 1057 l 242 1237 z "},"Ų":{"ha":1013,"x_min":110,"x_max":911,"o":"m 110 932 l 332 932 l 332 367 q 383 224 332 267 q 510 180 433 180 q 639 224 588 180 q 690 367 690 267 l 690 932 l 911 932 l 911 367 q 865 161 911 249 q 728 26 818 74 q 510 -22 639 -22 q 291 26 381 -22 q 156 161 202 74 q 110 367 110 249 l 110 932 m 759 -221 q 666 -257 713 -244 q 573 -269 620 -269 q 437 -233 493 -269 q 381 -128 381 -197 q 407 -40 381 -83 q 484 27 434 3 l 667 0 q 563 -40 601 -17 q 524 -92 524 -62 q 545 -121 524 -115 q 585 -128 565 -128 q 640 -119 613 -128 q 709 -90 667 -110 l 759 -221 z "},"Ů":{"ha":1013,"x_min":110,"x_max":911,"o":"m 110 932 l 332 932 l 332 367 q 383 224 332 267 q 510 180 433 180 q 639 224 588 180 q 690 367 690 267 l 690 932 l 911 932 l 911 367 q 865 161 911 249 q 728 26 818 74 q 510 -22 639 -22 q 291 26 381 -22 q 156 161 202 74 q 110 367 110 249 l 110 932 m 508 999 q 411 1025 455 999 q 341 1095 367 1051 q 315 1192 315 1139 q 341 1288 315 1244 q 411 1358 367 1332 q 508 1384 455 1384 q 604 1358 560 1384 q 674 1288 648 1332 q 700 1192 700 1244 q 674 1095 700 1139 q 604 1025 648 1051 q 508 999 560 999 m 508 1142 q 543 1156 528 1142 q 558 1192 558 1171 q 543 1227 558 1213 q 508 1242 528 1242 q 472 1227 487 1242 q 458 1192 458 1213 q 472 1156 458 1171 q 508 1142 487 1142 z "},"Ẃ":{"ha":1391,"x_min":8,"x_max":1383,"o":"m 8 932 l 256 932 l 465 196 l 413 196 l 611 904 l 761 904 l 979 213 l 934 213 l 1131 932 l 1383 932 l 1072 0 l 838 0 l 688 469 l 698 469 l 555 0 l 322 0 l 8 932 m 647 1015 l 543 1101 l 831 1375 l 975 1258 l 647 1015 z "},"Ŵ":{"ha":1391,"x_min":8,"x_max":1383,"o":"m 8 932 l 256 932 l 465 196 l 413 196 l 611 904 l 761 904 l 979 213 l 934 213 l 1131 932 l 1383 932 l 1072 0 l 838 0 l 688 469 l 698 469 l 555 0 l 322 0 l 8 932 m 549 1024 l 420 1126 l 695 1334 l 972 1126 l 842 1024 l 656 1170 l 735 1170 l 549 1024 z "},"Ẅ":{"ha":1391,"x_min":8,"x_max":1383,"o":"m 8 932 l 256 932 l 465 196 l 413 196 l 611 904 l 761 904 l 979 213 l 934 213 l 1131 932 l 1383 932 l 1072 0 l 838 0 l 688 469 l 698 469 l 555 0 l 322 0 l 8 932 m 847 1041 q 759 1074 795 1041 q 724 1158 724 1107 q 759 1241 724 1208 q 847 1274 795 1274 q 936 1241 901 1274 q 972 1158 972 1208 q 936 1074 972 1107 q 847 1041 901 1041 m 544 1041 q 455 1074 489 1041 q 420 1156 420 1107 q 455 1240 420 1208 q 544 1272 489 1272 q 634 1240 599 1272 q 669 1156 669 1208 q 634 1074 669 1107 q 544 1041 599 1041 z "},"Ẁ":{"ha":1391,"x_min":8,"x_max":1383,"o":"m 8 932 l 256 932 l 465 196 l 413 196 l 611 904 l 761 904 l 979 213 l 934 213 l 1131 932 l 1383 932 l 1072 0 l 838 0 l 688 469 l 698 469 l 555 0 l 322 0 l 8 932 m 803 1015 l 475 1258 l 619 1375 l 907 1101 l 803 1015 z "},"Ý":{"ha":870,"x_min":7,"x_max":863,"o":"m 7 932 l 268 932 l 447 583 l 411 583 l 602 932 l 863 932 l 536 387 l 536 0 l 315 0 l 315 387 l 7 932 m 387 1015 l 283 1101 l 570 1375 l 715 1258 l 387 1015 z "},"Ŷ":{"ha":870,"x_min":7,"x_max":863,"o":"m 7 932 l 268 932 l 447 583 l 411 583 l 602 932 l 863 932 l 536 387 l 536 0 l 315 0 l 315 387 l 7 932 m 288 1024 l 160 1126 l 435 1334 l 712 1126 l 581 1024 l 395 1170 l 474 1170 l 288 1024 z "},"Ÿ":{"ha":870,"x_min":7,"x_max":863,"o":"m 7 932 l 268 932 l 447 583 l 411 583 l 602 932 l 863 932 l 536 387 l 536 0 l 315 0 l 315 387 l 7 932 m 586 1041 q 499 1074 535 1041 q 463 1158 463 1107 q 499 1241 463 1208 q 586 1274 535 1274 q 676 1241 641 1274 q 711 1158 711 1208 q 676 1074 711 1107 q 586 1041 641 1041 m 283 1041 q 194 1074 228 1041 q 160 1156 160 1107 q 194 1240 160 1208 q 283 1272 228 1272 q 373 1240 338 1272 q 408 1156 408 1208 q 373 1074 408 1107 q 283 1041 338 1041 z "},"Ỳ":{"ha":870,"x_min":7,"x_max":863,"o":"m 7 932 l 268 932 l 447 583 l 411 583 l 602 932 l 863 932 l 536 387 l 536 0 l 315 0 l 315 387 l 7 932 m 542 1015 l 215 1258 l 359 1375 l 647 1101 l 542 1015 z "},"Ź":{"ha":927,"x_min":101,"x_max":827,"o":"m 101 0 l 101 188 l 613 810 l 613 730 l 101 728 l 101 932 l 827 932 l 827 747 l 363 178 l 363 203 l 827 204 l 827 0 l 101 0 m 429 1015 l 325 1101 l 613 1375 l 757 1258 l 429 1015 z "},"Ž":{"ha":927,"x_min":101,"x_max":827,"o":"m 101 0 l 101 188 l 613 810 l 613 730 l 101 728 l 101 932 l 827 932 l 827 747 l 363 178 l 363 203 l 827 204 l 827 0 l 101 0 m 485 1027 l 210 1235 l 339 1338 l 525 1163 l 446 1163 l 632 1338 l 763 1235 l 485 1027 z "},"Ż":{"ha":927,"x_min":101,"x_max":827,"o":"m 101 0 l 101 188 l 613 810 l 613 730 l 101 728 l 101 932 l 827 932 l 827 747 l 363 178 l 363 203 l 827 204 l 827 0 l 101 0 m 478 1051 q 376 1089 415 1051 q 338 1185 338 1127 q 376 1282 338 1243 q 478 1321 415 1321 q 581 1282 540 1321 q 622 1185 622 1244 q 581 1089 622 1126 q 478 1051 540 1051 z "},"ă":{"ha":863,"x_min":69,"x_max":760,"o":"m 566 0 l 538 183 l 538 439 q 519 519 538 490 q 439 547 500 547 q 380 536 403 547 q 347 508 358 526 q 336 469 336 490 l 96 469 q 134 602 96 550 q 249 681 172 655 q 439 706 325 706 q 610 676 538 706 q 721 584 682 645 q 760 431 760 523 l 760 0 l 566 0 m 351 -22 q 196 9 259 -22 q 101 92 133 40 q 69 209 69 145 q 103 314 69 269 q 202 382 136 358 q 363 406 267 406 q 466 400 422 406 q 558 385 511 394 l 558 260 q 486 272 524 267 q 414 276 449 276 q 336 260 365 276 q 307 209 307 244 q 333 164 307 183 q 414 145 358 145 q 488 164 461 145 q 526 211 515 183 q 538 267 538 240 l 590 267 q 565 122 590 188 q 487 17 540 56 q 351 -22 434 -22 m 431 813 q 249 878 314 813 q 184 1072 184 944 l 353 1072 q 373 983 353 1012 q 431 955 393 955 q 489 983 469 955 q 509 1072 509 1012 l 678 1072 q 614 878 678 944 q 431 813 549 813 z "},"ā":{"ha":863,"x_min":69,"x_max":760,"o":"m 566 0 l 538 183 l 538 439 q 519 519 538 490 q 439 547 500 547 q 380 536 403 547 q 347 508 358 526 q 336 469 336 490 l 96 469 q 134 602 96 550 q 249 681 172 655 q 439 706 325 706 q 610 676 538 706 q 721 584 682 645 q 760 431 760 523 l 760 0 l 566 0 m 351 -22 q 196 9 259 -22 q 101 92 133 40 q 69 209 69 145 q 103 314 69 269 q 202 382 136 358 q 363 406 267 406 q 466 400 422 406 q 558 385 511 394 l 558 260 q 486 272 524 267 q 414 276 449 276 q 336 260 365 276 q 307 209 307 244 q 333 164 307 183 q 414 145 358 145 q 488 164 461 145 q 526 211 515 183 q 538 267 538 240 l 590 267 q 565 122 590 188 q 487 17 540 56 q 351 -22 434 -22 m 167 992 l 696 992 l 696 812 l 167 812 l 167 992 z "},"ą":{"ha":863,"x_min":69,"x_max":853,"o":"m 566 0 l 538 183 l 538 439 q 519 519 538 490 q 439 547 500 547 q 380 536 403 547 q 347 508 358 526 q 336 469 336 490 l 96 469 q 134 602 96 550 q 249 681 172 655 q 439 706 325 706 q 610 676 538 706 q 721 584 682 645 q 760 431 760 523 l 760 0 l 566 0 m 351 -22 q 196 9 259 -22 q 101 92 133 40 q 69 209 69 145 q 103 314 69 269 q 202 382 136 358 q 363 406 267 406 q 466 400 422 406 q 558 385 511 394 l 558 260 q 486 272 524 267 q 414 276 449 276 q 336 260 365 276 q 307 209 307 244 q 333 164 307 183 q 414 145 358 145 q 488 164 461 145 q 526 211 515 183 q 538 267 538 240 l 590 267 q 565 122 590 188 q 487 17 540 56 q 351 -22 434 -22 m 853 -221 q 760 -257 806 -244 q 667 -269 714 -269 q 531 -233 587 -269 q 474 -128 474 -197 q 501 -40 474 -83 q 578 27 528 3 l 760 0 q 657 -40 695 -17 q 618 -92 618 -62 q 639 -121 618 -115 q 679 -128 659 -128 q 734 -119 707 -128 q 803 -90 761 -110 l 853 -221 z "},"å":{"ha":863,"x_min":69,"x_max":760,"o":"m 566 0 l 538 183 l 538 439 q 519 519 538 490 q 439 547 500 547 q 380 536 403 547 q 347 508 358 526 q 336 469 336 490 l 96 469 q 134 602 96 550 q 249 681 172 655 q 439 706 325 706 q 610 676 538 706 q 721 584 682 645 q 760 431 760 523 l 760 0 l 566 0 m 351 -22 q 196 9 259 -22 q 101 92 133 40 q 69 209 69 145 q 103 314 69 269 q 202 382 136 358 q 363 406 267 406 q 466 400 422 406 q 558 385 511 394 l 558 260 q 486 272 524 267 q 414 276 449 276 q 336 260 365 276 q 307 209 307 244 q 333 164 307 183 q 414 145 358 145 q 488 164 461 145 q 526 211 515 183 q 538 267 538 240 l 590 267 q 565 122 590 188 q 487 17 540 56 q 351 -22 434 -22 m 433 754 q 336 780 380 754 q 266 850 292 806 q 240 947 240 894 q 266 1043 240 999 q 336 1113 292 1087 q 433 1139 380 1139 q 529 1113 485 1139 q 599 1043 573 1087 q 625 947 625 999 q 599 850 625 894 q 529 780 573 806 q 433 754 485 754 m 433 897 q 468 911 453 897 q 483 947 483 926 q 468 982 483 967 q 433 997 453 997 q 397 982 412 997 q 383 947 383 967 q 397 911 383 926 q 433 897 412 897 z "},"æ":{"ha":1219,"x_min":69,"x_max":1167,"o":"m 552 210 l 524 210 l 524 439 q 502 517 524 487 q 427 547 481 547 q 375 536 395 547 q 345 508 355 526 q 336 469 336 490 l 96 469 q 133 602 96 550 q 236 681 171 655 q 383 706 301 706 q 556 666 490 706 q 653 556 622 626 q 683 394 683 486 l 683 347 l 552 210 m 348 -22 q 195 9 257 -22 q 101 92 133 40 q 69 206 69 144 q 102 314 69 269 q 198 382 135 358 q 351 406 260 406 q 449 400 400 406 q 544 385 497 394 l 544 260 q 469 272 510 267 q 404 276 428 276 q 333 260 360 276 q 307 212 307 244 q 329 165 307 184 q 398 145 351 145 q 470 163 442 145 q 511 208 498 181 q 524 267 524 236 l 666 267 q 633 133 666 200 q 529 22 599 67 q 348 -22 459 -22 m 860 -22 q 690 27 766 -22 q 569 159 614 76 q 525 345 525 242 q 569 530 525 448 q 689 659 614 611 q 858 706 765 706 q 1001 672 939 706 q 1102 578 1063 637 q 1154 447 1141 520 q 1149 297 1167 374 l 694 297 l 694 409 l 986 409 l 954 388 q 952 438 956 413 q 938 484 949 463 q 906 518 926 505 q 853 531 885 531 q 792 514 818 531 q 752 464 766 497 q 738 385 738 432 l 738 298 q 750 222 738 254 q 787 173 763 190 q 849 155 812 155 q 903 167 880 155 q 935 207 926 180 l 1156 207 q 1103 90 1146 142 q 998 8 1061 38 q 860 -22 934 -22 z "},"ć":{"ha":755,"x_min":60,"x_max":697,"o":"m 397 -22 q 230 23 307 -22 q 107 150 153 68 q 60 342 60 232 q 107 543 60 462 q 230 665 153 624 q 397 706 307 706 q 529 681 472 706 q 623 613 585 655 q 679 522 660 572 q 697 424 697 472 l 475 426 q 451 480 470 456 q 395 505 432 505 q 340 490 366 505 q 298 440 314 475 q 281 342 281 404 q 298 245 281 281 q 340 195 314 210 q 395 181 366 181 q 459 202 442 181 q 475 258 475 224 l 697 258 q 665 120 697 184 q 566 17 632 56 q 397 -22 499 -22 m 348 769 l 244 856 l 531 1130 l 676 1013 l 348 769 z "},"č":{"ha":755,"x_min":60,"x_max":697,"o":"m 397 -22 q 230 23 307 -22 q 107 150 153 68 q 60 342 60 232 q 107 543 60 462 q 230 665 153 624 q 397 706 307 706 q 529 681 472 706 q 623 613 585 655 q 679 522 660 572 q 697 424 697 472 l 475 426 q 451 480 470 456 q 395 505 432 505 q 340 490 366 505 q 298 440 314 475 q 281 342 281 404 q 298 245 281 281 q 340 195 314 210 q 395 181 366 181 q 459 202 442 181 q 475 258 475 224 l 697 258 q 665 120 697 184 q 566 17 632 56 q 397 -22 499 -22 m 404 782 l 129 990 l 258 1092 l 444 918 l 365 918 l 551 1092 l 681 990 l 404 782 z "},"ç":{"ha":755,"x_min":60,"x_max":697,"o":"m 397 -22 q 230 23 307 -22 q 107 150 153 68 q 60 342 60 232 q 107 543 60 462 q 230 665 153 624 q 397 706 307 706 q 529 681 472 706 q 623 613 585 655 q 679 522 660 572 q 697 424 697 472 l 475 426 q 451 480 470 456 q 395 505 432 505 q 340 490 366 505 q 298 440 314 475 q 281 342 281 404 q 298 245 281 281 q 340 195 314 210 q 395 181 366 181 q 459 202 442 181 q 475 258 475 224 l 697 258 q 665 120 697 184 q 566 17 632 56 q 397 -22 499 -22 m 250 -261 l 277 -191 q 351 -210 319 -208 q 402 -202 383 -212 q 424 -172 422 -192 q 415 -146 425 -158 q 380 -123 405 -134 q 312 -103 356 -112 l 372 74 l 454 58 l 403 -98 l 385 -53 q 498 -82 457 -60 q 555 -132 538 -103 q 569 -187 571 -160 q 534 -253 566 -228 q 453 -288 501 -278 q 350 -291 404 -298 q 250 -261 297 -285 z "},"ċ":{"ha":755,"x_min":60,"x_max":697,"o":"m 397 -22 q 230 23 307 -22 q 107 150 153 68 q 60 342 60 232 q 107 543 60 462 q 230 665 153 624 q 397 706 307 706 q 529 681 472 706 q 623 613 585 655 q 679 522 660 572 q 697 424 697 472 l 475 426 q 451 480 470 456 q 395 505 432 505 q 340 490 366 505 q 298 440 314 475 q 281 342 281 404 q 298 245 281 281 q 340 195 314 210 q 395 181 366 181 q 459 202 442 181 q 475 258 475 224 l 697 258 q 665 120 697 184 q 566 17 632 56 q 397 -22 499 -22 m 397 806 q 295 844 334 806 q 256 940 256 882 q 295 1037 256 998 q 397 1076 334 1076 q 499 1037 458 1076 q 540 940 540 999 q 499 844 540 881 q 397 806 458 806 z "},"ď":{"ha":884,"x_min":59,"x_max":1019,"o":"m 378 -22 q 216 24 289 -22 q 101 153 144 70 q 59 346 59 236 q 99 535 59 454 q 208 661 140 616 q 363 706 277 706 q 494 670 440 706 q 576 560 548 633 q 604 376 604 487 l 542 376 q 525 444 542 415 q 481 489 508 473 q 419 505 453 505 q 344 484 375 505 q 297 427 313 463 q 281 346 281 391 q 298 261 281 299 q 344 202 314 224 q 416 181 375 181 q 477 199 449 181 q 524 248 506 217 q 542 315 542 278 l 604 315 q 573 124 604 199 q 489 14 541 49 q 378 -22 438 -22 m 586 0 l 542 178 l 542 958 l 767 958 l 767 0 l 586 0 m 906 708 l 813 756 q 868 792 843 772 q 901 835 893 812 q 855 860 874 842 q 835 907 835 878 q 860 959 835 938 q 921 980 884 980 q 993 948 967 980 q 1019 873 1019 916 q 988 778 1019 824 q 906 708 956 733 z "},"đ":{"ha":884,"x_min":59,"x_max":854,"o":"m 378 -22 q 216 24 289 -22 q 101 153 144 70 q 59 346 59 236 q 99 535 59 454 q 208 661 140 616 q 363 706 277 706 q 494 670 440 706 q 576 560 548 633 q 604 376 604 487 l 542 376 q 525 444 542 415 q 481 489 508 473 q 419 505 453 505 q 344 484 375 505 q 297 427 313 463 q 281 346 281 391 q 298 261 281 299 q 344 202 314 224 q 416 181 375 181 q 477 199 449 181 q 524 248 506 217 q 542 315 542 278 l 604 315 q 573 124 604 199 q 489 14 541 49 q 378 -22 438 -22 m 586 0 l 542 178 l 542 958 l 767 958 l 767 0 l 586 0 m 392 747 l 392 878 l 854 878 l 854 747 l 392 747 z "},"ð":{"ha":796,"x_min":59,"x_max":771,"o":"m 385 -22 q 222 24 296 -22 q 103 153 148 70 q 59 348 59 237 q 100 535 59 455 q 208 661 140 616 q 356 706 276 706 q 501 657 442 706 q 590 528 560 608 q 620 356 620 448 l 558 356 q 536 439 557 406 q 483 489 515 472 q 415 505 451 505 q 343 484 374 505 q 297 427 313 463 q 281 344 281 391 q 298 261 281 298 q 345 202 315 224 q 416 181 375 181 q 491 203 460 181 q 539 263 522 226 q 557 340 556 299 q 552 524 558 437 q 516 696 546 611 q 417 870 486 781 q 225 1060 349 960 l 420 1178 q 599 971 530 1071 q 706 780 668 871 q 757 610 743 689 q 771 465 771 531 q 737 250 771 341 q 647 98 703 158 q 522 8 590 38 q 385 -22 453 -22 m 274 768 l 213 898 l 677 1137 l 738 1007 l 274 768 z "},"ě":{"ha":760,"x_min":60,"x_max":708,"o":"m 391 -22 q 229 22 305 -22 q 107 149 153 67 q 60 345 60 232 q 106 539 60 458 q 228 663 153 620 q 391 706 304 706 q 541 672 477 706 q 644 579 605 638 q 695 448 683 521 q 690 297 708 374 l 235 297 l 235 409 l 528 409 l 496 388 q 494 438 498 413 q 479 484 490 463 q 448 518 468 505 q 395 531 427 531 q 334 514 360 531 q 293 464 308 497 q 279 385 279 432 l 279 298 q 292 222 279 254 q 329 173 304 190 q 391 155 353 155 q 444 167 422 155 q 476 207 467 180 l 697 207 q 646 91 687 143 q 541 8 606 39 q 391 -22 476 -22 m 388 782 l 113 990 l 242 1092 l 428 918 l 349 918 l 535 1092 l 665 990 l 388 782 z "},"ė":{"ha":760,"x_min":60,"x_max":708,"o":"m 391 -22 q 229 22 305 -22 q 107 149 153 67 q 60 345 60 232 q 106 539 60 458 q 228 663 153 620 q 391 706 304 706 q 541 672 477 706 q 644 579 605 638 q 695 448 683 521 q 690 297 708 374 l 235 297 l 235 409 l 528 409 l 496 388 q 494 438 498 413 q 479 484 490 463 q 448 518 468 505 q 395 531 427 531 q 334 514 360 531 q 293 464 308 497 q 279 385 279 432 l 279 298 q 292 222 279 254 q 329 173 304 190 q 391 155 353 155 q 444 167 422 155 q 476 207 467 180 l 697 207 q 646 91 687 143 q 541 8 606 39 q 391 -22 476 -22 m 381 806 q 279 844 318 806 q 240 940 240 882 q 279 1037 240 998 q 381 1076 318 1076 q 483 1037 442 1076 q 524 940 524 999 q 483 844 524 881 q 381 806 442 806 z "},"ē":{"ha":760,"x_min":60,"x_max":708,"o":"m 391 -22 q 229 22 305 -22 q 107 149 153 67 q 60 345 60 232 q 106 539 60 458 q 228 663 153 620 q 391 706 304 706 q 541 672 477 706 q 644 579 605 638 q 695 448 683 521 q 690 297 708 374 l 235 297 l 235 409 l 528 409 l 496 388 q 494 438 498 413 q 479 484 490 463 q 448 518 468 505 q 395 531 427 531 q 334 514 360 531 q 293 464 308 497 q 279 385 279 432 l 279 298 q 292 222 279 254 q 329 173 304 190 q 391 155 353 155 q 444 167 422 155 q 476 207 467 180 l 697 207 q 646 91 687 143 q 541 8 606 39 q 391 -22 476 -22 m 116 992 l 645 992 l 645 812 l 116 812 l 116 992 z "},"ę":{"ha":760,"x_min":60,"x_max":709,"o":"m 709 -221 q 616 -257 663 -244 q 523 -269 570 -269 q 387 -234 443 -269 q 331 -134 331 -199 q 365 -47 331 -85 q 446 18 399 -9 q 533 59 493 44 l 617 59 q 555 14 588 38 q 498 -36 522 -10 q 474 -88 474 -61 q 495 -121 474 -114 q 535 -128 515 -128 q 590 -119 563 -128 q 659 -90 617 -110 l 709 -221 m 391 -22 q 229 22 305 -22 q 107 149 153 67 q 60 345 60 232 q 106 539 60 458 q 228 663 153 620 q 391 706 304 706 q 541 672 477 706 q 644 579 605 638 q 695 448 683 521 q 690 297 708 374 l 235 297 l 235 409 l 528 409 l 496 388 q 494 438 498 413 q 479 484 490 463 q 448 518 468 505 q 395 531 427 531 q 334 514 360 531 q 293 464 308 497 q 279 385 279 432 l 279 298 q 292 222 279 254 q 329 173 304 190 q 391 155 353 155 q 444 167 422 155 q 476 207 467 180 l 697 207 q 646 91 687 143 q 541 8 606 39 q 391 -22 476 -22 z "},"ğ":{"ha":834,"x_min":1,"x_max":799,"o":"m 403 -356 q 183 -321 273 -356 q 47 -230 93 -286 q 1 -112 1 -174 q 48 -8 1 -46 q 163 29 95 29 l 346 -23 q 253 -43 285 -23 q 220 -99 220 -62 q 272 -160 220 -141 q 403 -180 324 -180 q 499 -162 460 -180 q 559 -117 539 -144 q 580 -59 580 -89 q 570 -32 580 -41 q 538 -23 560 -23 l 346 -23 q 214 1 277 -23 q 111 66 151 24 q 71 159 71 107 q 94 235 71 202 q 161 285 118 267 q 263 303 205 303 l 326 235 q 291 228 307 235 q 267 210 276 222 q 258 180 258 198 q 278 143 258 156 q 346 131 299 131 l 538 131 q 730 91 660 131 q 799 -42 799 52 q 750 -195 799 -123 q 612 -311 701 -267 q 403 -356 523 -356 m 400 223 q 245 252 317 223 q 131 336 174 282 q 87 463 87 390 q 131 593 87 539 q 245 677 174 648 q 400 706 317 706 q 553 677 482 706 q 669 593 625 648 q 714 463 714 539 q 669 336 714 390 q 553 252 625 282 q 400 223 482 223 m 403 375 q 475 401 453 375 q 496 463 496 426 q 474 531 496 506 q 400 556 453 556 q 329 531 352 556 q 306 463 306 506 q 330 401 306 426 q 403 375 353 375 m 661 595 l 561 661 q 594 771 561 724 q 680 843 628 817 q 787 869 732 869 l 778 659 q 691 643 721 659 q 661 595 661 628 m 417 813 q 235 878 300 813 q 170 1072 170 944 l 340 1072 q 359 983 340 1012 q 417 955 379 955 q 475 983 456 955 q 495 1072 495 1012 l 665 1072 q 600 878 665 944 q 417 813 535 813 z "},"ģ":{"ha":834,"x_min":1,"x_max":799,"o":"m 403 -356 q 183 -321 273 -356 q 47 -230 93 -286 q 1 -112 1 -174 q 48 -8 1 -46 q 163 29 95 29 l 346 -23 q 253 -43 285 -23 q 220 -99 220 -62 q 272 -160 220 -141 q 403 -180 324 -180 q 499 -162 460 -180 q 559 -117 539 -144 q 580 -59 580 -89 q 570 -32 580 -41 q 538 -23 560 -23 l 346 -23 q 214 1 277 -23 q 111 66 151 24 q 71 159 71 107 q 94 235 71 202 q 161 285 118 267 q 263 303 205 303 l 326 235 q 291 228 307 235 q 267 210 276 222 q 258 180 258 198 q 278 143 258 156 q 346 131 299 131 l 538 131 q 730 91 660 131 q 799 -42 799 52 q 750 -195 799 -123 q 612 -311 701 -267 q 403 -356 523 -356 m 400 223 q 245 252 317 223 q 131 336 174 282 q 87 463 87 390 q 131 593 87 539 q 245 677 174 648 q 400 706 317 706 q 553 677 482 706 q 669 593 625 648 q 714 463 714 539 q 669 336 714 390 q 553 252 625 282 q 400 223 482 223 m 403 375 q 475 401 453 375 q 496 463 496 426 q 474 531 496 506 q 400 556 453 556 q 329 531 352 556 q 306 463 306 506 q 330 401 306 426 q 403 375 353 375 m 661 595 l 561 661 q 594 771 561 724 q 680 843 628 817 q 787 869 732 869 l 778 659 q 691 643 721 659 q 661 595 661 628 m 399 987 l 489 939 q 431 904 458 924 q 394 860 405 884 q 440 835 422 853 q 456 788 458 817 q 427 736 453 757 q 365 715 401 715 q 295 747 318 715 q 275 822 272 779 q 313 917 278 872 q 399 987 347 962 z "},"ġ":{"ha":834,"x_min":1,"x_max":799,"o":"m 403 -356 q 183 -321 273 -356 q 47 -230 93 -286 q 1 -112 1 -174 q 48 -8 1 -46 q 163 29 95 29 l 346 -23 q 253 -43 285 -23 q 220 -99 220 -62 q 272 -160 220 -141 q 403 -180 324 -180 q 499 -162 460 -180 q 559 -117 539 -144 q 580 -59 580 -89 q 570 -32 580 -41 q 538 -23 560 -23 l 346 -23 q 214 1 277 -23 q 111 66 151 24 q 71 159 71 107 q 94 235 71 202 q 161 285 118 267 q 263 303 205 303 l 326 235 q 291 228 307 235 q 267 210 276 222 q 258 180 258 198 q 278 143 258 156 q 346 131 299 131 l 538 131 q 730 91 660 131 q 799 -42 799 52 q 750 -195 799 -123 q 612 -311 701 -267 q 403 -356 523 -356 m 400 223 q 245 252 317 223 q 131 336 174 282 q 87 463 87 390 q 131 593 87 539 q 245 677 174 648 q 400 706 317 706 q 553 677 482 706 q 669 593 625 648 q 714 463 714 539 q 669 336 714 390 q 553 252 625 282 q 400 223 482 223 m 403 375 q 475 401 453 375 q 496 463 496 426 q 474 531 496 506 q 400 556 453 556 q 329 531 352 556 q 306 463 306 506 q 330 401 306 426 q 403 375 353 375 m 661 595 l 561 661 q 594 771 561 724 q 680 843 628 817 q 787 869 732 869 l 778 659 q 691 643 721 659 q 661 595 661 628 m 417 806 q 316 844 355 806 q 277 940 277 882 q 316 1037 277 998 q 417 1076 355 1076 q 520 1037 479 1076 q 561 940 561 999 q 520 844 561 881 q 417 806 479 806 z "},"ħ":{"ha":894,"x_min":31,"x_max":794,"o":"m 570 0 l 570 399 q 544 479 570 453 q 480 505 517 505 q 410 483 442 505 q 359 414 378 462 q 340 288 340 367 l 272 288 q 307 528 272 435 q 403 663 342 620 q 541 706 464 706 q 685 667 629 706 q 767 558 741 627 q 794 399 794 488 l 794 0 l 570 0 m 117 0 l 117 958 l 340 958 l 340 0 l 117 0 m 31 747 l 31 878 l 510 878 l 510 747 l 31 747 z "},"ı":{"ha":499,"x_min":139,"x_max":361,"o":"m 139 0 l 139 688 l 361 688 l 361 0 l 139 0 z "},"ī":{"ha":499,"x_min":75,"x_max":424,"o":"m 139 0 l 139 688 l 361 688 l 361 0 l 139 0 m 75 992 l 424 992 l 424 812 l 75 812 l 75 992 z "},"į":{"ha":499,"x_min":74,"x_max":452,"o":"m 139 0 l 139 688 l 361 688 l 361 0 l 139 0 m 250 806 q 149 844 188 806 q 110 940 110 882 q 149 1037 110 998 q 250 1076 188 1076 q 353 1037 312 1076 q 394 940 394 999 q 353 844 394 881 q 250 806 312 806 m 452 -221 q 359 -257 406 -244 q 266 -269 313 -269 q 130 -233 186 -269 q 74 -128 74 -197 q 100 -40 74 -83 q 177 27 127 3 l 360 0 q 256 -40 294 -17 q 217 -92 217 -62 q 238 -121 217 -115 q 278 -128 258 -128 q 333 -119 306 -128 q 402 -90 360 -110 l 452 -221 z "},"ĳ":{"ha":996,"x_min":118,"x_max":876,"o":"m 250 772 q 152 805 187 772 q 118 896 118 837 q 152 988 118 953 q 250 1022 187 1022 q 347 988 311 1022 q 382 896 382 953 q 347 805 382 837 q 250 772 311 772 m 139 0 l 139 688 l 361 688 l 361 0 l 139 0 m 744 772 q 647 805 683 772 q 611 896 611 837 q 647 988 611 953 q 744 1022 683 1022 q 841 988 806 1022 q 876 896 876 953 q 841 805 876 837 q 744 772 806 772 m 612 -356 q 503 -345 551 -356 q 408 -322 456 -335 l 408 -131 q 477 -152 438 -142 q 549 -162 516 -162 q 614 -142 592 -162 q 635 -62 635 -122 l 635 687 l 858 687 l 858 -66 q 796 -290 858 -224 q 612 -356 733 -356 z "},"ȷ":{"ha":497,"x_min":-91,"x_max":359,"o":"m 113 -356 q 4 -345 51 -356 q -91 -322 -43 -335 l -91 -131 q -22 -152 -61 -142 q 50 -162 17 -162 q 114 -142 93 -162 q 135 -62 135 -122 l 135 687 l 359 687 l 359 -66 q 297 -290 359 -224 q 113 -356 234 -356 z "},"ķ":{"ha":863,"x_min":117,"x_max":863,"o":"m 117 0 l 117 958 l 340 958 l 340 0 l 117 0 m 312 458 l 548 684 l 844 684 l 312 231 l 312 458 m 593 0 l 306 440 l 510 496 l 863 0 l 593 0 m 398 -319 l 308 -272 q 366 -236 340 -256 q 403 -192 392 -216 q 358 -167 376 -185 q 342 -121 340 -149 q 370 -69 344 -90 q 433 -48 396 -48 q 502 -80 479 -48 q 522 -155 526 -112 q 485 -249 519 -204 q 398 -319 451 -294 z "},"ĺ":{"ha":458,"x_min":76,"x_max":508,"o":"m 117 0 l 117 958 l 340 958 l 340 0 l 117 0 m 181 1072 l 76 1158 l 364 1432 l 508 1315 l 181 1072 z "},"ľ":{"ha":458,"x_min":117,"x_max":591,"o":"m 117 0 l 117 958 l 340 958 l 340 0 l 117 0 m 478 708 l 385 756 q 440 792 415 772 q 474 835 465 812 q 427 860 446 842 q 408 907 408 878 q 432 959 408 938 q 493 980 456 980 q 565 948 540 980 q 591 873 591 916 q 560 778 591 824 q 478 708 528 733 z "},"ļ":{"ha":458,"x_min":106,"x_max":340,"o":"m 117 0 l 117 958 l 340 958 l 340 0 l 117 0 m 196 -319 l 106 -272 q 164 -236 138 -256 q 201 -192 190 -216 q 156 -167 174 -185 q 140 -121 138 -149 q 168 -69 142 -90 q 231 -48 194 -48 q 300 -80 277 -48 q 320 -155 324 -112 q 283 -249 317 -204 q 196 -319 249 -294 z "},"ł":{"ha":458,"x_min":12,"x_max":460,"o":"m 39 496 l 12 631 l 433 701 l 460 565 l 39 496 m 117 0 l 117 958 l 340 958 l 340 0 l 117 0 z "},"ń":{"ha":894,"x_min":117,"x_max":794,"o":"m 570 0 l 570 399 q 544 479 570 453 q 480 505 517 505 q 410 483 442 505 q 359 414 378 462 q 340 288 340 367 l 272 288 q 307 528 272 435 q 403 663 342 620 q 541 706 464 706 q 685 667 629 706 q 767 558 741 627 q 794 399 794 488 l 794 0 l 570 0 m 117 0 l 117 684 l 313 684 l 340 571 l 340 0 l 117 0 m 399 769 l 294 856 l 582 1130 l 726 1013 l 399 769 z "},"ň":{"ha":894,"x_min":117,"x_max":794,"o":"m 570 0 l 570 399 q 544 479 570 453 q 480 505 517 505 q 410 483 442 505 q 359 414 378 462 q 340 288 340 367 l 272 288 q 307 528 272 435 q 403 663 342 620 q 541 706 464 706 q 685 667 629 706 q 767 558 741 627 q 794 399 794 488 l 794 0 l 570 0 m 117 0 l 117 684 l 313 684 l 340 571 l 340 0 l 117 0 m 455 782 l 180 990 l 308 1092 l 494 918 l 415 918 l 601 1092 l 732 990 l 455 782 z "},"ņ":{"ha":894,"x_min":117,"x_max":794,"o":"m 570 0 l 570 399 q 544 479 570 453 q 480 505 517 505 q 410 483 442 505 q 359 414 378 462 q 340 288 340 367 l 272 288 q 307 528 272 435 q 403 663 342 620 q 541 706 464 706 q 685 667 629 706 q 767 558 741 627 q 794 399 794 488 l 794 0 l 570 0 m 117 0 l 117 684 l 313 684 l 340 571 l 340 0 l 117 0 m 414 -319 l 324 -272 q 382 -236 356 -256 q 419 -192 408 -216 q 374 -167 392 -185 q 358 -121 356 -149 q 386 -69 360 -90 q 449 -48 412 -48 q 518 -80 495 -48 q 538 -155 542 -112 q 501 -249 535 -204 q 414 -319 467 -294 z "},"ŋ":{"ha":914,"x_min":117,"x_max":794,"o":"m 548 -356 q 440 -345 487 -356 q 344 -322 392 -335 l 344 -131 q 413 -152 374 -142 q 485 -162 452 -162 q 550 -142 528 -162 q 571 -62 571 -122 l 571 340 l 794 340 l 794 -66 q 732 -290 794 -224 q 548 -356 669 -356 m 570 0 l 570 399 q 544 479 570 453 q 480 505 517 505 q 410 483 442 505 q 359 414 378 462 q 340 288 340 367 l 272 288 q 307 528 272 435 q 403 663 342 620 q 541 706 464 706 q 685 667 629 706 q 767 558 741 627 q 794 399 794 488 l 794 0 l 570 0 m 117 0 l 117 684 l 313 684 l 340 571 l 340 0 l 117 0 z "},"ő":{"ha":815,"x_min":60,"x_max":754,"o":"m 409 -22 q 234 17 314 -22 q 107 136 155 56 q 60 340 60 217 q 107 549 60 468 q 234 668 155 629 q 409 706 314 706 q 581 668 502 706 q 707 549 659 629 q 754 340 754 468 q 707 136 754 217 q 581 17 659 56 q 409 -22 502 -22 m 401 172 q 463 188 433 172 q 513 242 493 205 q 533 340 533 279 q 499 474 533 435 q 417 513 465 513 q 354 497 385 513 q 302 442 322 480 q 281 340 281 404 q 317 210 281 248 q 401 172 353 172 m 558 780 l 451 801 l 481 1045 l 627 1006 l 558 780 m 345 797 l 236 813 l 241 1061 l 390 1032 l 345 797 z "},"ō":{"ha":815,"x_min":60,"x_max":754,"o":"m 409 -22 q 234 17 314 -22 q 107 136 155 56 q 60 340 60 217 q 107 549 60 468 q 234 668 155 629 q 409 706 314 706 q 581 668 502 706 q 707 549 659 629 q 754 340 754 468 q 707 136 754 217 q 581 17 659 56 q 409 -22 502 -22 m 401 172 q 463 188 433 172 q 513 242 493 205 q 533 340 533 279 q 499 474 533 435 q 417 513 465 513 q 354 497 385 513 q 302 442 322 480 q 281 340 281 404 q 317 210 281 248 q 401 172 353 172 m 143 992 l 672 992 l 672 812 l 143 812 l 143 992 z "},"ø":{"ha":815,"x_min":60,"x_max":775,"o":"m 60 0 l 631 687 l 775 687 l 202 0 l 60 0 m 409 -22 q 234 17 314 -22 q 107 136 155 56 q 60 340 60 217 q 107 549 60 468 q 234 668 155 629 q 409 706 314 706 q 581 668 502 706 q 707 549 659 629 q 754 340 754 468 q 707 136 754 217 q 581 17 659 56 q 409 -22 502 -22 m 401 172 q 463 188 433 172 q 513 242 493 205 q 533 340 533 279 q 499 474 533 435 q 417 513 465 513 q 354 497 385 513 q 302 442 322 480 q 281 340 281 404 q 317 210 281 248 q 401 172 353 172 z "},"œ":{"ha":1181,"x_min":60,"x_max":1128,"o":"m 392 -22 q 226 17 301 -22 q 105 136 151 56 q 60 340 60 217 q 105 549 60 468 q 226 668 151 629 q 392 706 301 706 q 556 668 481 706 q 676 549 631 629 q 721 340 721 468 q 676 136 721 217 q 556 17 631 56 q 392 -22 481 -22 m 385 172 q 444 188 415 172 q 492 242 473 205 q 510 340 510 279 q 478 474 510 435 q 400 513 446 513 q 340 497 369 513 q 290 442 310 480 q 271 340 271 404 q 305 210 271 248 q 385 172 339 172 m 826 -22 q 673 22 744 -22 q 556 149 601 67 q 511 345 511 232 q 556 539 511 458 q 672 663 600 620 q 826 706 744 706 q 969 672 908 706 q 1068 579 1031 638 q 1117 448 1105 521 q 1112 297 1128 374 l 678 297 l 678 409 l 957 409 l 926 388 q 925 438 928 413 q 911 484 922 463 q 880 518 900 505 q 831 531 860 531 q 772 514 797 531 q 734 464 747 497 q 720 385 720 432 l 720 298 q 732 222 720 254 q 767 173 744 190 q 826 155 791 155 q 877 167 856 155 q 908 207 899 180 l 1118 207 q 1070 91 1108 143 q 969 8 1031 39 q 826 -22 907 -22 z "},"þ":{"ha":833,"x_min":117,"x_max":826,"o":"m 493 -22 q 367 8 417 -22 q 291 104 316 39 q 265 274 265 169 l 340 274 q 356 225 340 246 q 399 192 372 204 q 458 181 426 181 q 523 197 490 181 q 580 248 557 213 q 603 342 603 283 q 586 428 603 391 q 537 485 569 465 q 462 505 506 505 q 399 490 426 505 q 355 449 371 476 q 340 386 340 422 l 265 386 q 299 573 265 503 q 388 675 333 643 q 504 706 442 706 q 660 663 586 706 q 780 539 733 620 q 826 342 826 458 q 779 145 826 226 q 656 21 732 64 q 493 -22 580 -22 m 117 -332 l 117 932 l 340 932 l 340 -332 l 117 -332 z "},"ŕ":{"ha":590,"x_min":117,"x_max":623,"o":"m 117 0 l 117 688 l 340 688 l 340 0 l 117 0 m 292 292 q 328 521 292 431 q 417 653 363 610 q 528 697 472 697 q 550 695 539 697 q 571 692 561 694 l 573 469 q 538 472 556 471 q 503 473 519 473 q 418 455 455 473 q 360 397 381 437 q 340 292 340 358 l 292 292 m 295 769 l 191 856 l 478 1130 l 623 1013 l 295 769 z "},"ř":{"ha":590,"x_min":76,"x_max":628,"o":"m 117 0 l 117 688 l 340 688 l 340 0 l 117 0 m 292 292 q 328 521 292 431 q 417 653 363 610 q 528 697 472 697 q 550 695 539 697 q 571 692 561 694 l 573 469 q 538 472 556 471 q 503 473 519 473 q 418 455 455 473 q 360 397 381 437 q 340 292 340 358 l 292 292 m 351 782 l 76 990 l 205 1092 l 391 918 l 312 918 l 498 1092 l 628 990 l 351 782 z "},"ŗ":{"ha":590,"x_min":117,"x_max":573,"o":"m 117 0 l 117 688 l 340 688 l 340 0 l 117 0 m 292 292 q 328 521 292 431 q 417 653 363 610 q 528 697 472 697 q 550 695 539 697 q 571 692 561 694 l 573 469 q 538 472 556 471 q 503 473 519 473 q 418 455 455 473 q 360 397 381 437 q 340 292 340 358 l 292 292 m 352 -319 l 263 -272 q 320 -236 294 -256 q 357 -192 347 -216 q 312 -167 330 -185 q 296 -121 294 -149 q 324 -69 298 -90 q 387 -48 350 -48 q 457 -80 433 -48 q 476 -155 480 -112 q 439 -249 474 -204 q 352 -319 405 -294 z "},"ś":{"ha":735,"x_min":50,"x_max":683,"o":"m 382 -22 q 209 4 284 -22 q 92 82 134 30 q 51 215 50 135 l 251 215 q 280 165 253 178 q 352 151 306 151 q 398 158 380 151 q 425 176 416 165 q 434 201 434 188 q 422 228 434 218 q 383 249 409 239 l 217 314 q 103 391 143 344 q 63 503 63 438 q 147 650 63 594 q 377 706 231 706 q 588 642 514 706 q 662 480 661 578 l 458 480 q 440 518 458 502 q 377 535 421 535 q 320 523 341 535 q 299 492 299 511 q 343 450 299 465 l 532 374 q 642 305 602 347 q 683 201 683 263 q 643 93 683 144 q 536 10 604 42 q 382 -22 468 -22 m 319 769 l 215 856 l 503 1130 l 647 1013 l 319 769 z "},"š":{"ha":735,"x_min":50,"x_max":683,"o":"m 382 -22 q 209 4 284 -22 q 92 82 134 30 q 51 215 50 135 l 251 215 q 280 165 253 178 q 352 151 306 151 q 398 158 380 151 q 425 176 416 165 q 434 201 434 188 q 422 228 434 218 q 383 249 409 239 l 217 314 q 103 391 143 344 q 63 503 63 438 q 147 650 63 594 q 377 706 231 706 q 588 642 514 706 q 662 480 661 578 l 458 480 q 440 518 458 502 q 377 535 421 535 q 320 523 341 535 q 299 492 299 511 q 343 450 299 465 l 532 374 q 642 305 602 347 q 683 201 683 263 q 643 93 683 144 q 536 10 604 42 q 382 -22 468 -22 m 376 782 l 101 990 l 229 1092 l 415 918 l 336 918 l 522 1092 l 653 990 l 376 782 z "},"ş":{"ha":735,"x_min":50,"x_max":683,"o":"m 382 -22 q 209 4 284 -22 q 92 82 134 30 q 51 215 50 135 l 251 215 q 280 165 253 178 q 352 151 306 151 q 398 158 380 151 q 425 176 416 165 q 434 201 434 188 q 422 228 434 218 q 383 249 409 239 l 217 314 q 103 391 143 344 q 63 503 63 438 q 147 650 63 594 q 377 706 231 706 q 588 642 514 706 q 662 480 661 578 l 458 480 q 440 518 458 502 q 377 535 421 535 q 320 523 341 535 q 299 492 299 511 q 343 450 299 465 l 532 374 q 642 305 602 347 q 683 201 683 263 q 643 93 683 144 q 536 10 604 42 q 382 -22 468 -22 m 224 -262 l 251 -192 q 326 -211 294 -209 q 377 -203 358 -213 q 398 -173 396 -192 q 389 -147 399 -158 q 355 -124 379 -135 q 286 -103 330 -113 l 346 73 l 428 58 l 377 -99 l 359 -54 q 472 -83 431 -61 q 529 -132 513 -104 q 543 -188 545 -160 q 508 -254 540 -228 q 427 -289 476 -279 q 325 -292 378 -299 q 224 -262 271 -285 z "},"ș":{"ha":735,"x_min":50,"x_max":683,"o":"m 382 -22 q 209 4 284 -22 q 92 82 134 30 q 51 215 50 135 l 251 215 q 280 165 253 178 q 352 151 306 151 q 398 158 380 151 q 425 176 416 165 q 434 201 434 188 q 422 228 434 218 q 383 249 409 239 l 217 314 q 103 391 143 344 q 63 503 63 438 q 147 650 63 594 q 377 706 231 706 q 588 642 514 706 q 662 480 661 578 l 458 480 q 440 518 458 502 q 377 535 421 535 q 320 523 341 535 q 299 492 299 511 q 343 450 299 465 l 532 374 q 642 305 602 347 q 683 201 683 263 q 643 93 683 144 q 536 10 604 42 q 382 -22 468 -22 m 336 -318 l 247 -270 q 304 -235 278 -255 q 341 -191 331 -215 q 296 -166 314 -184 q 280 -119 278 -148 q 308 -67 282 -88 q 371 -47 334 -47 q 441 -78 417 -47 q 460 -153 464 -110 q 423 -248 458 -203 q 336 -318 389 -293 z "},"ß":{"ha":952,"x_min":117,"x_max":899,"o":"m 784 747 q 768 664 784 698 q 732 606 753 631 q 695 562 711 582 q 680 522 680 542 q 702 478 680 497 q 757 439 724 459 q 822 392 790 419 q 877 326 855 365 q 899 230 899 287 q 855 95 899 151 q 741 10 810 39 q 599 -19 672 -19 q 514 -10 560 -19 q 428 18 468 -1 l 428 189 q 503 149 473 161 q 567 138 533 138 q 617 146 599 138 q 643 170 635 154 q 651 209 651 186 q 632 280 651 251 q 584 330 613 308 q 528 373 556 352 q 480 420 499 394 q 461 483 461 447 q 480 548 461 521 q 523 598 498 574 q 566 647 547 621 q 584 708 584 673 q 547 777 584 757 q 463 797 510 797 q 366 753 389 797 q 344 618 344 710 l 344 0 l 117 0 l 117 624 q 161 821 117 744 q 285 935 206 898 q 470 972 365 972 q 633 946 562 972 q 744 870 703 920 q 784 747 784 819 z "},"ŧ":{"ha":575,"x_min":42,"x_max":533,"o":"m 42 315 l 42 464 l 492 464 l 492 315 l 42 315 m 370 -22 q 248 1 305 -22 q 157 75 192 25 q 123 205 123 126 l 123 857 l 347 857 l 347 213 q 408 151 347 151 q 450 155 428 151 q 501 170 472 160 l 533 15 q 452 -11 491 0 q 370 -22 414 -22 m 42 540 l 42 684 l 502 684 l 502 540 l 42 540 z "},"ť":{"ha":575,"x_min":42,"x_max":604,"o":"m 370 -22 q 248 1 305 -22 q 157 75 192 25 q 123 205 123 126 l 123 857 l 347 857 l 347 213 q 408 151 347 151 q 450 155 428 151 q 501 170 472 160 l 533 15 q 452 -11 491 0 q 370 -22 414 -22 m 42 540 l 42 684 l 502 684 l 502 540 l 42 540 m 491 762 l 398 810 q 453 845 428 825 q 487 889 478 865 q 440 914 459 896 q 421 960 421 932 q 445 1013 421 992 q 506 1033 469 1033 q 578 1001 553 1033 q 604 926 604 969 q 573 832 604 877 q 491 762 542 787 z "},"ţ":{"ha":575,"x_min":42,"x_max":533,"o":"m 370 -22 q 248 1 305 -22 q 157 75 192 25 q 123 205 123 126 l 123 857 l 347 857 l 347 213 q 408 151 347 151 q 450 155 428 151 q 501 170 472 160 l 533 15 q 452 -11 491 0 q 370 -22 414 -22 m 42 540 l 42 684 l 502 684 l 502 540 l 42 540 m 170 -256 l 197 -186 q 272 -206 240 -203 q 323 -197 303 -208 q 344 -167 342 -187 q 335 -141 345 -153 q 300 -118 325 -129 q 232 -98 276 -108 l 292 78 l 374 63 l 323 -93 l 305 -49 q 418 -77 377 -56 q 475 -127 458 -99 q 489 -183 491 -155 q 454 -248 486 -223 q 373 -283 422 -274 q 270 -286 324 -293 q 170 -256 217 -280 z "},"ț":{"ha":575,"x_min":42,"x_max":533,"o":"m 370 -22 q 248 1 305 -22 q 157 75 192 25 q 123 205 123 126 l 123 857 l 347 857 l 347 213 q 408 151 347 151 q 450 155 428 151 q 501 170 472 160 l 533 15 q 452 -11 491 0 q 370 -22 414 -22 m 42 540 l 42 684 l 502 684 l 502 540 l 42 540 m 282 -312 l 192 -265 q 250 -229 224 -249 q 287 -185 276 -209 q 242 -160 260 -178 q 226 -114 224 -142 q 254 -62 228 -83 q 317 -41 280 -41 q 386 -73 363 -41 q 406 -148 410 -105 q 369 -242 403 -197 q 282 -312 335 -287 z "},"ŭ":{"ha":902,"x_min":110,"x_max":785,"o":"m 563 688 l 785 688 l 785 0 l 563 0 l 563 688 m 110 688 l 332 688 l 332 274 q 356 205 332 227 q 417 182 380 182 q 485 199 451 182 q 541 256 519 215 q 563 367 563 296 l 612 367 q 581 148 612 231 q 495 26 549 64 q 374 -12 442 -12 q 244 11 305 -12 q 147 92 184 35 q 110 249 110 149 l 110 688 m 460 813 q 278 878 343 813 q 213 1072 213 944 l 383 1072 q 402 983 383 1012 q 460 955 422 955 q 518 983 499 955 q 538 1072 538 1012 l 708 1072 q 643 878 708 944 q 460 813 578 813 z "},"ű":{"ha":902,"x_min":110,"x_max":785,"o":"m 563 688 l 785 688 l 785 0 l 563 0 l 563 688 m 110 688 l 332 688 l 332 274 q 356 205 332 227 q 417 182 380 182 q 485 199 451 182 q 541 256 519 215 q 563 367 563 296 l 612 367 q 581 148 612 231 q 495 26 549 64 q 374 -12 442 -12 q 244 11 305 -12 q 147 92 184 35 q 110 249 110 149 l 110 688 m 610 780 l 504 801 l 533 1045 l 680 1006 l 610 780 m 398 797 l 289 813 l 294 1061 l 443 1032 l 398 797 z "},"ū":{"ha":902,"x_min":110,"x_max":785,"o":"m 563 688 l 785 688 l 785 0 l 563 0 l 563 688 m 110 688 l 332 688 l 332 274 q 356 205 332 227 q 417 182 380 182 q 485 199 451 182 q 541 256 519 215 q 563 367 563 296 l 612 367 q 581 148 612 231 q 495 26 549 64 q 374 -12 442 -12 q 244 11 305 -12 q 147 92 184 35 q 110 249 110 149 l 110 688 m 196 992 l 725 992 l 725 812 l 196 812 l 196 992 z "},"ų":{"ha":902,"x_min":110,"x_max":878,"o":"m 563 688 l 785 688 l 785 0 l 563 0 l 563 688 m 110 688 l 332 688 l 332 274 q 356 205 332 227 q 417 182 380 182 q 485 199 451 182 q 541 256 519 215 q 563 367 563 296 l 612 367 q 581 148 612 231 q 495 26 549 64 q 374 -12 442 -12 q 244 11 305 -12 q 147 92 184 35 q 110 249 110 149 l 110 688 m 878 -221 q 785 -257 831 -244 q 692 -269 739 -269 q 556 -233 612 -269 q 499 -128 499 -197 q 526 -40 499 -83 q 603 27 553 3 l 785 0 q 682 -40 720 -17 q 643 -92 643 -62 q 664 -121 643 -115 q 704 -128 684 -128 q 759 -119 732 -128 q 828 -90 786 -110 l 878 -221 z "},"ů":{"ha":902,"x_min":110,"x_max":785,"o":"m 563 688 l 785 688 l 785 0 l 563 0 l 563 688 m 110 688 l 332 688 l 332 274 q 356 205 332 227 q 417 182 380 182 q 485 199 451 182 q 541 256 519 215 q 563 367 563 296 l 612 367 q 581 148 612 231 q 495 26 549 64 q 374 -12 442 -12 q 244 11 305 -12 q 147 92 184 35 q 110 249 110 149 l 110 688 m 462 754 q 365 780 409 754 q 295 850 322 806 q 269 947 269 894 q 295 1043 269 999 q 365 1113 322 1087 q 462 1139 409 1139 q 558 1113 515 1139 q 628 1043 602 1087 q 654 947 654 999 q 628 850 654 894 q 558 780 602 806 q 462 754 515 754 m 462 897 q 497 911 483 897 q 512 947 512 926 q 497 982 512 967 q 462 997 483 997 q 426 982 441 997 q 412 947 412 967 q 426 911 412 926 q 462 897 441 897 z "},"ẃ":{"ha":1101,"x_min":8,"x_max":1092,"o":"m 8 684 l 240 684 l 361 218 l 342 218 l 450 643 l 660 643 l 769 217 l 749 217 l 869 684 l 1092 684 l 865 0 l 646 0 l 533 402 l 567 402 l 458 0 l 236 0 l 8 684 m 502 769 l 398 856 l 685 1130 l 830 1013 l 502 769 z "},"ŵ":{"ha":1101,"x_min":8,"x_max":1092,"o":"m 8 684 l 240 684 l 361 218 l 342 218 l 450 643 l 660 643 l 769 217 l 749 217 l 869 684 l 1092 684 l 865 0 l 646 0 l 533 402 l 567 402 l 458 0 l 236 0 l 8 684 m 403 778 l 275 881 l 550 1089 l 827 881 l 697 778 l 510 925 l 590 925 l 403 778 z "},"ẅ":{"ha":1101,"x_min":8,"x_max":1092,"o":"m 8 684 l 240 684 l 361 218 l 342 218 l 450 643 l 660 643 l 769 217 l 749 217 l 869 684 l 1092 684 l 865 0 l 646 0 l 533 402 l 567 402 l 458 0 l 236 0 l 8 684 m 701 796 q 614 829 650 796 q 578 913 578 862 q 614 996 578 963 q 701 1028 650 1028 q 791 996 756 1028 q 826 913 826 963 q 791 829 826 862 q 701 796 756 796 m 399 796 q 309 829 344 796 q 275 911 275 862 q 309 995 275 963 q 399 1027 344 1027 q 489 995 453 1027 q 524 911 524 963 q 489 829 524 862 q 399 796 453 796 z "},"ẁ":{"ha":1101,"x_min":8,"x_max":1092,"o":"m 8 684 l 240 684 l 361 218 l 342 218 l 450 643 l 660 643 l 769 217 l 749 217 l 869 684 l 1092 684 l 865 0 l 646 0 l 533 402 l 567 402 l 458 0 l 236 0 l 8 684 m 658 769 l 330 1013 l 474 1130 l 762 856 l 658 769 z "},"ý":{"ha":755,"x_min":9,"x_max":747,"o":"m 22 684 l 276 684 l 417 194 l 383 194 l 522 684 l 747 684 l 481 -110 q 368 -303 432 -251 q 218 -356 303 -356 q 114 -347 166 -356 q 9 -316 61 -337 l 9 -125 q 85 -152 48 -143 q 158 -162 122 -162 q 202 -153 181 -162 q 240 -123 223 -144 q 269 -64 258 -101 l 292 0 l 22 684 m 329 769 l 225 856 l 513 1130 l 657 1013 l 329 769 z "},"ŷ":{"ha":755,"x_min":9,"x_max":747,"o":"m 22 684 l 276 684 l 417 194 l 383 194 l 522 684 l 747 684 l 481 -110 q 368 -303 432 -251 q 218 -356 303 -356 q 114 -347 166 -356 q 9 -316 61 -337 l 9 -125 q 85 -152 48 -143 q 158 -162 122 -162 q 202 -153 181 -162 q 240 -123 223 -144 q 269 -64 258 -101 l 292 0 l 22 684 m 231 778 l 102 881 l 377 1089 l 654 881 l 524 778 l 338 925 l 417 925 l 231 778 z "},"ÿ":{"ha":755,"x_min":9,"x_max":747,"o":"m 22 684 l 276 684 l 417 194 l 383 194 l 522 684 l 747 684 l 481 -110 q 368 -303 432 -251 q 218 -356 303 -356 q 114 -347 166 -356 q 9 -316 61 -337 l 9 -125 q 85 -152 48 -143 q 158 -162 122 -162 q 202 -153 181 -162 q 240 -123 223 -144 q 269 -64 258 -101 l 292 0 l 22 684 m 528 796 q 441 829 477 796 q 406 913 406 862 q 441 996 406 963 q 528 1028 477 1028 q 618 996 583 1028 q 653 913 653 963 q 618 829 653 862 q 528 796 583 796 m 226 796 q 136 829 171 796 q 102 911 102 862 q 136 995 102 963 q 226 1027 171 1027 q 316 995 281 1027 q 351 911 351 963 q 316 829 351 862 q 226 796 281 796 z "},"ỳ":{"ha":755,"x_min":9,"x_max":747,"o":"m 22 684 l 276 684 l 417 194 l 383 194 l 522 684 l 747 684 l 481 -110 q 368 -303 432 -251 q 218 -356 303 -356 q 114 -347 166 -356 q 9 -316 61 -337 l 9 -125 q 85 -152 48 -143 q 158 -162 122 -162 q 202 -153 181 -162 q 240 -123 223 -144 q 269 -64 258 -101 l 292 0 l 22 684 m 485 769 l 157 1013 l 301 1130 l 589 856 l 485 769 z "},"ź":{"ha":717,"x_min":85,"x_max":638,"o":"m 85 0 l 85 181 l 391 505 l 85 505 l 85 684 l 633 684 l 633 505 l 344 181 l 633 181 l 633 0 l 85 0 m 310 769 l 206 856 l 494 1130 l 638 1013 l 310 769 z "},"ž":{"ha":717,"x_min":85,"x_max":644,"o":"m 85 0 l 85 181 l 391 505 l 85 505 l 85 684 l 633 684 l 633 505 l 344 181 l 633 181 l 633 0 l 85 0 m 367 782 l 92 990 l 220 1092 l 406 918 l 327 918 l 513 1092 l 644 990 l 367 782 z "},"ż":{"ha":717,"x_min":85,"x_max":633,"o":"m 85 0 l 85 181 l 391 505 l 85 505 l 85 684 l 633 684 l 633 505 l 344 181 l 633 181 l 633 0 l 85 0 m 359 806 q 258 844 297 806 q 219 940 219 882 q 258 1037 219 998 q 359 1076 297 1076 q 462 1037 421 1076 q 503 940 503 999 q 462 844 503 881 q 359 806 421 806 z "},"ﬁ":{"ha":1047,"x_min":68,"x_max":929,"o":"m 159 0 l 159 744 q 191 874 159 824 q 274 948 223 924 q 383 971 326 971 q 465 966 422 971 q 547 955 508 960 l 503 786 q 473 793 490 790 q 440 797 457 797 q 411 790 424 797 q 392 771 399 784 q 385 740 385 758 l 385 0 l 159 0 m 68 540 l 68 684 l 494 684 l 494 540 l 68 540 m 797 772 q 700 805 734 772 q 665 896 665 837 q 700 988 665 953 q 797 1022 734 1022 q 894 988 858 1022 q 929 896 929 953 q 894 805 929 837 q 797 772 858 772 m 686 0 l 686 688 l 908 688 l 908 0 l 686 0 z "},"ﬂ":{"ha":1006,"x_min":68,"x_max":887,"o":"m 159 0 l 159 744 q 191 874 159 824 q 274 948 223 924 q 383 971 326 971 q 465 966 422 971 q 547 955 508 960 l 503 786 q 473 793 490 790 q 440 797 457 797 q 411 790 424 797 q 392 771 399 784 q 385 740 385 758 l 385 0 l 159 0 m 68 540 l 68 684 l 494 684 l 494 540 l 68 540 m 665 0 l 665 958 l 887 958 l 887 0 l 665 0 z "},"ª":{"ha":863,"x_min":69,"x_max":760,"o":"m 566 0 l 538 183 l 538 439 q 519 519 538 490 q 439 547 500 547 q 380 536 403 547 q 347 508 358 526 q 336 469 336 490 l 96 469 q 134 602 96 550 q 249 681 172 655 q 439 706 325 706 q 610 676 538 706 q 721 584 682 645 q 760 431 760 523 l 760 0 l 566 0 m 351 -22 q 196 9 259 -22 q 101 92 133 40 q 69 209 69 145 q 103 314 69 269 q 202 382 136 358 q 363 406 267 406 q 466 400 422 406 q 558 385 511 394 l 558 260 q 486 272 524 267 q 414 276 449 276 q 336 260 365 276 q 307 209 307 244 q 333 164 307 183 q 414 145 358 145 q 488 164 461 145 q 526 211 515 183 q 538 267 538 240 l 590 267 q 565 122 590 188 q 487 17 540 56 q 351 -22 434 -22 z "},"º":{"ha":815,"x_min":60,"x_max":754,"o":"m 409 -22 q 234 17 314 -22 q 107 136 155 56 q 60 340 60 217 q 107 549 60 468 q 234 668 155 629 q 409 706 314 706 q 581 668 502 706 q 707 549 659 629 q 754 340 754 468 q 707 136 754 217 q 581 17 659 56 q 409 -22 502 -22 m 401 172 q 463 188 433 172 q 513 242 493 205 q 533 340 533 279 q 499 474 533 435 q 417 513 465 513 q 354 497 385 513 q 302 442 322 480 q 281 340 281 404 q 317 210 281 248 q 401 172 353 172 z "},"Δ":{"ha":943,"x_min":25,"x_max":918,"o":"m 25 0 l 339 932 l 622 932 l 918 0 l 684 0 l 477 669 l 261 0 l 25 0 m 142 0 l 142 196 l 765 196 l 765 0 l 142 0 z "},"Ω":{"ha":1002,"x_min":60,"x_max":943,"o":"m 430 44 q 290 72 357 44 q 172 152 224 99 q 90 285 119 206 q 60 469 60 364 q 115 741 60 633 q 268 900 169 848 q 500 953 367 953 q 734 898 634 953 q 888 735 833 843 q 943 469 943 628 q 913 282 943 362 q 831 149 883 202 q 711 70 778 97 q 570 44 644 44 l 570 140 q 633 181 600 140 q 690 296 667 222 q 714 470 714 370 q 656 677 714 601 q 500 753 597 753 q 347 677 406 753 q 289 469 289 601 q 313 295 289 369 q 369 181 336 222 q 430 140 402 140 l 430 44 m 60 0 l 60 140 l 430 140 l 430 0 l 60 0 m 570 0 l 570 140 l 940 140 l 940 0 l 570 0 z "},"μ":{"ha":902,"x_min":110,"x_max":785,"o":"m 563 688 l 785 688 l 785 0 l 563 0 l 563 108 q 482 16 531 45 q 374 -12 433 -12 q 332 -10 353 -12 l 332 -270 l 110 -270 l 110 688 l 332 688 l 332 274 q 356 205 332 227 q 417 182 380 182 q 485 199 451 182 q 541 256 519 215 q 563 367 563 296 l 563 688 z "},"π":{"ha":894,"x_min":21,"x_max":878,"o":"m 767 0 q 623 40 679 0 q 541 149 567 79 q 515 308 515 218 l 515 685 l 738 685 l 738 308 q 765 227 738 253 q 828 201 791 201 l 767 0 m 159 0 l 159 684 l 381 684 l 381 0 l 159 0 m 21 491 l 21 687 l 878 687 l 878 491 l 21 491 z "},"⁄":{"ha":412,"x_min":-208,"x_max":619,"o":"m -208 -19 l 431 951 l 619 951 l -23 -19 l -208 -19 z "},"½":{"ha":1447,"x_min":49,"x_max":1328,"o":"m 172 983 l 269 983 l 269 417 l 135 417 l 135 822 q 91 813 112 816 q 49 810 70 809 l 49 937 q 109 950 80 940 q 172 983 138 960 m 181 -19 l 819 951 l 1007 951 l 365 -19 l 181 -19 m 878 0 l 878 109 q 907 218 878 177 q 1005 285 935 260 l 1124 330 q 1171 360 1156 342 q 1185 401 1185 377 q 1168 441 1185 424 q 1116 458 1151 458 q 1061 439 1084 458 q 1035 384 1038 419 l 887 384 q 917 492 886 450 q 1000 554 949 534 q 1113 574 1052 574 q 1222 553 1173 574 q 1299 491 1270 531 q 1328 397 1328 451 q 1293 289 1328 333 q 1172 213 1258 246 l 1053 169 q 1020 151 1029 160 q 1011 128 1011 142 l 1011 122 l 1327 122 l 1327 0 l 878 0 z "},"¼":{"ha":1453,"x_min":49,"x_max":1335,"o":"m 172 983 l 269 983 l 269 417 l 135 417 l 135 822 q 91 813 112 816 q 49 810 70 809 l 49 937 q 109 950 80 940 q 172 983 138 960 m 181 -19 l 819 951 l 1007 951 l 365 -19 l 181 -19 m 1106 565 l 1237 565 l 1237 228 l 1335 228 l 1335 113 l 1237 113 l 1237 0 l 1103 0 l 1103 113 l 825 113 l 825 213 l 1106 565 m 1111 374 l 983 213 l 1111 213 l 1111 374 z "},"¾":{"ha":1592,"x_min":51,"x_max":1537,"o":"m 297 394 q 178 416 234 394 q 86 482 122 438 q 51 589 51 525 l 193 589 q 223 537 197 558 q 297 516 249 516 q 365 534 340 516 q 390 581 390 553 q 368 625 390 611 q 304 638 345 638 l 219 638 l 219 743 l 302 743 q 355 760 336 743 q 373 804 373 776 q 355 845 373 828 q 297 861 338 861 q 233 847 260 861 q 199 799 205 832 l 58 799 q 129 938 65 893 q 290 982 192 982 q 453 938 389 982 q 517 822 517 894 q 495 748 517 781 q 431 702 474 716 q 507 649 479 683 q 535 568 535 615 q 468 443 535 491 q 297 394 401 394 m 383 -19 l 1022 951 l 1209 951 l 567 -19 l 383 -19 m 1308 565 l 1439 565 l 1439 228 l 1537 228 l 1537 113 l 1439 113 l 1439 0 l 1306 0 l 1306 113 l 1027 113 l 1027 213 l 1308 565 m 1313 374 l 1185 213 l 1313 213 l 1313 374 z "},"⅛":{"ha":1476,"x_min":49,"x_max":1357,"o":"m 172 983 l 269 983 l 269 417 l 135 417 l 135 822 q 91 813 112 816 q 49 810 70 809 l 49 937 q 109 950 80 940 q 172 983 138 960 m 181 -19 l 819 951 l 1007 951 l 365 -19 l 181 -19 m 1108 -22 q 925 25 990 -22 q 859 143 859 72 q 903 229 859 199 q 1012 260 948 260 q 1054 255 1035 260 q 1101 244 1073 251 l 1101 214 q 1027 198 1058 214 q 997 158 997 183 q 1030 116 997 133 q 1108 99 1063 99 q 1195 111 1170 99 q 1219 140 1219 124 q 1209 165 1219 153 q 1180 184 1199 176 l 1015 248 q 953 281 985 260 q 900 333 922 302 q 878 408 878 365 q 938 524 878 483 q 1108 565 997 565 q 1223 544 1171 565 q 1307 485 1276 523 q 1338 399 1338 448 q 1299 320 1338 354 q 1191 285 1259 285 q 1154 290 1171 285 q 1115 301 1138 294 l 1115 337 q 1173 351 1146 337 q 1201 389 1201 365 q 1175 431 1201 417 q 1108 444 1149 444 q 1042 433 1069 444 q 1015 401 1015 422 q 1025 380 1015 389 q 1053 361 1034 370 l 1228 292 q 1324 237 1290 268 q 1357 149 1357 206 q 1292 26 1357 75 q 1108 -22 1227 -22 z "},"⅜":{"ha":1615,"x_min":51,"x_max":1559,"o":"m 297 394 q 178 416 234 394 q 86 482 122 438 q 51 589 51 525 l 193 589 q 223 537 197 558 q 297 516 249 516 q 365 534 340 516 q 390 581 390 553 q 368 625 390 611 q 304 638 345 638 l 219 638 l 219 743 l 302 743 q 355 760 336 743 q 373 804 373 776 q 355 845 373 828 q 297 861 338 861 q 233 847 260 861 q 199 799 205 832 l 58 799 q 129 938 65 893 q 290 982 192 982 q 453 938 389 982 q 517 822 517 894 q 495 748 517 781 q 431 702 474 716 q 507 649 479 683 q 535 568 535 615 q 468 443 535 491 q 297 394 401 394 m 383 -19 l 1022 951 l 1209 951 l 567 -19 l 383 -19 m 1310 -22 q 1127 25 1192 -22 q 1061 143 1061 72 q 1106 229 1061 199 q 1214 260 1150 260 q 1256 255 1238 260 q 1303 244 1275 251 l 1303 214 q 1229 198 1260 214 q 1199 158 1199 183 q 1232 116 1199 133 q 1310 99 1265 99 q 1397 111 1372 99 q 1422 140 1422 124 q 1411 165 1422 153 q 1382 184 1401 176 l 1217 248 q 1155 281 1187 260 q 1102 333 1124 302 q 1081 408 1081 365 q 1140 524 1081 483 q 1310 565 1199 565 q 1425 544 1373 565 q 1509 485 1478 523 q 1540 399 1540 448 q 1501 320 1540 354 q 1393 285 1461 285 q 1356 290 1373 285 q 1317 301 1340 294 l 1317 337 q 1375 351 1348 337 q 1403 389 1403 365 q 1377 431 1403 417 q 1310 444 1351 444 q 1244 433 1272 444 q 1217 401 1217 422 q 1227 380 1217 389 q 1256 361 1236 370 l 1431 292 q 1526 237 1492 268 q 1559 149 1559 206 q 1494 26 1559 75 q 1310 -22 1429 -22 z "},"⅝":{"ha":1542,"x_min":67,"x_max":1510,"o":"m 288 394 q 172 417 221 394 q 96 483 123 440 q 67 587 69 526 l 204 587 q 228 533 204 551 q 288 516 252 516 q 348 540 323 516 q 374 600 374 565 q 281 665 374 665 l 89 665 l 117 969 l 478 969 l 478 847 l 224 847 l 249 881 l 235 742 l 227 753 q 277 760 247 758 q 326 763 307 763 q 459 720 409 763 q 510 600 510 676 q 482 497 510 543 q 404 422 453 450 q 288 394 354 394 m 334 -19 l 973 951 l 1160 951 l 519 -19 l 334 -19 m 1261 -22 q 1078 25 1144 -22 q 1013 143 1013 72 q 1057 229 1013 199 q 1165 260 1101 260 q 1208 255 1189 260 q 1254 244 1226 251 l 1254 214 q 1181 198 1211 214 q 1150 158 1150 183 q 1183 116 1150 133 q 1261 99 1217 99 q 1348 111 1324 99 q 1373 140 1373 124 q 1363 165 1373 153 q 1333 184 1352 176 l 1168 248 q 1107 281 1138 260 q 1053 333 1075 302 q 1032 408 1032 365 q 1091 524 1032 483 q 1261 565 1151 565 q 1377 544 1324 565 q 1460 485 1429 523 q 1492 399 1492 448 q 1452 320 1492 354 q 1344 285 1413 285 q 1308 290 1324 285 q 1268 301 1291 294 l 1268 337 q 1327 351 1299 337 q 1354 389 1354 365 q 1328 431 1354 417 q 1261 444 1302 444 q 1196 433 1223 444 q 1169 401 1169 422 q 1178 380 1169 389 q 1207 361 1188 370 l 1382 292 q 1477 237 1444 268 q 1510 149 1510 206 q 1445 26 1510 75 q 1261 -22 1381 -22 z "},"⅞":{"ha":1457,"x_min":33,"x_max":1433,"o":"m 37 417 l 282 847 l 33 847 l 33 978 l 440 978 l 440 847 l 218 417 l 37 417 m 256 -19 l 895 951 l 1083 951 l 441 -19 l 256 -19 m 1183 -22 q 1000 25 1066 -22 q 935 143 935 72 q 979 229 935 199 q 1088 260 1024 260 q 1130 255 1111 260 q 1176 244 1149 251 l 1176 214 q 1103 198 1133 214 q 1072 158 1072 183 q 1106 116 1072 133 q 1183 99 1139 99 q 1270 111 1246 99 q 1295 140 1295 124 q 1285 165 1295 153 q 1256 184 1274 176 l 1090 248 q 1029 281 1060 260 q 976 333 997 302 q 954 408 954 365 q 1014 524 954 483 q 1183 565 1073 565 q 1299 544 1247 565 q 1383 485 1351 523 q 1414 399 1414 448 q 1374 320 1414 354 q 1267 285 1335 285 q 1230 290 1247 285 q 1190 301 1213 294 l 1190 337 q 1249 351 1222 337 q 1276 389 1276 365 q 1250 431 1276 417 q 1183 444 1224 444 q 1118 433 1145 444 q 1091 401 1091 422 q 1100 380 1091 389 q 1129 361 1110 370 l 1304 292 q 1399 237 1366 268 q 1433 149 1433 206 q 1368 26 1433 75 q 1183 -22 1303 -22 z "},"₀":{"ha":629,"x_min":60,"x_max":570,"o":"m 316 -22 q 132 52 203 -22 q 60 282 60 127 q 132 513 60 439 q 316 588 203 588 q 498 513 426 588 q 570 282 570 439 q 498 52 570 127 q 316 -22 426 -22 m 316 104 q 397 149 366 104 q 427 282 427 194 q 397 416 427 371 q 316 462 366 462 q 233 416 263 462 q 203 282 203 371 q 233 149 203 194 q 316 104 263 104 z "},"₁":{"ha":388,"x_min":49,"x_max":269,"o":"m 172 567 l 269 567 l 269 0 l 135 0 l 135 406 q 91 396 112 399 q 49 393 70 392 l 49 520 q 109 533 80 523 q 172 567 138 544 z "},"₂":{"ha":581,"x_min":78,"x_max":529,"o":"m 78 0 l 78 109 q 107 218 78 177 q 206 285 136 260 l 324 330 q 372 360 357 342 q 386 401 386 377 q 369 441 386 424 q 317 458 351 458 q 262 439 285 458 q 235 384 239 419 l 88 384 q 118 492 87 450 q 201 554 149 534 q 314 574 253 574 q 422 553 374 574 q 500 491 471 531 q 529 397 529 451 q 493 289 529 333 q 373 213 458 246 l 254 169 q 221 151 230 160 q 212 128 212 142 l 212 122 l 527 122 l 527 0 l 78 0 z "},"₃":{"ha":590,"x_min":51,"x_max":535,"o":"m 297 -22 q 178 0 234 -22 q 86 65 122 22 q 51 172 51 108 l 193 172 q 223 120 197 142 q 297 99 249 99 q 365 118 340 99 q 390 165 390 136 q 368 208 390 194 q 304 222 345 222 l 219 222 l 219 326 l 302 326 q 354 343 335 326 q 373 387 373 360 q 355 428 373 412 q 297 444 338 444 q 233 430 260 444 q 199 383 205 415 l 58 383 q 129 521 65 476 q 290 565 192 565 q 453 521 389 565 q 517 405 517 477 q 495 331 517 363 q 431 285 474 299 q 507 232 479 265 q 535 151 535 199 q 468 26 535 74 q 297 -22 401 -22 z "},"₄":{"ha":543,"x_min":25,"x_max":534,"o":"m 305 565 l 436 565 l 436 228 l 534 228 l 534 113 l 436 113 l 436 0 l 303 0 l 303 113 l 25 113 l 25 213 l 305 565 m 311 374 l 183 213 l 311 213 l 311 374 z "},"₅":{"ha":542,"x_min":67,"x_max":510,"o":"m 289 -22 q 172 1 221 -22 q 96 67 123 24 q 67 170 69 110 l 205 170 q 229 117 205 134 q 289 99 253 99 q 349 124 324 99 q 374 183 374 148 q 281 248 374 248 l 90 248 l 117 552 l 478 552 l 478 429 l 224 429 l 250 464 l 236 326 l 228 337 q 278 344 248 341 q 327 347 308 347 q 460 303 410 347 q 510 183 510 260 q 482 80 510 126 q 405 6 454 33 q 289 -22 355 -22 z "},"₆":{"ha":584,"x_min":60,"x_max":528,"o":"m 311 -22 q 181 14 238 -22 q 92 114 124 50 q 60 262 60 178 q 131 487 60 409 q 313 565 201 565 q 463 516 404 565 q 521 386 521 467 l 379 386 q 361 428 376 413 q 317 444 346 444 q 226 393 260 444 q 192 255 192 342 q 193 237 192 246 q 194 219 194 228 q 228 293 205 266 q 283 331 251 319 q 349 342 315 342 q 480 290 431 342 q 528 160 528 239 q 468 28 528 78 q 311 -22 408 -22 m 311 99 q 367 118 342 99 q 391 167 391 138 q 367 218 391 200 q 311 235 342 235 q 258 218 281 235 q 235 167 235 200 q 258 118 235 138 q 311 99 281 99 z "},"₇":{"ha":464,"x_min":33,"x_max":440,"o":"m 37 0 l 282 431 l 33 431 l 33 561 l 440 561 l 440 431 l 218 0 l 37 0 z "},"₈":{"ha":616,"x_min":59,"x_max":558,"o":"m 308 -22 q 125 25 191 -22 q 59 143 59 72 q 104 229 59 199 q 213 260 149 260 q 255 255 236 260 q 301 243 274 251 l 301 214 q 227 198 258 214 q 197 158 197 182 q 231 116 197 132 q 308 99 264 99 q 395 111 371 99 q 420 140 420 124 q 410 164 420 153 q 380 184 399 175 l 215 248 q 153 281 185 260 q 101 333 122 301 q 79 407 79 365 q 139 524 79 482 q 308 565 198 565 q 424 544 372 565 q 508 485 476 523 q 539 399 539 448 q 499 320 539 354 q 392 285 460 285 q 355 289 372 285 q 315 301 338 293 l 315 337 q 374 351 347 337 q 401 389 401 365 q 375 430 401 416 q 308 444 349 444 q 243 433 270 444 q 216 401 216 422 q 225 379 216 388 q 253 361 234 370 l 429 292 q 524 237 491 268 q 558 149 558 206 q 493 26 558 75 q 308 -22 428 -22 z "},"₉":{"ha":582,"x_min":55,"x_max":522,"o":"m 281 -22 q 172 0 221 -22 q 93 63 122 22 q 63 157 63 103 l 203 157 q 227 115 206 131 q 276 99 249 99 q 365 152 339 99 q 390 287 390 204 q 390 305 390 295 q 388 323 390 314 q 328 227 372 253 q 234 202 284 202 q 103 252 152 202 q 55 381 55 302 q 115 515 55 464 q 269 565 175 565 q 396 529 339 565 q 488 428 453 493 q 522 279 522 364 q 461 60 522 142 q 281 -22 399 -22 m 270 308 q 324 325 301 308 q 348 374 348 343 q 324 424 348 405 q 269 442 300 442 q 216 424 239 442 q 192 374 192 405 q 216 325 192 342 q 270 308 240 308 z "},"⁰":{"ha":629,"x_min":60,"x_max":570,"o":"m 316 344 q 183 377 241 344 q 92 477 125 410 q 60 648 60 544 q 92 820 60 752 q 183 920 125 888 q 316 953 241 953 q 447 920 389 953 q 537 820 504 888 q 570 648 570 752 q 537 477 570 544 q 447 377 504 410 q 316 344 389 344 m 316 470 q 397 515 366 470 q 427 648 427 560 q 397 782 427 736 q 316 828 366 828 q 233 782 263 828 q 203 648 203 736 q 233 515 203 560 q 316 470 263 470 z "},"¹":{"ha":388,"x_min":49,"x_max":269,"o":"m 172 940 l 269 940 l 269 374 l 135 374 l 135 779 q 91 769 112 773 q 49 767 70 766 l 49 894 q 109 907 80 897 q 172 940 138 917 z "},"²":{"ha":581,"x_min":78,"x_max":529,"o":"m 78 378 l 78 488 q 91 566 78 533 q 131 623 103 599 q 206 664 159 647 l 324 708 q 372 738 357 721 q 386 780 386 756 q 368 819 386 802 q 317 837 351 837 q 261 817 285 837 q 235 763 238 798 l 88 763 q 118 870 87 828 q 201 932 149 913 q 314 952 253 952 q 422 931 373 952 q 500 869 471 909 q 529 776 529 830 q 514 699 529 733 q 464 639 498 665 q 373 592 429 613 l 254 547 q 221 530 230 538 q 212 507 212 521 l 212 501 l 527 501 l 527 378 l 78 378 z "},"³":{"ha":590,"x_min":51,"x_max":535,"o":"m 297 365 q 206 377 249 365 q 127 414 162 390 q 71 475 92 439 q 51 560 51 511 l 193 560 q 208 523 196 539 q 243 497 221 506 q 297 487 265 487 q 365 505 339 487 q 390 552 390 524 q 380 584 390 572 q 351 603 370 597 q 304 609 331 609 l 219 609 l 219 714 l 302 714 q 354 731 335 714 q 373 774 373 747 q 355 815 373 799 q 297 831 338 831 q 233 817 260 831 q 199 770 205 802 l 58 770 q 93 873 63 833 q 174 933 124 913 q 290 952 225 952 q 407 932 356 952 q 488 876 458 913 q 517 792 517 840 q 495 719 517 751 q 431 672 474 687 q 507 619 479 653 q 535 539 535 585 q 504 448 535 488 q 420 387 474 409 q 297 365 366 365 z "},"⁴":{"ha":543,"x_min":25,"x_max":534,"o":"m 305 939 l 436 939 l 436 601 l 534 601 l 534 486 l 436 486 l 436 374 l 303 374 l 303 486 l 25 486 l 25 586 l 305 939 m 311 747 l 183 586 l 311 586 l 311 747 z "},"⁵":{"ha":542,"x_min":67,"x_max":510,"o":"m 289 358 q 172 380 221 358 q 97 446 124 403 q 67 550 69 489 l 205 550 q 229 497 205 514 q 289 479 253 479 q 349 503 324 479 q 374 563 374 528 q 281 628 374 628 l 90 628 l 117 932 l 478 932 l 478 809 l 224 809 l 250 844 l 236 706 l 228 717 q 277 724 247 721 q 327 726 307 726 q 460 683 410 726 q 510 563 510 640 q 482 459 510 506 q 404 385 454 413 q 289 358 354 358 z "},"⁶":{"ha":583,"x_min":60,"x_max":528,"o":"m 311 365 q 181 401 238 365 q 92 502 124 438 q 60 649 60 566 q 92 815 60 748 q 181 917 124 883 q 313 952 238 952 q 420 930 374 952 q 494 868 467 908 q 521 774 521 828 l 379 774 q 361 816 376 801 q 317 831 345 831 q 226 780 260 831 q 192 642 192 729 q 193 624 192 633 q 194 606 194 615 q 228 680 205 653 q 283 718 251 707 q 349 729 315 729 q 444 706 403 729 q 506 641 484 682 q 528 548 528 600 q 501 452 528 493 q 425 388 474 411 q 311 365 376 365 m 311 487 q 367 506 342 487 q 391 555 391 525 q 367 605 391 587 q 311 623 342 623 q 274 615 291 623 q 245 592 256 607 q 235 555 235 576 q 258 506 235 525 q 311 487 281 487 z "},"⁷":{"ha":464,"x_min":33,"x_max":440,"o":"m 37 371 l 282 801 l 33 801 l 33 932 l 440 932 l 440 801 l 218 371 l 37 371 z "},"⁸":{"ha":616,"x_min":59,"x_max":558,"o":"m 308 365 q 174 387 230 365 q 89 446 119 408 q 59 531 59 483 q 80 593 59 567 q 135 633 100 619 q 213 647 169 647 q 255 643 236 647 q 301 631 274 638 l 301 601 q 249 594 272 601 q 211 574 225 587 q 197 545 197 562 q 213 515 197 528 q 253 494 228 502 q 308 487 278 487 q 395 499 371 487 q 420 528 420 511 q 410 552 420 541 q 380 572 399 563 l 215 635 q 153 668 185 647 q 101 720 122 689 q 79 794 79 752 q 106 880 79 844 q 183 934 132 915 q 308 952 235 952 q 424 931 372 952 q 508 873 476 910 q 539 786 539 835 q 521 731 539 756 q 470 689 503 705 q 392 673 437 673 q 355 677 372 673 q 315 688 338 681 l 315 724 q 355 731 335 724 q 388 749 375 737 q 401 776 401 760 q 389 807 401 794 q 356 825 377 819 q 308 831 335 831 q 262 826 283 831 q 228 811 241 821 q 216 789 216 802 q 225 767 216 776 q 253 749 234 758 l 429 680 q 524 624 491 655 q 558 536 558 593 q 528 448 558 487 q 443 388 499 410 q 308 365 388 365 z "},"⁹":{"ha":582,"x_min":55,"x_max":522,"o":"m 281 365 q 171 388 221 365 q 92 450 122 410 q 63 544 63 490 l 203 544 q 227 502 205 518 q 276 487 249 487 q 343 511 318 487 q 379 577 368 535 q 390 674 390 619 q 390 692 390 683 q 388 710 390 702 q 353 637 377 663 q 299 600 330 610 q 234 590 267 590 q 139 612 179 590 q 77 675 99 635 q 55 769 55 716 q 82 865 55 824 q 158 929 110 906 q 269 952 206 952 q 367 932 321 952 q 448 873 413 911 q 502 783 483 835 q 522 667 522 731 q 495 507 522 575 q 414 402 467 440 q 281 365 360 365 m 270 695 q 308 703 290 695 q 337 726 326 711 q 348 761 348 740 q 324 811 348 792 q 269 830 300 830 q 216 811 239 830 q 192 761 192 792 q 216 713 192 730 q 270 695 240 695 z "},"…":{"ha":1086,"x_min":24,"x_max":1059,"o":"m 24 129 q 66 232 24 191 q 173 273 107 273 q 282 232 239 273 q 325 129 325 191 q 282 27 325 67 q 173 -12 239 -12 q 66 28 107 -12 q 24 129 24 68 m 399 129 q 441 232 399 191 q 548 273 482 273 q 657 232 614 273 q 700 129 700 191 q 657 27 700 67 q 548 -12 614 -12 q 441 28 482 -12 q 399 129 399 68 m 758 129 q 800 232 758 191 q 907 273 841 273 q 1016 232 973 273 q 1059 129 1059 191 q 1016 27 1059 67 q 907 -12 973 -12 q 800 28 841 -12 q 758 129 758 68 z "},"¡":{"ha":430,"x_min":74,"x_max":374,"o":"m 123 592 l 319 592 l 344 -17 l 101 -17 l 123 592 m 223 971 q 331 931 288 971 q 374 828 374 891 q 331 726 374 767 q 223 685 288 685 q 116 726 157 685 q 74 828 74 767 q 116 931 74 891 q 223 971 157 971 z "},"¿":{"ha":745,"x_min":24,"x_max":722,"o":"m 506 630 l 506 581 q 491 482 506 521 q 444 419 476 444 q 365 372 413 394 q 304 336 324 353 q 277 305 283 320 q 270 272 270 290 q 296 218 270 240 q 367 197 322 197 q 460 228 427 197 q 492 305 494 259 l 722 305 q 628 80 717 163 q 378 -4 540 -4 q 191 32 270 -4 q 68 130 111 67 q 24 272 24 192 q 61 397 24 346 q 172 483 98 449 q 239 521 215 503 q 273 559 263 539 q 282 606 282 579 l 282 630 l 506 630 m 388 971 q 495 931 455 971 q 536 831 536 890 q 495 729 536 769 q 388 689 455 689 q 278 729 321 689 q 236 831 236 769 q 278 931 236 890 q 388 971 321 971 z "},"·":{"ha":352,"x_min":24,"x_max":325,"o":"m 24 386 q 66 489 24 448 q 173 530 107 530 q 282 489 239 530 q 325 386 325 448 q 282 284 325 324 q 173 244 239 244 q 66 285 107 244 q 24 386 24 325 z "},"•":{"ha":521,"x_min":24,"x_max":494,"o":"m 24 414 q 89 574 24 510 q 256 638 153 638 q 426 574 359 638 q 494 414 494 510 q 426 255 494 317 q 256 192 359 192 q 89 255 153 192 q 24 414 24 317 z "},"‚":{"ha":453,"x_min":50,"x_max":408,"o":"m 212 -228 l 50 -145 q 146 -84 103 -119 q 204 -7 190 -49 q 123 36 157 5 q 90 117 90 67 q 132 208 90 172 q 239 244 174 244 q 364 189 319 244 q 408 58 408 133 q 354 -107 408 -28 q 212 -228 300 -185 z "},"„":{"ha":834,"x_min":50,"x_max":790,"o":"m 593 -228 l 431 -145 q 527 -84 484 -119 q 585 -7 571 -49 q 505 36 538 5 q 471 117 471 67 q 513 208 471 172 q 620 244 556 244 q 745 189 701 244 q 790 58 790 133 q 735 -107 790 -28 q 593 -228 681 -185 m 212 -228 l 50 -145 q 146 -84 103 -119 q 204 -7 190 -49 q 123 36 157 5 q 90 117 90 67 q 132 208 90 172 q 239 244 174 244 q 364 189 319 244 q 408 58 408 133 q 354 -107 408 -28 q 212 -228 300 -185 z "},"“":{"ha":813,"x_min":50,"x_max":768,"o":"m 581 468 q 490 495 528 468 q 431 567 451 523 q 410 660 410 610 q 469 824 410 748 q 617 944 528 899 l 768 856 q 674 799 716 833 q 613 719 631 765 q 695 680 660 710 q 729 599 729 649 q 687 506 729 544 q 581 468 644 468 m 220 468 q 129 495 167 468 q 70 567 91 523 q 50 660 50 610 q 109 824 50 748 q 256 944 168 899 l 408 856 q 313 799 356 833 q 253 719 271 765 q 334 680 300 710 q 369 599 369 649 q 326 506 369 544 q 220 468 284 468 z "},"”":{"ha":802,"x_min":50,"x_max":758,"o":"m 553 468 l 401 556 q 497 615 453 580 q 558 694 541 649 q 474 735 507 703 q 442 815 442 766 q 485 908 442 872 q 590 944 528 944 q 681 917 644 944 q 738 845 719 890 q 758 751 758 801 q 699 588 758 663 q 553 468 640 513 m 202 468 l 50 556 q 147 615 103 580 q 207 694 190 649 q 124 735 156 703 q 91 815 91 766 q 134 908 91 872 q 240 944 178 944 q 331 917 293 944 q 388 845 368 890 q 407 751 407 801 q 348 588 407 663 q 202 468 289 513 z "},"«":{"ha":940,"x_min":60,"x_max":879,"o":"m 350 81 l 60 382 l 350 683 l 490 567 l 267 358 l 267 406 l 490 197 l 350 81 m 739 81 l 449 382 l 739 683 l 879 567 l 656 358 l 656 406 l 879 197 l 739 81 z "},"»":{"ha":940,"x_min":60,"x_max":879,"o":"m 589 81 l 449 197 l 672 406 l 672 358 l 449 567 l 589 683 l 879 382 l 589 81 m 200 81 l 60 197 l 283 406 l 283 358 l 60 567 l 200 683 l 490 382 l 200 81 z "},"‹":{"ha":551,"x_min":60,"x_max":490,"o":"m 350 81 l 60 382 l 350 683 l 490 567 l 267 358 l 267 406 l 490 197 l 350 81 z "},"›":{"ha":551,"x_min":60,"x_max":490,"o":"m 200 81 l 60 197 l 283 406 l 283 358 l 60 567 l 200 683 l 490 382 l 200 81 z "},"ƒ":{"ha":549,"x_min":-91,"x_max":549,"o":"m 20 540 l 30 684 l 456 684 l 446 540 l 20 540 m -91 -317 l -35 -149 q -6 -156 -22 -152 q 27 -159 10 -159 q 57 -152 44 -159 q 77 -133 69 -146 q 87 -102 85 -121 l 146 744 q 187 874 151 824 q 275 948 222 924 q 385 971 328 971 q 467 966 424 971 q 549 955 510 960 l 493 786 q 464 793 480 790 q 431 797 447 797 q 401 790 414 797 q 380 771 388 784 q 371 740 372 758 l 312 -106 q 271 -236 306 -186 q 183 -310 235 -287 q 72 -333 130 -333 q -9 -328 34 -333 q -91 -317 -52 -323 z "},"¶":{"ha":833,"x_min":22,"x_max":757,"o":"m 372 319 q 116 397 210 319 q 22 627 22 476 q 116 855 22 778 q 372 932 210 932 l 734 932 l 734 731 l 485 731 l 485 319 l 372 319 m 367 -175 l 367 932 l 528 932 l 528 -175 l 367 -175 m 596 -175 l 596 932 l 757 932 l 757 -175 l 596 -175 z "},"§":{"ha":833,"x_min":71,"x_max":760,"o":"m 430 359 q 476 366 458 359 q 503 384 494 373 q 512 410 512 396 q 499 437 512 426 q 460 458 487 447 l 294 522 q 182 598 222 551 q 141 709 141 646 q 225 858 141 802 q 447 915 309 915 q 667 850 596 915 q 740 688 738 785 l 536 688 q 517 727 536 710 q 455 743 499 743 q 398 731 419 743 q 377 699 377 719 q 421 658 377 676 l 610 583 q 720 513 680 555 q 760 412 760 472 q 721 301 760 353 q 614 218 682 249 q 460 186 546 186 l 430 359 m 399 489 q 342 476 363 489 q 322 442 322 463 q 365 401 322 419 l 554 326 q 665 256 624 298 q 705 154 705 215 q 667 44 705 96 q 558 -39 629 -7 q 388 -71 488 -71 q 231 -45 304 -71 q 115 34 158 -19 q 73 166 71 86 l 274 166 q 302 116 274 130 q 369 102 330 102 q 436 117 417 102 q 456 152 456 132 q 445 179 456 168 q 405 201 433 190 l 239 265 q 125 342 165 294 q 85 455 85 390 q 169 604 85 551 q 399 656 253 656 l 399 489 z "},"©":{"ha":1017,"x_min":33,"x_max":984,"o":"m 509 -9 q 324 28 410 -9 q 173 131 238 65 q 70 282 108 196 q 33 467 33 368 q 70 651 33 565 q 173 802 108 737 q 324 905 238 868 q 509 942 410 942 q 693 905 607 942 q 845 802 779 868 q 947 651 910 737 q 984 467 984 565 q 947 282 984 368 q 845 131 910 196 q 693 28 779 65 q 509 -9 607 -9 m 509 99 q 652 127 585 99 q 769 207 718 156 q 848 324 819 257 q 876 467 876 391 q 848 609 876 543 q 769 726 819 676 q 652 806 718 777 q 509 834 585 834 q 366 806 433 834 q 249 726 299 777 q 170 609 199 676 q 141 467 141 543 q 170 324 141 391 q 249 207 199 257 q 366 127 299 156 q 509 99 433 99 m 508 176 q 380 209 435 176 q 293 306 324 242 q 263 466 263 371 q 293 626 263 562 q 380 724 324 691 q 508 756 435 756 q 667 707 613 756 q 733 578 722 657 l 592 553 q 563 613 583 590 q 508 636 542 636 q 454 618 477 636 q 418 562 431 599 q 405 466 405 524 q 418 372 405 409 q 455 316 431 335 q 508 298 478 298 q 571 320 550 298 q 592 375 592 343 l 731 375 q 674 227 731 278 q 508 176 616 176 z "},"®":{"ha":1017,"x_min":33,"x_max":984,"o":"m 509 -9 q 324 28 410 -9 q 173 131 238 65 q 70 282 108 196 q 33 467 33 368 q 70 651 33 565 q 173 802 108 737 q 324 905 238 868 q 509 942 410 942 q 693 905 607 942 q 845 802 779 868 q 947 651 910 737 q 984 467 984 565 q 947 282 984 368 q 845 131 910 196 q 693 28 779 65 q 509 -9 607 -9 m 509 99 q 652 127 585 99 q 769 207 718 156 q 848 324 819 257 q 876 467 876 391 q 848 609 876 543 q 769 726 819 676 q 652 806 718 777 q 509 834 585 834 q 366 806 433 834 q 249 726 299 777 q 170 609 199 676 q 141 467 141 543 q 170 324 141 391 q 249 207 199 257 q 366 127 299 156 q 509 99 433 99 m 588 213 l 460 465 l 592 465 l 750 213 l 588 213 m 315 213 l 315 735 l 519 735 q 671 691 617 735 q 726 570 726 646 q 671 452 726 497 q 519 407 617 407 l 440 407 l 440 213 l 315 213 m 440 488 l 505 488 q 574 507 551 488 q 597 556 597 526 q 578 608 597 588 q 519 628 558 628 l 440 628 l 440 488 z "},"™":{"ha":1019,"x_min":5,"x_max":959,"o":"m 5 1057 l 5 1153 l 389 1153 l 389 1057 l 228 1057 l 253 1082 l 253 687 l 142 687 l 142 1082 l 167 1057 l 5 1057 m 450 1153 l 609 1153 l 712 904 l 703 904 l 806 1153 l 959 1153 l 959 687 l 847 687 l 847 1019 l 863 1019 l 743 731 l 671 731 l 552 1018 l 561 1018 l 561 687 l 450 687 l 450 1153 z "},"°":{"ha":609,"x_min":71,"x_max":538,"o":"m 305 685 q 187 716 240 685 q 102 801 134 748 q 71 919 71 854 q 102 1036 71 983 q 187 1120 134 1089 q 305 1152 240 1152 q 422 1120 369 1152 q 507 1036 475 1089 q 538 919 538 983 q 507 801 538 854 q 422 716 475 748 q 305 685 369 685 m 305 828 q 368 855 342 828 q 394 919 394 881 q 368 982 394 956 q 305 1008 342 1008 q 241 982 267 1008 q 215 919 215 956 q 241 855 215 881 q 305 828 267 828 z "},"¦":{"ha":458,"x_min":117,"x_max":340,"o":"m 117 550 l 117 1099 l 340 1099 l 340 550 l 117 550 m 117 -169 l 117 378 l 340 378 l 340 -169 l 117 -169 z "},"†":{"ha":761,"x_min":69,"x_max":692,"o":"m 268 -175 l 244 932 l 517 932 l 491 -175 l 268 -175 m 69 526 l 69 685 l 381 698 l 692 685 l 692 526 l 381 513 l 69 526 z "},"‡":{"ha":761,"x_min":69,"x_max":692,"o":"m 268 -175 l 244 932 l 517 932 l 491 -175 l 268 -175 m 69 526 l 69 685 l 381 698 l 692 685 l 692 526 l 381 513 l 69 526 m 69 249 l 69 408 l 381 420 l 692 408 l 692 249 l 381 235 l 69 249 z "},"¢":{"ha":758,"x_min":60,"x_max":697,"o":"m 301 -154 l 301 47 l 479 47 l 479 -154 l 301 -154 m 301 651 l 301 839 l 479 839 l 479 651 l 301 651 m 397 -22 q 230 23 307 -22 q 107 150 153 68 q 60 342 60 232 q 107 543 60 462 q 230 665 153 624 q 397 706 307 706 q 529 681 472 706 q 623 613 585 655 q 679 522 660 572 q 697 424 697 472 l 475 426 q 451 480 470 456 q 395 505 432 505 q 340 490 366 505 q 298 440 314 475 q 281 342 281 404 q 298 245 281 281 q 340 195 314 210 q 395 181 366 181 q 459 202 442 181 q 475 258 475 224 l 697 258 q 665 120 697 184 q 566 17 632 56 q 397 -22 499 -22 z "},"¤":{"ha":833,"x_min":69,"x_max":765,"o":"m 417 143 q 262 184 332 143 q 151 295 192 226 q 109 449 109 365 q 151 605 109 535 q 262 716 192 674 q 417 758 332 758 q 572 716 502 758 q 682 605 641 674 q 723 449 723 535 q 682 295 723 365 q 572 184 641 226 q 417 143 502 143 m 417 335 q 475 351 449 335 q 517 392 501 367 q 532 449 532 418 q 517 508 532 482 q 475 550 501 535 q 417 565 449 565 q 359 550 385 565 q 317 508 333 535 q 301 449 301 482 q 317 392 301 418 q 359 351 333 367 q 417 335 385 335 m 580 528 l 496 613 l 681 798 l 765 716 l 580 528 m 240 541 l 69 714 l 151 798 l 323 625 l 240 541 m 593 358 l 765 185 l 682 102 l 510 274 l 593 358 m 240 358 l 323 274 l 151 102 l 69 185 l 240 358 z "},"€":{"ha":910,"x_min":19,"x_max":878,"o":"m 498 -22 q 284 33 376 -22 q 140 196 192 88 q 88 465 88 304 q 139 734 88 626 q 284 898 191 842 q 498 953 376 953 q 768 869 675 953 q 878 653 861 786 l 642 613 q 591 711 626 672 q 498 751 557 751 q 409 720 448 751 q 348 626 370 689 q 326 465 326 563 q 348 306 326 369 q 409 213 370 243 q 498 182 447 182 q 606 220 570 182 q 642 312 642 258 l 877 312 q 833 130 877 204 q 705 16 790 55 q 498 -22 621 -22 m 19 317 l 19 437 l 531 437 l 531 317 l 19 317 m 19 483 l 19 603 l 531 603 l 531 483 l 19 483 z "},"₨":{"ha":873,"x_min":102,"x_max":815,"o":"m 102 814 l 102 932 l 815 932 l 815 814 l 102 814 m 102 577 l 102 697 l 815 697 l 815 577 l 102 577 m 102 460 l 295 460 l 745 0 l 436 0 l 102 340 l 102 460 m 174 460 l 210 460 q 375 510 325 460 q 426 635 426 560 q 375 763 426 712 q 210 814 325 814 l 174 814 l 174 897 l 210 897 q 459 865 358 897 q 613 774 560 833 q 665 635 665 715 q 620 483 665 549 q 476 378 576 416 q 210 340 376 340 l 174 340 l 174 460 z "},"¥":{"ha":870,"x_min":7,"x_max":863,"o":"m 315 0 l 315 387 l 7 932 l 268 932 l 447 583 l 411 583 l 602 932 l 863 932 l 536 387 l 536 0 l 315 0 m 178 94 l 178 211 l 679 211 l 679 94 l 178 94 m 178 255 l 178 372 l 679 372 l 679 255 l 178 255 z "},"∕":{"ha":412,"x_min":-208,"x_max":619,"o":"m -208 -19 l 431 951 l 619 951 l -23 -19 l -208 -19 z "},"×":{"ha":764,"x_min":61,"x_max":703,"o":"m 219 48 l 61 207 l 224 369 l 61 530 l 219 689 l 381 526 l 544 689 l 703 530 l 538 369 l 703 207 l 544 48 l 381 211 l 219 48 z "},"÷":{"ha":764,"x_min":84,"x_max":680,"o":"m 84 254 l 84 451 l 680 451 l 680 254 l 84 254 m 380 -22 q 295 10 328 -22 q 261 92 261 42 q 295 172 261 141 q 380 203 328 203 q 468 172 433 203 q 503 92 503 141 q 468 10 503 42 q 380 -22 433 -22 m 380 501 q 295 533 328 501 q 261 615 261 564 q 295 695 261 662 q 380 728 328 728 q 468 695 433 728 q 503 615 503 662 q 468 533 503 564 q 380 501 433 501 z "},"≠":{"ha":764,"x_min":84,"x_max":680,"o":"m 204 19 l 435 716 l 572 716 l 343 19 l 204 19 m 84 101 l 84 297 l 680 297 l 680 101 l 84 101 m 84 420 l 84 617 l 680 617 l 680 420 l 84 420 z "},"≥":{"ha":764,"x_min":111,"x_max":653,"o":"m 149 216 l 111 394 l 537 512 l 537 433 l 111 549 l 149 731 l 653 554 l 653 390 l 149 216 m 138 0 l 138 166 l 649 166 l 649 0 l 138 0 z "},"≤":{"ha":764,"x_min":111,"x_max":653,"o":"m 617 216 l 111 390 l 111 554 l 617 731 l 653 549 l 228 433 l 228 512 l 653 394 l 617 216 m 116 0 l 116 166 l 627 166 l 627 0 l 116 0 z "},"±":{"ha":764,"x_min":126,"x_max":638,"o":"m 298 797 l 465 797 l 465 604 l 636 604 l 636 465 l 465 465 l 465 274 l 298 274 l 298 465 l 126 465 l 126 604 l 298 604 l 298 797 m 126 166 l 638 166 l 638 0 l 126 0 l 126 166 z "},"≈":{"ha":764,"x_min":51,"x_max":713,"o":"m 162 365 l 51 425 q 122 588 76 527 q 250 649 167 649 q 319 639 283 649 q 401 612 356 629 q 468 588 442 597 q 515 579 494 579 q 565 596 544 579 q 601 649 585 613 l 713 578 q 630 433 684 485 q 501 382 576 382 q 441 391 471 382 q 362 417 411 400 q 331 429 352 422 q 288 442 310 436 q 247 448 265 448 q 198 427 219 448 q 162 365 176 406 m 162 51 l 51 110 q 122 273 76 213 q 250 334 167 334 q 319 324 283 334 q 401 297 356 315 q 468 273 442 282 q 515 265 494 265 q 565 282 544 265 q 601 334 585 299 l 713 264 q 630 119 684 170 q 501 67 576 67 q 441 76 471 67 q 362 103 411 85 q 331 114 352 107 q 288 127 310 122 q 247 133 265 133 q 198 113 219 133 q 162 51 176 92 z "},"¬":{"ha":764,"x_min":126,"x_max":638,"o":"m 126 499 l 638 499 l 638 210 l 499 210 l 499 375 l 540 333 l 126 333 l 126 499 z "},"∞":{"ha":937,"x_min":25,"x_max":912,"o":"m 256 134 q 152 158 206 134 q 62 232 99 182 q 25 360 25 282 q 62 489 25 439 q 152 563 99 539 q 256 587 206 587 q 335 572 293 587 q 419 522 377 558 q 494 425 460 487 l 441 425 q 518 522 476 487 q 602 572 559 558 q 681 587 644 587 q 785 563 732 587 q 875 489 838 539 q 912 360 912 439 q 875 232 912 282 q 785 158 838 182 q 681 134 732 134 q 602 149 644 134 q 518 199 560 163 q 442 296 477 234 l 496 296 q 419 199 461 234 q 335 149 378 163 q 256 134 293 134 m 293 279 q 372 308 331 279 q 453 401 413 336 l 453 319 q 372 414 413 385 q 293 442 331 442 q 254 435 277 442 q 214 412 231 429 q 197 360 197 394 q 214 309 197 327 q 254 285 231 292 q 293 279 277 279 m 644 279 q 683 285 660 279 q 723 309 706 292 q 740 360 740 327 q 723 412 740 394 q 683 435 706 429 q 644 442 660 442 q 566 414 606 442 q 484 319 525 385 l 484 401 q 566 308 525 336 q 644 279 606 279 z "},"∅":{"ha":833,"x_min":49,"x_max":784,"o":"m 125 22 l 49 98 l 708 757 l 784 681 l 125 22 m 417 60 q 251 105 326 60 q 132 224 176 149 q 88 390 88 299 q 132 556 88 481 q 251 675 176 631 q 417 719 326 719 q 583 675 508 719 q 702 556 658 631 q 747 390 747 481 q 702 224 747 299 q 583 105 658 149 q 417 60 508 60 m 417 191 q 517 218 472 191 q 589 290 562 245 q 616 390 616 335 q 589 490 616 445 q 517 562 562 535 q 417 589 472 589 q 317 562 363 589 q 245 490 272 535 q 218 390 218 445 q 245 290 218 335 q 317 218 272 245 q 417 191 363 191 z "},"∫":{"ha":690,"x_min":25,"x_max":665,"o":"m 25 -317 l 81 -149 q 110 -156 94 -152 q 143 -159 126 -159 q 173 -152 160 -159 q 193 -133 185 -146 q 203 -102 201 -121 l 262 744 q 303 874 267 824 q 391 948 338 924 q 501 971 444 971 q 583 966 540 971 q 665 955 626 960 l 609 786 q 580 793 596 790 q 547 797 563 797 q 517 790 530 797 q 496 771 504 784 q 487 740 488 758 l 428 -106 q 387 -236 422 -186 q 299 -310 351 -287 q 188 -333 246 -333 q 107 -328 150 -333 q 25 -317 64 -323 z "},"∏":{"ha":909,"x_min":117,"x_max":791,"o":"m 117 -332 l 117 932 l 791 932 l 791 -332 l 569 -332 l 569 786 l 619 736 l 290 736 l 340 786 l 340 -332 l 117 -332 z "},"∑":{"ha":794,"x_min":60,"x_max":733,"o":"m 407 300 l 60 736 l 60 932 l 733 932 l 733 736 l 121 736 l 261 786 l 650 300 l 407 300 m 407 300 l 650 300 l 261 -186 l 121 -136 l 733 -136 l 733 -332 l 60 -332 l 60 -136 l 407 300 z "},"√":{"ha":918,"x_min":7,"x_max":911,"o":"m 309 1 l 134 351 l 214 258 l 69 176 l 7 303 l 289 470 l 463 126 l 362 126 l 734 1170 l 911 1170 l 479 1 l 309 1 z "},"µ":{"ha":902,"x_min":110,"x_max":785,"o":"m 563 688 l 785 688 l 785 0 l 563 0 l 563 108 q 482 16 531 45 q 374 -12 433 -12 q 332 -10 353 -12 l 332 -270 l 110 -270 l 110 688 l 332 688 l 332 274 q 356 205 332 227 q 417 182 380 182 q 485 199 451 182 q 541 256 519 215 q 563 367 563 296 l 563 688 z "},"∂":{"ha":796,"x_min":59,"x_max":771,"o":"m 385 -22 q 222 24 296 -22 q 103 153 148 70 q 59 348 59 237 q 100 535 59 455 q 208 661 140 616 q 356 706 276 706 q 501 657 442 706 q 590 528 560 608 q 620 356 620 448 l 558 356 q 536 439 557 406 q 483 489 515 472 q 415 505 451 505 q 343 484 374 505 q 297 427 313 463 q 281 344 281 391 q 298 261 281 298 q 345 202 315 224 q 416 181 375 181 q 491 203 460 181 q 539 263 522 226 q 557 340 556 299 q 552 524 558 437 q 516 696 546 611 q 417 870 486 781 q 225 1060 349 960 l 420 1178 q 599 971 530 1071 q 706 780 668 871 q 757 610 743 689 q 771 465 771 531 q 737 250 771 341 q 647 98 703 158 q 522 8 590 38 q 385 -22 453 -22 z "},"‰":{"ha":1550,"x_min":60,"x_max":1491,"o":"m 1286 -17 q 1186 7 1232 -17 q 1112 81 1140 31 q 1084 206 1084 131 q 1112 333 1084 283 q 1186 407 1140 383 q 1286 431 1232 431 q 1388 407 1341 431 q 1463 333 1434 383 q 1491 206 1491 283 q 1463 81 1491 131 q 1388 7 1434 31 q 1286 -17 1341 -17 m 1286 121 q 1317 138 1306 121 q 1329 206 1329 156 q 1317 275 1329 257 q 1286 294 1306 294 q 1255 275 1267 294 q 1244 206 1244 257 q 1255 138 1244 156 q 1286 121 1267 121 m 115 0 l 751 932 l 972 932 l 338 0 l 115 0 m 828 -17 q 727 7 774 -17 q 653 81 681 31 q 626 206 626 131 q 653 333 626 283 q 727 407 681 383 q 828 431 774 431 q 929 407 883 431 q 1004 333 976 383 q 1033 206 1033 283 q 1004 81 1033 131 q 929 7 976 31 q 828 -17 883 -17 m 828 121 q 859 138 847 121 q 871 206 871 156 q 859 275 871 257 q 828 294 847 294 q 797 275 808 294 q 785 206 785 257 q 797 138 785 156 q 828 121 808 121 m 262 508 q 161 532 208 508 q 88 606 115 556 q 60 732 60 656 q 88 856 60 807 q 161 929 115 905 q 262 953 208 953 q 365 929 318 953 q 439 856 411 905 q 467 732 467 807 q 439 606 467 656 q 365 532 411 556 q 262 508 318 508 m 262 644 q 294 662 282 644 q 306 732 306 680 q 294 798 306 781 q 262 815 282 815 q 231 798 242 815 q 220 732 220 781 q 231 662 220 680 q 262 644 242 644 z "},"◊":{"ha":919,"x_min":60,"x_max":860,"o":"m 60 466 l 369 932 l 551 932 l 860 466 l 551 -1 l 369 -1 l 60 466 m 276 424 l 276 508 l 488 188 l 433 188 l 642 508 l 642 424 l 433 744 l 488 744 l 276 424 z "},"̈":{"ha":0,"x_min":60,"x_max":611,"o":"m 486 796 q 399 829 435 796 q 363 913 363 862 q 399 996 363 963 q 486 1028 435 1028 q 576 996 541 1028 q 611 913 611 963 q 576 829 611 862 q 486 796 541 796 m 183 796 q 94 829 128 796 q 60 911 60 862 q 94 995 60 963 q 183 1027 128 1027 q 273 995 238 1027 q 308 911 308 963 q 273 829 308 862 q 183 796 238 796 z "},"̇":{"ha":0,"x_min":60,"x_max":344,"o":"m 200 806 q 99 844 138 806 q 60 940 60 882 q 99 1037 60 998 q 200 1076 138 1076 q 303 1037 262 1076 q 344 940 344 999 q 303 844 344 881 q 200 806 262 806 z "},"̀":{"ha":0,"x_min":63,"x_max":494,"o":"m 390 769 l 63 1013 l 207 1130 l 494 856 l 390 769 z "},"́":{"ha":0,"x_min":60,"x_max":492,"o":"m 164 769 l 60 856 l 347 1130 l 492 1013 l 164 769 z "},"̋":{"ha":0,"x_min":60,"x_max":451,"o":"m 381 780 l 275 801 l 304 1045 l 451 1006 l 381 780 m 169 797 l 60 813 l 65 1061 l 214 1032 l 169 797 z "},"̂":{"ha":0,"x_min":60,"x_max":612,"o":"m 188 782 l 60 884 l 335 1092 l 612 884 l 481 782 l 295 928 l 374 928 l 188 782 z "},"̌":{"ha":0,"x_min":60,"x_max":612,"o":"m 335 782 l 60 990 l 188 1092 l 374 918 l 295 918 l 481 1092 l 612 990 l 335 782 z "},"̆":{"ha":0,"x_min":60,"x_max":554,"o":"m 307 813 q 125 878 190 813 q 60 1072 60 944 l 229 1072 q 249 983 229 1012 q 307 955 269 955 q 365 983 345 955 q 385 1072 385 1012 l 554 1072 q 489 878 554 944 q 307 813 424 813 z "},"̊":{"ha":0,"x_min":60,"x_max":444,"o":"m 252 894 q 156 920 199 894 q 86 990 112 947 q 60 1087 60 1034 q 86 1183 60 1140 q 156 1253 112 1227 q 252 1279 199 1279 q 349 1253 305 1279 q 418 1183 392 1227 q 444 1087 444 1140 q 418 990 444 1034 q 349 920 392 947 q 252 894 305 894 m 252 1037 q 288 1051 273 1037 q 302 1087 302 1066 q 288 1122 302 1108 q 252 1137 273 1137 q 217 1122 231 1137 q 202 1087 202 1108 q 217 1051 202 1066 q 252 1037 231 1037 z "},"̃":{"ha":0,"x_min":32,"x_max":558,"o":"m 119 791 l 32 842 q 95 999 49 941 q 207 1056 141 1056 q 253 1048 229 1056 q 308 1023 277 1039 q 355 1001 336 1010 q 392 992 374 992 q 431 1008 412 992 q 465 1056 451 1023 l 558 996 q 523 893 549 940 q 464 819 497 847 q 397 791 430 791 q 342 801 367 791 q 282 828 316 812 q 238 851 254 844 q 207 858 222 858 q 163 845 183 858 q 119 791 142 832 z "},"̄":{"ha":0,"x_min":163,"x_max":692,"o":"m 163 992 l 692 992 l 692 812 l 163 812 l 163 992 z "},"̒":{"ha":0,"x_min":58,"x_max":274,"o":"m 185 987 l 274 939 q 217 904 243 924 q 180 860 190 884 q 225 835 207 853 q 241 788 243 817 q 213 736 239 757 q 150 715 187 715 q 81 747 103 715 q 60 822 58 779 q 98 917 64 872 q 185 987 132 962 z "},"̦":{"ha":0,"x_min":60,"x_max":277,"o":"m 149 -319 l 60 -272 q 117 -236 91 -256 q 154 -192 144 -216 q 109 -167 127 -185 q 93 -121 91 -149 q 121 -69 95 -90 q 184 -48 147 -48 q 254 -80 231 -48 q 274 -155 277 -112 q 236 -249 271 -204 q 149 -319 202 -294 z "},"̧":{"ha":0,"x_min":60,"x_max":381,"o":"m 60 -263 l 87 -193 q 161 -212 129 -210 q 212 -204 193 -215 q 233 -174 231 -194 q 225 -148 235 -160 q 190 -125 215 -136 q 122 -105 165 -115 l 181 72 l 264 56 l 213 -100 l 194 -56 q 307 -84 267 -62 q 364 -134 348 -106 q 378 -190 381 -162 q 343 -255 376 -230 q 263 -290 311 -281 q 160 -293 214 -300 q 60 -263 106 -287 z "},"̨":{"ha":0,"x_min":60,"x_max":438,"o":"m 438 -259 q 345 -295 392 -283 q 252 -307 299 -307 q 116 -271 172 -307 q 60 -166 60 -235 q 86 -78 60 -121 q 163 -11 113 -35 l 346 -38 q 242 -78 281 -56 q 203 -130 203 -100 q 224 -159 203 -153 q 265 -166 244 -166 q 319 -157 292 -166 q 388 -128 347 -149 l 438 -259 z "},"˙":{"ha":404,"x_min":60,"x_max":344,"o":"m 200 806 q 99 844 138 806 q 60 940 60 882 q 99 1037 60 998 q 200 1076 138 1076 q 303 1037 262 1076 q 344 940 344 999 q 303 844 344 881 q 200 806 262 806 z "},"˝":{"ha":511,"x_min":60,"x_max":451,"o":"m 381 780 l 275 801 l 304 1045 l 451 1006 l 381 780 m 169 797 l 60 813 l 65 1061 l 214 1032 l 169 797 z "},"ˇ":{"ha":672,"x_min":60,"x_max":612,"o":"m 335 782 l 60 990 l 188 1092 l 374 918 l 295 918 l 481 1092 l 612 990 l 335 782 z "},"˘":{"ha":615,"x_min":60,"x_max":554,"o":"m 307 813 q 125 878 190 813 q 60 1072 60 944 l 229 1072 q 249 983 229 1012 q 307 955 269 955 q 365 983 345 955 q 385 1072 385 1012 l 554 1072 q 489 878 554 944 q 307 813 424 813 z "},"˚":{"ha":505,"x_min":60,"x_max":444,"o":"m 252 894 q 156 920 199 894 q 86 990 112 947 q 60 1087 60 1034 q 86 1183 60 1140 q 156 1253 112 1227 q 252 1279 199 1279 q 349 1253 305 1279 q 418 1183 392 1227 q 444 1087 444 1140 q 418 990 444 1034 q 349 920 392 947 q 252 894 305 894 m 252 1037 q 288 1051 273 1037 q 302 1087 302 1066 q 288 1122 302 1108 q 252 1137 273 1137 q 217 1122 231 1137 q 202 1087 202 1108 q 217 1051 202 1066 q 252 1037 231 1037 z "},"¯":{"ha":649,"x_min":60,"x_max":589,"o":"m 60 992 l 589 992 l 589 812 l 60 812 l 60 992 z "},"¸":{"ha":439,"x_min":60,"x_max":381,"o":"m 60 -263 l 87 -193 q 161 -212 129 -210 q 212 -204 193 -215 q 233 -174 231 -194 q 225 -148 235 -160 q 190 -125 215 -136 q 122 -105 165 -115 l 181 72 l 264 56 l 213 -100 l 194 -56 q 307 -84 267 -62 q 364 -134 348 -106 q 378 -190 381 -162 q 343 -255 376 -230 q 263 -290 311 -281 q 160 -293 214 -300 q 60 -263 106 -287 z "},"˛":{"ha":499,"x_min":60,"x_max":438,"o":"m 438 -259 q 345 -295 392 -283 q 252 -307 299 -307 q 116 -271 172 -307 q 60 -166 60 -235 q 86 -78 60 -121 q 163 -11 113 -35 l 346 -38 q 242 -78 281 -56 q 203 -130 203 -100 q 224 -159 203 -153 q 265 -166 244 -166 q 319 -157 292 -166 q 388 -128 347 -149 l 438 -259 z "}}}
